<svg height="424pt" viewBox="0 -25 424 424" width="424pt" xmlns="http://www.w3.org/2000/svg" xmlns:xlink="http://www.w3.org/1999/xlink"><linearGradient id="a"><stop offset=".322" stop-color="#a163f5"/><stop offset=".466" stop-color="#b074ee"/><stop offset=".752" stop-color="#d8a1dd"/><stop offset=".898" stop-color="#efbad3"/></linearGradient><linearGradient id="b" gradientUnits="userSpaceOnUse" x1="144.647" x2="144.647" xlink:href="#a" y1="439.688" y2="-61.87"/><linearGradient id="c" gradientUnits="userSpaceOnUse" x1="279.353" x2="279.353" xlink:href="#a" y1="439.688" y2="-61.87"/><linearGradient id="d" gradientUnits="userSpaceOnUse" x1="210.072" x2="210.072" xlink:href="#a" y1="439.688" y2="-61.87"/><linearGradient id="e" gradientUnits="userSpaceOnUse" x1="212" x2="212" xlink:href="#a" y1="439.688" y2="-61.87"/><linearGradient id="f" gradientUnits="userSpaceOnUse" x1="119.603" x2="119.603" xlink:href="#a" y1="439.688" y2="-61.87"/><linearGradient id="g" gradientUnits="userSpaceOnUse" x1="51.54" x2="51.54" xlink:href="#a" y1="439.688" y2="-61.87"/><linearGradient id="h" gradientUnits="userSpaceOnUse" x1="187.666" x2="187.666" xlink:href="#a" y1="439.688" y2="-61.87"/><path d="m172.625 183.453125c-2.507812-2.945313-6.925781-3.300781-9.871094-.792969l-45.292968 38.570313c-1.5625 1.332031-2.460938 3.28125-2.460938 5.332031s.898438 4 2.460938 5.328125l45.292968 38.570313c2.945313 2.507812 7.363282 2.152343 9.867188-.789063 2.507812-2.941406 2.15625-7.359375-.789063-9.867187l-39.03125-33.242188 39.035157-33.242188c2.941406-2.507812 3.292968-6.925781.789062-9.867187zm0 0" fill="url(#b)"/><path d="m306.539062 221.230469-45.292968-38.570313c-2.945313-2.507812-7.363282-2.152344-9.867188.789063-2.507812 2.945312-2.15625 7.363281.789063 9.871093l39.03125 33.242188-39.03125 33.242188c-2.945313 2.507812-3.296875 6.925781-.789063 9.867187 2.503906 2.941406 6.921875 3.296875 9.867188.789063l45.292968-38.570313c1.5625-1.328125 2.460938-3.277344 2.460938-5.328125s-.898438-4-2.460938-5.332031zm0 0" fill="url(#c)"/><path d="m225.628906 153.175781c-3.78125-.796875-7.496094 1.625-8.292968 5.410157l-28.230469 134.03125c-.796875 3.785156 1.625 7.496093 5.40625 8.292968 3.785156.796875 7.496093-1.621094 8.292969-5.40625l28.230468-134.035156c.796875-3.78125-1.621094-7.496094-5.40625-8.292969zm0 0" fill="url(#d)"/><path d="m377 0h-330c-25.945312.0273438-46.9726562 21.054688-47 47v280.089844c.0273438 25.945312 21.054688 46.96875 47 47h330c25.945312-.03125 46.972656-21.054688 47-47v-280.089844c-.027344-25.945312-21.054688-46.9726562-47-47zm-330 14h330c18.214844.019531 32.980469 14.785156 33 33v51.09375h-396v-51.09375c.019531-18.214844 14.785156-32.980469 33-33zm330 346.089844h-330c-18.214844-.023438-32.980469-14.785156-33-33v-214.996094h396v214.996094c-.019531 18.214844-14.785156 32.976562-33 33zm0 0" fill="url(#e)"/><path d="m119.535156 78.59375h.066406c12.203126-.011719 22.101563-9.878906 22.152344-22.082031.023438-12.226563-9.855468-22.167969-22.082031-22.222657h-.070313c-12.09375.183594-21.808593 10.027344-21.824218 22.117188-.019532 12.09375 9.664062 21.96875 21.753906 22.183594zm-5.679687-27.933594c1.523437-1.523437 3.59375-2.375 5.746093-2.371094h.027344c4.414063.128907 7.925782 3.746094 7.917969 8.164063-.007813 4.414063-3.527344 8.023437-7.945313 8.136719h-.023437c-3.296875-.011719-6.265625-2.007813-7.515625-5.058594-1.253906-3.046875-.542969-6.550781 1.792969-8.878906zm0 0" fill="url(#f)"/><path d="m51.46875 78.382812h.070312c12.183594-.019531 22.046876-9.90625 22.035157-22.089843-.007813-12.183594-9.886719-22.050781-22.070313-22.050781-12.179687 0-22.058594 9.867187-22.070312 22.050781-.007813 12.183593 9.855468 22.070312 22.035156 22.089843zm.070312-30.300781h.027344c4.429688.105469 7.964844 3.730469 7.957032 8.160157-.007813 4.433593-3.550782 8.046874-7.984376 8.140624h-.023437c-4.433594-.105468-7.96875-3.730468-7.960937-8.164062.007812-4.433594 3.554687-8.046875 7.984374-8.136719zm0 0" fill="url(#g)"/><path d="m187.601562 78.808594h.070313c12.207031-.003906 22.109375-9.878906 22.148437-22.082032.027344-12.230468-9.851562-22.171874-22.082031-22.222656h-.066406c-12.179687.058594-22.027344 9.941406-22.046875 22.117188-.015625 12.179687 9.796875 22.089844 21.976562 22.1875zm.070313-30.304688h.023437c4.46875.054688 8.058594 3.695313 8.050782 8.164063-.007813 4.46875-3.609375 8.097656-8.074219 8.140625h-.027344c-4.46875-.058594-8.058593-3.699219-8.050781-8.164063.007812-4.46875 3.609375-8.101562 8.078125-8.140625zm0 0" fill="url(#h)"/></svg>