<svg height="512" viewBox="0 0 58 58" width="512" xmlns="http://www.w3.org/2000/svg"><g id="Page-1" fill="none" fill-rule="evenodd"><g id="015---Email" fill-rule="nonzero" transform="translate(0 -1)"><path id="Shape" d="m58 20-23.47 19.5-1.07.89c-2.584672 2.1499952-6.335328 2.1499952-8.92 0l-1.07-.89-23.47-19.5 9-6.38 10.76-7.62 4.78-3.39c2.584672-2.14999518 6.335328-2.14999518 8.92 0l4.78 3.39 10.76 7.62z" fill="#B690F0"/><path id="Shape" d="m49 48v-41c-.0337722-.58103527-.5286027-1.02682857-1.11-1h-37.78c-.58139726-.02682857-1.07622782.41896473-1.11 1v41z" fill="#f9eab0"/><path id="Shape" d="m30.2383 33.99c-2.2415644-.0103981-4.4685165-.3615784-6.6045-1.0415-3.4128423-1.1417755-5.9477395-4.0310188-6.6358-7.5634-.7529-3.6265.6192-7.461 3.7637-10.52.3374-.3286.688-.6433667 1.0518-.9443 3.2196288-2.6954608 7.5602996-3.6321929 11.605-2.5044 3.9157536 1.2498134 6.6214551 4.8283567 6.7568 8.9365.1466146 2.3647451-.6241352 4.6949748-2.1519 6.5059-1.1783023 1.4842706-3.0874488 2.185355-4.9463 1.8164-.7602176-.1577458-1.4234762-.6181385-1.8371-1.2752-.3711287-.6382278-.4663065-1.4000836-.2636-2.11.8745-3.3056 1.7636-8.3291 1.7724-8.38.0621106-.3519066.3072431-.6439461.6430585-.76611s.7112953-.0558927.985.17385c.2737048.2297427.4040521.5880534.3419415.93996-.0371.209-.9126 5.1572-1.8086 8.5435-.063952.1876506-.0478957.3933459.0444.5688.1382799.191343.3469169.3199065.58.3574 1.1379287.1899234 2.2873612-.2665919 2.9849-1.1855 1.1864016-1.4193487 1.780845-3.2409596 1.66-5.0869-.0977844-3.2700176-2.242135-6.124934-5.3554-7.13-3.3983056-.9347035-7.0389503-.1361935-9.7341 2.135-.3213.2667-.6338.5459-.9336.8379-1.5546 1.5122-4.0371 4.65-3.2006 8.68.5620337 2.8154834 2.5728764 5.1228675 5.2851 6.0645 4.69 1.4961 11.4292 1.6762 14.98-2.7388.3488575-.4201425.9702584-.4827231 1.3958849-.1405779s.4980618.9624746.1627151 1.3934779c-2.6257 3.2653-6.6213 4.4335-10.5412 4.4335z" fill="#cc4b4c"/><path id="Shape" d="m26.8149 28.8052c-1.0570282.0181646-2.0880311-.3284577-2.9194-.9815-1.9194-1.5361-1.9722-4.2046-1.4341-6.0219.1812165-.6052113.4245444-1.1900564.7261-1.7452.7503224-1.5138869 1.9500705-2.7589691 3.4351-3.5649 1.8493462-.9596056 4.1088442-.5957076 5.5634.896.7216241.7908253 1.2651883 1.727263 1.594 2.7461.1741403.5170195-.0982507 1.0782018-.6121886 1.2612366-.513938.1830348-1.0797365-.0796331-1.2716114-.5903366-.2370831-.7527039-.6311586-1.4465454-1.1562-2.0357-.8480317-.8672392-2.1694059-1.0645586-3.2338-.4829-1.1136951.6280705-2.0087091 1.5816703-2.565 2.7329-.2337738.431336-.4225991.8855555-.5635 1.3555-.3886 1.3145-.3032 3.03.7691 3.8887 1.1723.9414 3.15.5434 4.2627-.4165.829232-.746533 1.5417334-1.6132856 2.1137-2.5713.1852213-.3103564.5234962-.4966162.8847981-.4871844.3613019.0094317.6893982.213087.8581746.5326844.1687764.3195975.1519648.7053954-.0439727 1.0091-.6774817 1.1288507-1.5209182 2.1493684-2.502 3.0273-1.0934765.9226171-2.4746572 1.4346934-3.9053 1.4479z" fill="#cc4b4c"/><path id="Shape" d="m58.0000036 20-.0000036 37c.0010643.5570102-.2353631 1.0880623-.65 1.46-.3624448.3490334-.8468273.5427864-1.35.54h-54c-.50317268.0027864-.98755521-.1909666-1.35-.54-.41463695-.3719377-.65106428-.9029898-.65-1.46l-.00000358-37 23.47000358 19.5 1.07.89c2.584672 2.1499952 6.335328 2.1499952 8.92 0l1.07-.89z" fill="#A381D6"/><path id="Shape" d="m57.35 58.46c-.3624448.3490334-.8468273.5427864-1.35.54h-54c-.50317268.0027864-.98755521-.1909666-1.35-.54l22.82-18.96 1.07.89c2.584672 2.1499952 6.335328 2.1499952 8.92 0l1.07-.89z" fill="#866AB0"/></g></g></svg>
