<?xml version="1.0" encoding="UTF-8" standalone="no"?>
<!DOCTYPE svg PUBLIC "-//W3C//DTD SVG 1.1//EN" "http://www.w3.org/Graphics/SVG/1.1/DTD/svg11.dtd">
<svg version="1.1" xmlns="http://www.w3.org/2000/svg" xmlns:xlink="http://www.w3.org/1999/xlink" preserveAspectRatio="xMidYMid meet" viewBox="0 0 1250 565" width="1250" height="565"><defs><path d="M137 117.59L126.27 128.34" id="b2rEgsztTg"></path><path d="M137 117.59L126.27 128.34" id="evQa3tUrK"></path><path d="M137 117.59L126.27 128.34" id="f2tIEGABio"></path><path d="M137 117.59L126.27 128.34" id="h1mRxro2c6"></path><path d="M126.27 117.59L137 128.34" id="ennnz1ehc"></path><path d="M126.27 117.59L137 128.34" id="b6PUynicuX"></path><path d="M126.27 117.59L137 128.34" id="bwEwHndv6"></path><path d="M126.27 117.59L137 128.34" id="b492ty4lme"></path><path d="M361.9 366.87L351.16 377.62" id="a27Ytqxuv"></path><path d="M361.9 366.87L351.16 377.62" id="a59NoZXT6Z"></path><path d="M361.9 366.87L351.16 377.62" id="aLYCHaF2e"></path><path d="M361.9 366.87L351.16 377.62" id="bjn72Dgku"></path><path d="M351.16 366.87L361.9 377.62" id="bQOyqUJgS"></path><path d="M351.16 366.87L361.9 377.62" id="b8iaB0KWS"></path><path d="M351.16 366.87L361.9 377.62" id="i2pcBxA88M"></path><path d="M351.16 366.87L361.9 377.62" id="b12PrjTzyn"></path><path d="M912.39 433.37L912.39 448.57" id="g2yuBnuhL5"></path><path d="M1089.72 472.73C1089.72 474.58 1088.22 476.07 1086.38 476.07C1084.53 476.07 1083.04 474.58 1083.04 472.73C1083.04 470.88 1084.53 469.38 1086.38 469.38C1088.22 469.38 1089.72 470.88 1089.72 472.73Z" id="bgoZNiBxf"></path><path d="M1089.72 472.73C1089.72 474.58 1088.22 476.07 1086.38 476.07C1084.53 476.07 1083.04 474.58 1083.04 472.73C1083.04 470.88 1084.53 469.38 1086.38 469.38C1088.22 469.38 1089.72 470.88 1089.72 472.73Z" id="cvF5QsDei"></path><path d="M1089.72 472.73C1089.72 474.58 1088.22 476.07 1086.38 476.07C1084.53 476.07 1083.04 474.58 1083.04 472.73C1083.04 470.88 1084.53 469.38 1086.38 469.38C1088.22 469.38 1089.72 470.88 1089.72 472.73Z" id="d3JT1td6E"></path><path d="M1066.38 472.73C1066.38 474.58 1064.89 476.07 1063.04 476.07C1061.2 476.07 1059.7 474.58 1059.7 472.73C1059.7 470.88 1061.2 469.38 1063.04 469.38C1064.89 469.38 1066.38 470.88 1066.38 472.73Z" id="fb3MGe4U"></path><path d="M904.78 440.97L919.98 440.97" id="b3SoUsSgc"></path><path d="M904.78 440.97L919.98 440.97" id="bbr5dJeAz"></path><path d="M904.78 440.97L919.98 440.97" id="a3SbGZOkOR"></path><path d="M904.78 440.97L919.98 440.97" id="e1ffGt6D7f"></path><path d="M1183.04 402.65C1183.04 404.5 1181.54 406 1179.7 406C1177.85 406 1176.36 404.5 1176.36 402.65C1176.36 400.8 1177.85 399.31 1179.7 399.31C1181.54 399.31 1183.04 400.8 1183.04 402.65Z" id="ctnGQTVfx"></path><path d="M1183.04 402.65C1183.04 404.5 1181.54 406 1179.7 406C1177.85 406 1176.36 404.5 1176.36 402.65C1176.36 400.8 1177.85 399.31 1179.7 399.31C1181.54 399.31 1183.04 400.8 1183.04 402.65Z" id="aqIDOJ19g"></path><path d="M1183.04 402.65C1183.04 404.5 1181.54 406 1179.7 406C1177.85 406 1176.36 404.5 1176.36 402.65C1176.36 400.8 1177.85 399.31 1179.7 399.31C1181.54 399.31 1183.04 400.8 1183.04 402.65Z" id="a78KhVm8Zl"></path><path d="M1183.04 402.65C1183.04 404.5 1181.54 406 1179.7 406C1177.85 406 1176.36 404.5 1176.36 402.65C1176.36 400.8 1177.85 399.31 1179.7 399.31C1181.54 399.31 1183.04 400.8 1183.04 402.65Z" id="e4ZqUIweEB"></path><path d="M1159.7 402.65C1159.7 404.5 1158.21 406 1156.36 406C1154.51 406 1153.02 404.5 1153.02 402.65C1153.02 400.8 1154.51 399.31 1156.36 399.31C1158.21 399.31 1159.7 400.8 1159.7 402.65Z" id="a1L9sl4sSS"></path><path d="M1159.7 402.65C1159.7 404.5 1158.21 406 1156.36 406C1154.51 406 1153.02 404.5 1153.02 402.65C1153.02 400.8 1154.51 399.31 1156.36 399.31C1158.21 399.31 1159.7 400.8 1159.7 402.65Z" id="alTOMn9uo"></path><path d="M1159.7 402.65C1159.7 404.5 1158.21 406 1156.36 406C1154.51 406 1153.02 404.5 1153.02 402.65C1153.02 400.8 1154.51 399.31 1156.36 399.31C1158.21 399.31 1159.7 400.8 1159.7 402.65Z" id="acLWlSEhE"></path><path d="M1159.7 402.65C1159.7 404.5 1158.21 406 1156.36 406C1154.51 406 1153.02 404.5 1153.02 402.65C1153.02 400.8 1154.51 399.31 1156.36 399.31C1158.21 399.31 1159.7 400.8 1159.7 402.65Z" id="g1tkw9Tl6V"></path><path d="M1136.38 402.65C1136.38 404.5 1134.88 406 1133.04 406C1131.19 406 1129.7 404.5 1129.7 402.65C1129.7 400.8 1131.19 399.31 1133.04 399.31C1134.88 399.31 1136.38 400.8 1136.38 402.65Z" id="fWDYd40WX"></path><path d="M1136.38 402.65C1136.38 404.5 1134.88 406 1133.04 406C1131.19 406 1129.7 404.5 1129.7 402.65C1129.7 400.8 1131.19 399.31 1133.04 399.31C1134.88 399.31 1136.38 400.8 1136.38 402.65Z" id="b1MzsAIfJd"></path><path d="M1136.38 402.65C1136.38 404.5 1134.88 406 1133.04 406C1131.19 406 1129.7 404.5 1129.7 402.65C1129.7 400.8 1131.19 399.31 1133.04 399.31C1134.88 399.31 1136.38 400.8 1136.38 402.65Z" id="aakaSu4uy"></path><path d="M1136.38 402.65C1136.38 404.5 1134.88 406 1133.04 406C1131.19 406 1129.7 404.5 1129.7 402.65C1129.7 400.8 1131.19 399.31 1133.04 399.31C1134.88 399.31 1136.38 400.8 1136.38 402.65Z" id="fUVyzIWf5"></path><path d="M1113.04 402.65C1113.04 404.5 1111.55 406 1109.7 406C1107.85 406 1106.36 404.5 1106.36 402.65C1106.36 400.8 1107.85 399.31 1109.7 399.31C1111.55 399.31 1113.04 400.8 1113.04 402.65Z" id="b3WufVBdM"></path><path d="M1113.04 402.65C1113.04 404.5 1111.55 406 1109.7 406C1107.85 406 1106.36 404.5 1106.36 402.65C1106.36 400.8 1107.85 399.31 1109.7 399.31C1111.55 399.31 1113.04 400.8 1113.04 402.65Z" id="a1Bsalhszq"></path><path d="M1113.04 402.65C1113.04 404.5 1111.55 406 1109.7 406C1107.85 406 1106.36 404.5 1106.36 402.65C1106.36 400.8 1107.85 399.31 1109.7 399.31C1111.55 399.31 1113.04 400.8 1113.04 402.65Z" id="dha8BUmaP"></path><path d="M1113.04 402.65C1113.04 404.5 1111.55 406 1109.7 406C1107.85 406 1106.36 404.5 1106.36 402.65C1106.36 400.8 1107.85 399.31 1109.7 399.31C1111.55 399.31 1113.04 400.8 1113.04 402.65Z" id="a2rYYiKo2G"></path><path d="M1089.72 402.65C1089.72 404.5 1088.22 406 1086.38 406C1084.53 406 1083.04 404.5 1083.04 402.65C1083.04 400.8 1084.53 399.31 1086.38 399.31C1088.22 399.31 1089.72 400.8 1089.72 402.65Z" id="b1Xx1k1GS"></path><path d="M1089.72 402.65C1089.72 404.5 1088.22 406 1086.38 406C1084.53 406 1083.04 404.5 1083.04 402.65C1083.04 400.8 1084.53 399.31 1086.38 399.31C1088.22 399.31 1089.72 400.8 1089.72 402.65Z" id="iv0AsciXj"></path><path d="M1089.72 402.65C1089.72 404.5 1088.22 406 1086.38 406C1084.53 406 1083.04 404.5 1083.04 402.65C1083.04 400.8 1084.53 399.31 1086.38 399.31C1088.22 399.31 1089.72 400.8 1089.72 402.65Z" id="aTPPsBVUZ"></path><path d="M1089.72 402.65C1089.72 404.5 1088.22 406 1086.38 406C1084.53 406 1083.04 404.5 1083.04 402.65C1083.04 400.8 1084.53 399.31 1086.38 399.31C1088.22 399.31 1089.72 400.8 1089.72 402.65Z" id="c3dbpryU4X"></path><path d="M912.39 433.37L912.39 448.57" id="a2q4bQD0De"></path><path d="M912.39 433.37L912.39 448.57" id="a6oC9tZbu"></path><path d="M912.39 433.37L912.39 448.57" id="a3K9YMCxg"></path><path d="M1066.38 402.65C1066.38 404.5 1064.89 406 1063.04 406C1061.2 406 1059.7 404.5 1059.7 402.65C1059.7 400.8 1061.2 399.31 1063.04 399.31C1064.89 399.31 1066.38 400.8 1066.38 402.65Z" id="k1mQ2c1oSO"></path><path d="M1066.38 402.65C1066.38 404.5 1064.89 406 1063.04 406C1061.2 406 1059.7 404.5 1059.7 402.65C1059.7 400.8 1061.2 399.31 1063.04 399.31C1064.89 399.31 1066.38 400.8 1066.38 402.65Z" id="kp4DSVY0S"></path><path d="M1066.38 402.65C1066.38 404.5 1064.89 406 1063.04 406C1061.2 406 1059.7 404.5 1059.7 402.65C1059.7 400.8 1061.2 399.31 1063.04 399.31C1064.89 399.31 1066.38 400.8 1066.38 402.65Z" id="b29YfX5fZh"></path><path d="M1066.38 402.65C1066.38 404.5 1064.89 406 1063.04 406C1061.2 406 1059.7 404.5 1059.7 402.65C1059.7 400.8 1061.2 399.31 1063.04 399.31C1064.89 399.31 1066.38 400.8 1066.38 402.65Z" id="a2U3W3NoSS"></path><path d="M1183.04 426.01C1183.04 427.85 1181.54 429.35 1179.7 429.35C1177.85 429.35 1176.36 427.85 1176.36 426.01C1176.36 424.16 1177.85 422.66 1179.7 422.66C1181.54 422.66 1183.04 424.16 1183.04 426.01Z" id="d7takIJKf"></path><path d="M1183.04 426.01C1183.04 427.85 1181.54 429.35 1179.7 429.35C1177.85 429.35 1176.36 427.85 1176.36 426.01C1176.36 424.16 1177.85 422.66 1179.7 422.66C1181.54 422.66 1183.04 424.16 1183.04 426.01Z" id="a57UeIRzkg"></path><path d="M1183.04 426.01C1183.04 427.85 1181.54 429.35 1179.7 429.35C1177.85 429.35 1176.36 427.85 1176.36 426.01C1176.36 424.16 1177.85 422.66 1179.7 422.66C1181.54 422.66 1183.04 424.16 1183.04 426.01Z" id="g15copokid"></path><path d="M1183.04 426.01C1183.04 427.85 1181.54 429.35 1179.7 429.35C1177.85 429.35 1176.36 427.85 1176.36 426.01C1176.36 424.16 1177.85 422.66 1179.7 422.66C1181.54 422.66 1183.04 424.16 1183.04 426.01Z" id="d6ZJC7j90"></path><path d="M1159.7 426.01C1159.7 427.85 1158.21 429.35 1156.36 429.35C1154.51 429.35 1153.02 427.85 1153.02 426.01C1153.02 424.16 1154.51 422.66 1156.36 422.66C1158.21 422.66 1159.7 424.16 1159.7 426.01Z" id="ajRFz2NiK"></path><path d="M1159.7 426.01C1159.7 427.85 1158.21 429.35 1156.36 429.35C1154.51 429.35 1153.02 427.85 1153.02 426.01C1153.02 424.16 1154.51 422.66 1156.36 422.66C1158.21 422.66 1159.7 424.16 1159.7 426.01Z" id="a1YXp0FrB6"></path><path d="M1159.7 426.01C1159.7 427.85 1158.21 429.35 1156.36 429.35C1154.51 429.35 1153.02 427.85 1153.02 426.01C1153.02 424.16 1154.51 422.66 1156.36 422.66C1158.21 422.66 1159.7 424.16 1159.7 426.01Z" id="cfBbnyNUY"></path><path d="M1159.7 426.01C1159.7 427.85 1158.21 429.35 1156.36 429.35C1154.51 429.35 1153.02 427.85 1153.02 426.01C1153.02 424.16 1154.51 422.66 1156.36 422.66C1158.21 422.66 1159.7 424.16 1159.7 426.01Z" id="bZbecTqS"></path><path d="M1136.38 426.01C1136.38 427.85 1134.88 429.35 1133.04 429.35C1131.19 429.35 1129.7 427.85 1129.7 426.01C1129.7 424.16 1131.19 422.66 1133.04 422.66C1134.88 422.66 1136.38 424.16 1136.38 426.01Z" id="aaqOYUOLT"></path><path d="M1136.38 426.01C1136.38 427.85 1134.88 429.35 1133.04 429.35C1131.19 429.35 1129.7 427.85 1129.7 426.01C1129.7 424.16 1131.19 422.66 1133.04 422.66C1134.88 422.66 1136.38 424.16 1136.38 426.01Z" id="aBE6NMCLU"></path><path d="M1136.38 426.01C1136.38 427.85 1134.88 429.35 1133.04 429.35C1131.19 429.35 1129.7 427.85 1129.7 426.01C1129.7 424.16 1131.19 422.66 1133.04 422.66C1134.88 422.66 1136.38 424.16 1136.38 426.01Z" id="f1GMlKoIJS"></path><path d="M1136.38 426.01C1136.38 427.85 1134.88 429.35 1133.04 429.35C1131.19 429.35 1129.7 427.85 1129.7 426.01C1129.7 424.16 1131.19 422.66 1133.04 422.66C1134.88 422.66 1136.38 424.16 1136.38 426.01Z" id="b1OXMulzG"></path><path d="M1113.04 426.01C1113.04 427.85 1111.55 429.35 1109.7 429.35C1107.85 429.35 1106.36 427.85 1106.36 426.01C1106.36 424.16 1107.85 422.66 1109.7 422.66C1111.55 422.66 1113.04 424.16 1113.04 426.01Z" id="d1kTWsJyif"></path><path d="M1113.04 426.01C1113.04 427.85 1111.55 429.35 1109.7 429.35C1107.85 429.35 1106.36 427.85 1106.36 426.01C1106.36 424.16 1107.85 422.66 1109.7 422.66C1111.55 422.66 1113.04 424.16 1113.04 426.01Z" id="a1mKijLbuS"></path><path d="M1113.04 426.01C1113.04 427.85 1111.55 429.35 1109.7 429.35C1107.85 429.35 1106.36 427.85 1106.36 426.01C1106.36 424.16 1107.85 422.66 1109.7 422.66C1111.55 422.66 1113.04 424.16 1113.04 426.01Z" id="f1ZxlfSbAI"></path><path d="M1113.04 426.01C1113.04 427.85 1111.55 429.35 1109.7 429.35C1107.85 429.35 1106.36 427.85 1106.36 426.01C1106.36 424.16 1107.85 422.66 1109.7 422.66C1111.55 422.66 1113.04 424.16 1113.04 426.01Z" id="aNmZjPlMN"></path><path d="M1089.72 426.01C1089.72 427.85 1088.22 429.35 1086.38 429.35C1084.53 429.35 1083.04 427.85 1083.04 426.01C1083.04 424.16 1084.53 422.66 1086.38 422.66C1088.22 422.66 1089.72 424.16 1089.72 426.01Z" id="bkmU8PkYR"></path><path d="M1089.72 426.01C1089.72 427.85 1088.22 429.35 1086.38 429.35C1084.53 429.35 1083.04 427.85 1083.04 426.01C1083.04 424.16 1084.53 422.66 1086.38 422.66C1088.22 422.66 1089.72 424.16 1089.72 426.01Z" id="dykyrt2fb"></path><path d="M1089.72 426.01C1089.72 427.85 1088.22 429.35 1086.38 429.35C1084.53 429.35 1083.04 427.85 1083.04 426.01C1083.04 424.16 1084.53 422.66 1086.38 422.66C1088.22 422.66 1089.72 424.16 1089.72 426.01Z" id="b1pTSQn86M"></path><path d="M1089.72 426.01C1089.72 427.85 1088.22 429.35 1086.38 429.35C1084.53 429.35 1083.04 427.85 1083.04 426.01C1083.04 424.16 1084.53 422.66 1086.38 422.66C1088.22 422.66 1089.72 424.16 1089.72 426.01Z" id="c2E373MpUZ"></path><path d="M1066.38 426.01C1066.38 427.85 1064.89 429.35 1063.04 429.35C1061.2 429.35 1059.7 427.85 1059.7 426.01C1059.7 424.16 1061.2 422.66 1063.04 422.66C1064.89 422.66 1066.38 424.16 1066.38 426.01Z" id="a8HcoEuqj"></path><path d="M1066.38 426.01C1066.38 427.85 1064.89 429.35 1063.04 429.35C1061.2 429.35 1059.7 427.85 1059.7 426.01C1059.7 424.16 1061.2 422.66 1063.04 422.66C1064.89 422.66 1066.38 424.16 1066.38 426.01Z" id="cgS8KkqhD"></path><path d="M1066.38 426.01C1066.38 427.85 1064.89 429.35 1063.04 429.35C1061.2 429.35 1059.7 427.85 1059.7 426.01C1059.7 424.16 1061.2 422.66 1063.04 422.66C1064.89 422.66 1066.38 424.16 1066.38 426.01Z" id="a1hmAn6lwa"></path><path d="M1066.38 426.01C1066.38 427.85 1064.89 429.35 1063.04 429.35C1061.2 429.35 1059.7 427.85 1059.7 426.01C1059.7 424.16 1061.2 422.66 1063.04 422.66C1064.89 422.66 1066.38 424.16 1066.38 426.01Z" id="h5OKIghbqb"></path><path d="M1183.04 449.38C1183.04 451.22 1181.54 452.72 1179.7 452.72C1177.85 452.72 1176.36 451.22 1176.36 449.38C1176.36 447.53 1177.85 446.03 1179.7 446.03C1181.54 446.03 1183.04 447.53 1183.04 449.38Z" id="aPvxnqRX3"></path><path d="M1183.04 449.38C1183.04 451.22 1181.54 452.72 1179.7 452.72C1177.85 452.72 1176.36 451.22 1176.36 449.38C1176.36 447.53 1177.85 446.03 1179.7 446.03C1181.54 446.03 1183.04 447.53 1183.04 449.38Z" id="egFiXoGOT"></path><path d="M1183.04 449.38C1183.04 451.22 1181.54 452.72 1179.7 452.72C1177.85 452.72 1176.36 451.22 1176.36 449.38C1176.36 447.53 1177.85 446.03 1179.7 446.03C1181.54 446.03 1183.04 447.53 1183.04 449.38Z" id="bcatllxQdi"></path><path d="M1183.04 449.38C1183.04 451.22 1181.54 452.72 1179.7 452.72C1177.85 452.72 1176.36 451.22 1176.36 449.38C1176.36 447.53 1177.85 446.03 1179.7 446.03C1181.54 446.03 1183.04 447.53 1183.04 449.38Z" id="i1F89nYIu7"></path><path d="M1159.7 449.38C1159.7 451.22 1158.21 452.72 1156.36 452.72C1154.51 452.72 1153.02 451.22 1153.02 449.38C1153.02 447.53 1154.51 446.03 1156.36 446.03C1158.21 446.03 1159.7 447.53 1159.7 449.38Z" id="a5AFXOa2cQ"></path><path d="M1159.7 449.38C1159.7 451.22 1158.21 452.72 1156.36 452.72C1154.51 452.72 1153.02 451.22 1153.02 449.38C1153.02 447.53 1154.51 446.03 1156.36 446.03C1158.21 446.03 1159.7 447.53 1159.7 449.38Z" id="bXqXQT3xY"></path><path d="M1159.7 449.38C1159.7 451.22 1158.21 452.72 1156.36 452.72C1154.51 452.72 1153.02 451.22 1153.02 449.38C1153.02 447.53 1154.51 446.03 1156.36 446.03C1158.21 446.03 1159.7 447.53 1159.7 449.38Z" id="b1F8YmMNR"></path><path d="M1159.7 449.38C1159.7 451.22 1158.21 452.72 1156.36 452.72C1154.51 452.72 1153.02 451.22 1153.02 449.38C1153.02 447.53 1154.51 446.03 1156.36 446.03C1158.21 446.03 1159.7 447.53 1159.7 449.38Z" id="a6RYsoNrnv"></path><path d="M1136.38 449.38C1136.38 451.22 1134.88 452.72 1133.04 452.72C1131.19 452.72 1129.7 451.22 1129.7 449.38C1129.7 447.53 1131.19 446.03 1133.04 446.03C1134.88 446.03 1136.38 447.53 1136.38 449.38Z" id="a2sOW4ZM9R"></path><path d="M1136.38 449.38C1136.38 451.22 1134.88 452.72 1133.04 452.72C1131.19 452.72 1129.7 451.22 1129.7 449.38C1129.7 447.53 1131.19 446.03 1133.04 446.03C1134.88 446.03 1136.38 447.53 1136.38 449.38Z" id="a1UnCvC7Qr"></path><path d="M1136.38 449.38C1136.38 451.22 1134.88 452.72 1133.04 452.72C1131.19 452.72 1129.7 451.22 1129.7 449.38C1129.7 447.53 1131.19 446.03 1133.04 446.03C1134.88 446.03 1136.38 447.53 1136.38 449.38Z" id="a6sC2bpUeM"></path><path d="M1136.38 449.38C1136.38 451.22 1134.88 452.72 1133.04 452.72C1131.19 452.72 1129.7 451.22 1129.7 449.38C1129.7 447.53 1131.19 446.03 1133.04 446.03C1134.88 446.03 1136.38 447.53 1136.38 449.38Z" id="a4cdEOqqp"></path><path d="M1113.04 449.38C1113.04 451.22 1111.55 452.72 1109.7 452.72C1107.85 452.72 1106.36 451.22 1106.36 449.38C1106.36 447.53 1107.85 446.03 1109.7 446.03C1111.55 446.03 1113.04 447.53 1113.04 449.38Z" id="j1G2JbJiXD"></path><path d="M1113.04 449.38C1113.04 451.22 1111.55 452.72 1109.7 452.72C1107.85 452.72 1106.36 451.22 1106.36 449.38C1106.36 447.53 1107.85 446.03 1109.7 446.03C1111.55 446.03 1113.04 447.53 1113.04 449.38Z" id="a29CKG5Io"></path><path d="M1113.04 449.38C1113.04 451.22 1111.55 452.72 1109.7 452.72C1107.85 452.72 1106.36 451.22 1106.36 449.38C1106.36 447.53 1107.85 446.03 1109.7 446.03C1111.55 446.03 1113.04 447.53 1113.04 449.38Z" id="a2HUWu3s33"></path><path d="M1113.04 449.38C1113.04 451.22 1111.55 452.72 1109.7 452.72C1107.85 452.72 1106.36 451.22 1106.36 449.38C1106.36 447.53 1107.85 446.03 1109.7 446.03C1111.55 446.03 1113.04 447.53 1113.04 449.38Z" id="bQ4X3JCQ"></path><path d="M1089.72 449.38C1089.72 451.22 1088.22 452.72 1086.38 452.72C1084.53 452.72 1083.04 451.22 1083.04 449.38C1083.04 447.53 1084.53 446.03 1086.38 446.03C1088.22 446.03 1089.72 447.53 1089.72 449.38Z" id="e4XRNGqJ0W"></path><path d="M1089.72 449.38C1089.72 451.22 1088.22 452.72 1086.38 452.72C1084.53 452.72 1083.04 451.22 1083.04 449.38C1083.04 447.53 1084.53 446.03 1086.38 446.03C1088.22 446.03 1089.72 447.53 1089.72 449.38Z" id="cTKXZm7Mc"></path><path d="M1089.72 449.38C1089.72 451.22 1088.22 452.72 1086.38 452.72C1084.53 452.72 1083.04 451.22 1083.04 449.38C1083.04 447.53 1084.53 446.03 1086.38 446.03C1088.22 446.03 1089.72 447.53 1089.72 449.38Z" id="a3nFKCaKRS"></path><path d="M1089.72 449.38C1089.72 451.22 1088.22 452.72 1086.38 452.72C1084.53 452.72 1083.04 451.22 1083.04 449.38C1083.04 447.53 1084.53 446.03 1086.38 446.03C1088.22 446.03 1089.72 447.53 1089.72 449.38Z" id="b42HL2mYyu"></path><path d="M1066.38 449.38C1066.38 451.22 1064.89 452.72 1063.04 452.72C1061.2 452.72 1059.7 451.22 1059.7 449.38C1059.7 447.53 1061.2 446.03 1063.04 446.03C1064.89 446.03 1066.38 447.53 1066.38 449.38Z" id="b2Mgv7NFr"></path><path d="M1066.38 449.38C1066.38 451.22 1064.89 452.72 1063.04 452.72C1061.2 452.72 1059.7 451.22 1059.7 449.38C1059.7 447.53 1061.2 446.03 1063.04 446.03C1064.89 446.03 1066.38 447.53 1066.38 449.38Z" id="l1kO8hfen"></path><path d="M1066.38 449.38C1066.38 451.22 1064.89 452.72 1063.04 452.72C1061.2 452.72 1059.7 451.22 1059.7 449.38C1059.7 447.53 1061.2 446.03 1063.04 446.03C1064.89 446.03 1066.38 447.53 1066.38 449.38Z" id="b5Zm4O0BdM"></path><path d="M1066.38 449.38C1066.38 451.22 1064.89 452.72 1063.04 452.72C1061.2 452.72 1059.7 451.22 1059.7 449.38C1059.7 447.53 1061.2 446.03 1063.04 446.03C1064.89 446.03 1066.38 447.53 1066.38 449.38Z" id="b4wFzASoGW"></path><path d="M1183.04 472.73C1183.04 474.58 1181.54 476.07 1179.7 476.07C1177.85 476.07 1176.36 474.58 1176.36 472.73C1176.36 470.88 1177.85 469.38 1179.7 469.38C1181.54 469.38 1183.04 470.88 1183.04 472.73Z" id="b6PIdtucr"></path><path d="M1183.04 472.73C1183.04 474.58 1181.54 476.07 1179.7 476.07C1177.85 476.07 1176.36 474.58 1176.36 472.73C1176.36 470.88 1177.85 469.38 1179.7 469.38C1181.54 469.38 1183.04 470.88 1183.04 472.73Z" id="c3p4Vg2Kw6"></path><path d="M1183.04 472.73C1183.04 474.58 1181.54 476.07 1179.7 476.07C1177.85 476.07 1176.36 474.58 1176.36 472.73C1176.36 470.88 1177.85 469.38 1179.7 469.38C1181.54 469.38 1183.04 470.88 1183.04 472.73Z" id="azB3PHS5M"></path><path d="M1183.04 472.73C1183.04 474.58 1181.54 476.07 1179.7 476.07C1177.85 476.07 1176.36 474.58 1176.36 472.73C1176.36 470.88 1177.85 469.38 1179.7 469.38C1181.54 469.38 1183.04 470.88 1183.04 472.73Z" id="aWgJmjkp1"></path><path d="M1159.7 472.73C1159.7 474.58 1158.21 476.07 1156.36 476.07C1154.51 476.07 1153.02 474.58 1153.02 472.73C1153.02 470.88 1154.51 469.38 1156.36 469.38C1158.21 469.38 1159.7 470.88 1159.7 472.73Z" id="a4XsLHRqh5"></path><path d="M1159.7 472.73C1159.7 474.58 1158.21 476.07 1156.36 476.07C1154.51 476.07 1153.02 474.58 1153.02 472.73C1153.02 470.88 1154.51 469.38 1156.36 469.38C1158.21 469.38 1159.7 470.88 1159.7 472.73Z" id="baumu7N"></path><path d="M1159.7 472.73C1159.7 474.58 1158.21 476.07 1156.36 476.07C1154.51 476.07 1153.02 474.58 1153.02 472.73C1153.02 470.88 1154.51 469.38 1156.36 469.38C1158.21 469.38 1159.7 470.88 1159.7 472.73Z" id="b6umauktps"></path><path d="M1159.7 472.73C1159.7 474.58 1158.21 476.07 1156.36 476.07C1154.51 476.07 1153.02 474.58 1153.02 472.73C1153.02 470.88 1154.51 469.38 1156.36 469.38C1158.21 469.38 1159.7 470.88 1159.7 472.73Z" id="cH1GVhKC6"></path><path d="M1136.38 472.73C1136.38 474.58 1134.88 476.07 1133.04 476.07C1131.19 476.07 1129.7 474.58 1129.7 472.73C1129.7 470.88 1131.19 469.38 1133.04 469.38C1134.88 469.38 1136.38 470.88 1136.38 472.73Z" id="b2Sasje3c"></path><path d="M1136.38 472.73C1136.38 474.58 1134.88 476.07 1133.04 476.07C1131.19 476.07 1129.7 474.58 1129.7 472.73C1129.7 470.88 1131.19 469.38 1133.04 469.38C1134.88 469.38 1136.38 470.88 1136.38 472.73Z" id="ihHoGVQp5"></path><path d="M1136.38 472.73C1136.38 474.58 1134.88 476.07 1133.04 476.07C1131.19 476.07 1129.7 474.58 1129.7 472.73C1129.7 470.88 1131.19 469.38 1133.04 469.38C1134.88 469.38 1136.38 470.88 1136.38 472.73Z" id="asjQLXKUh"></path><path d="M1136.38 472.73C1136.38 474.58 1134.88 476.07 1133.04 476.07C1131.19 476.07 1129.7 474.58 1129.7 472.73C1129.7 470.88 1131.19 469.38 1133.04 469.38C1134.88 469.38 1136.38 470.88 1136.38 472.73Z" id="e3aZlznuXm"></path><path d="M1113.04 472.73C1113.04 474.58 1111.55 476.07 1109.7 476.07C1107.85 476.07 1106.36 474.58 1106.36 472.73C1106.36 470.88 1107.85 469.38 1109.7 469.38C1111.55 469.38 1113.04 470.88 1113.04 472.73Z" id="f54eCq1jDv"></path><path d="M1113.04 472.73C1113.04 474.58 1111.55 476.07 1109.7 476.07C1107.85 476.07 1106.36 474.58 1106.36 472.73C1106.36 470.88 1107.85 469.38 1109.7 469.38C1111.55 469.38 1113.04 470.88 1113.04 472.73Z" id="awK4764Iz"></path><path d="M1113.04 472.73C1113.04 474.58 1111.55 476.07 1109.7 476.07C1107.85 476.07 1106.36 474.58 1106.36 472.73C1106.36 470.88 1107.85 469.38 1109.7 469.38C1111.55 469.38 1113.04 470.88 1113.04 472.73Z" id="b1jKJ4p9xn"></path><path d="M1113.04 472.73C1113.04 474.58 1111.55 476.07 1109.7 476.07C1107.85 476.07 1106.36 474.58 1106.36 472.73C1106.36 470.88 1107.85 469.38 1109.7 469.38C1111.55 469.38 1113.04 470.88 1113.04 472.73Z" id="e1HXteUze0"></path><path d="M1089.72 472.73C1089.72 474.58 1088.22 476.07 1086.38 476.07C1084.53 476.07 1083.04 474.58 1083.04 472.73C1083.04 470.88 1084.53 469.38 1086.38 469.38C1088.22 469.38 1089.72 470.88 1089.72 472.73Z" id="e6bRUZCHrK"></path><path d="M1066.38 472.73C1066.38 474.58 1064.89 476.07 1063.04 476.07C1061.2 476.07 1059.7 474.58 1059.7 472.73C1059.7 470.88 1061.2 469.38 1063.04 469.38C1064.89 469.38 1066.38 470.88 1066.38 472.73Z" id="ay9WuXLEc"></path><path d="M1066.38 472.73C1066.38 474.58 1064.89 476.07 1063.04 476.07C1061.2 476.07 1059.7 474.58 1059.7 472.73C1059.7 470.88 1061.2 469.38 1063.04 469.38C1064.89 469.38 1066.38 470.88 1066.38 472.73Z" id="c6o8VqX76"></path><path d="M1066.38 472.73C1066.38 474.58 1064.89 476.07 1063.04 476.07C1061.2 476.07 1059.7 474.58 1059.7 472.73C1059.7 470.88 1061.2 469.38 1063.04 469.38C1064.89 469.38 1066.38 470.88 1066.38 472.73Z" id="bJX2LkHuQ"></path><path d="M524.3 447.59C519.2 447.61 515.08 451.74 515.08 456.83C515.08 461.92 519.2 466.06 524.3 466.06C529.39 466.06 533.53 461.93 533.53 456.83C533.53 451.74 529.41 447.59 524.3 447.59Z" id="n1HMLj4TY6"></path><path d="M503.87 174.9C503.87 176.75 502.38 178.25 500.53 178.25C498.69 178.25 497.19 176.75 497.19 174.9C497.19 173.06 498.69 171.56 500.53 171.56C502.38 171.56 503.87 173.06 503.87 174.9Z" id="h2FFXIM8CS"></path><path d="M527.21 174.9C527.21 176.75 525.71 178.25 523.87 178.25C522.02 178.25 520.53 176.75 520.53 174.9C520.53 173.06 522.02 171.56 523.87 171.56C525.71 171.56 527.21 173.06 527.21 174.9Z" id="m1vEuETxan"></path><path d="M503.87 174.9C503.87 176.75 502.38 178.25 500.53 178.25C498.69 178.25 497.19 176.75 497.19 174.9C497.19 173.06 498.69 171.56 500.53 171.56C502.38 171.56 503.87 173.06 503.87 174.9Z" id="c1A4OOf7Ny"></path><path d="M524.3 447.59C519.2 447.61 515.08 451.74 515.08 456.83C515.08 461.92 519.2 466.06 524.3 466.06C529.39 466.06 533.53 461.93 533.53 456.83C533.53 451.74 529.41 447.59 524.3 447.59Z" id="gc2Yuolqn"></path><path d="M503.87 174.9C503.87 176.75 502.38 178.25 500.53 178.25C498.69 178.25 497.19 176.75 497.19 174.9C497.19 173.06 498.69 171.56 500.53 171.56C502.38 171.56 503.87 173.06 503.87 174.9Z" id="d1e72vFiHW"></path><path d="M503.87 174.9C503.87 176.75 502.38 178.25 500.53 178.25C498.69 178.25 497.19 176.75 497.19 174.9C497.19 173.06 498.69 171.56 500.53 171.56C502.38 171.56 503.87 173.06 503.87 174.9Z" id="a2TFtVYVW6"></path><path d="M550.53 151.53C550.53 153.38 549.04 154.88 547.19 154.88C545.34 154.88 543.85 153.38 543.85 151.53C543.85 149.69 545.34 148.19 547.19 148.19C549.04 148.19 550.53 149.69 550.53 151.53Z" id="ahgEpfras"></path><path d="M550.53 151.53C550.53 153.38 549.04 154.88 547.19 154.88C545.34 154.88 543.85 153.38 543.85 151.53C543.85 149.69 545.34 148.19 547.19 148.19C549.04 148.19 550.53 149.69 550.53 151.53Z" id="cHMkNWxM7"></path><path d="M550.53 151.53C550.53 153.38 549.04 154.88 547.19 154.88C545.34 154.88 543.85 153.38 543.85 151.53C543.85 149.69 545.34 148.19 547.19 148.19C549.04 148.19 550.53 149.69 550.53 151.53Z" id="b4ZOJc0pHJ"></path><path d="M550.53 151.53C550.53 153.38 549.04 154.88 547.19 154.88C545.34 154.88 543.85 153.38 543.85 151.53C543.85 149.69 545.34 148.19 547.19 148.19C549.04 148.19 550.53 149.69 550.53 151.53Z" id="a2TMuqNtE2"></path><path d="M527.21 151.53C527.21 153.38 525.71 154.88 523.87 154.88C522.02 154.88 520.53 153.38 520.53 151.53C520.53 149.69 522.02 148.19 523.87 148.19C525.71 148.19 527.21 149.69 527.21 151.53Z" id="hg94jP0P5"></path><path d="M527.21 151.53C527.21 153.38 525.71 154.88 523.87 154.88C522.02 154.88 520.53 153.38 520.53 151.53C520.53 149.69 522.02 148.19 523.87 148.19C525.71 148.19 527.21 149.69 527.21 151.53Z" id="b2XB8lHSr1"></path><path d="M527.21 151.53C527.21 153.38 525.71 154.88 523.87 154.88C522.02 154.88 520.53 153.38 520.53 151.53C520.53 149.69 522.02 148.19 523.87 148.19C525.71 148.19 527.21 149.69 527.21 151.53Z" id="a13vHd3BNN"></path><path d="M527.21 151.53C527.21 153.38 525.71 154.88 523.87 154.88C522.02 154.88 520.53 153.38 520.53 151.53C520.53 149.69 522.02 148.19 523.87 148.19C525.71 148.19 527.21 149.69 527.21 151.53Z" id="hPURFyiNB"></path><path d="M503.87 151.53C503.87 153.38 502.38 154.88 500.53 154.88C498.69 154.88 497.19 153.38 497.19 151.53C497.19 149.69 498.69 148.19 500.53 148.19C502.38 148.19 503.87 149.69 503.87 151.53Z" id="c12kyxn7z"></path><path d="M503.87 151.53C503.87 153.38 502.38 154.88 500.53 154.88C498.69 154.88 497.19 153.38 497.19 151.53C497.19 149.69 498.69 148.19 500.53 148.19C502.38 148.19 503.87 149.69 503.87 151.53Z" id="a8cZeh9WO"></path><path d="M503.87 151.53C503.87 153.38 502.38 154.88 500.53 154.88C498.69 154.88 497.19 153.38 497.19 151.53C497.19 149.69 498.69 148.19 500.53 148.19C502.38 148.19 503.87 149.69 503.87 151.53Z" id="b74APTwWtx"></path><path d="M503.87 151.53C503.87 153.38 502.38 154.88 500.53 154.88C498.69 154.88 497.19 153.38 497.19 151.53C497.19 149.69 498.69 148.19 500.53 148.19C502.38 148.19 503.87 149.69 503.87 151.53Z" id="b2mBNh3NZh"></path><path d="M550.53 174.9C550.53 176.75 549.04 178.25 547.19 178.25C545.35 178.25 543.85 176.75 543.85 174.9C543.85 173.06 545.35 171.56 547.19 171.56C549.04 171.56 550.53 173.06 550.53 174.9Z" id="a2bjFbkvU"></path><path d="M550.53 174.9C550.53 176.75 549.04 178.25 547.19 178.25C545.35 178.25 543.85 176.75 543.85 174.9C543.85 173.06 545.35 171.56 547.19 171.56C549.04 171.56 550.53 173.06 550.53 174.9Z" id="b6xg2UYukW"></path><path d="M550.53 174.9C550.53 176.75 549.04 178.25 547.19 178.25C545.35 178.25 543.85 176.75 543.85 174.9C543.85 173.06 545.35 171.56 547.19 171.56C549.04 171.56 550.53 173.06 550.53 174.9Z" id="f19nwVoxbC"></path><path d="M550.53 174.9C550.53 176.75 549.04 178.25 547.19 178.25C545.35 178.25 543.85 176.75 543.85 174.9C543.85 173.06 545.35 171.56 547.19 171.56C549.04 171.56 550.53 173.06 550.53 174.9Z" id="a1w3W0Ys4I"></path><path d="M527.21 174.9C527.21 176.75 525.71 178.25 523.87 178.25C522.02 178.25 520.53 176.75 520.53 174.9C520.53 173.06 522.02 171.56 523.87 171.56C525.71 171.56 527.21 173.06 527.21 174.9Z" id="a3CjvgAJEG"></path><path d="M527.21 174.9C527.21 176.75 525.71 178.25 523.87 178.25C522.02 178.25 520.53 176.75 520.53 174.9C520.53 173.06 522.02 171.56 523.87 171.56C525.71 171.56 527.21 173.06 527.21 174.9Z" id="cIEcmIe69"></path><path d="M527.21 174.9C527.21 176.75 525.71 178.25 523.87 178.25C522.02 178.25 520.53 176.75 520.53 174.9C520.53 173.06 522.02 171.56 523.87 171.56C525.71 171.56 527.21 173.06 527.21 174.9Z" id="brC2rZxc0"></path><path d="M524.3 447.59C519.2 447.61 515.08 451.74 515.08 456.83C515.08 461.92 519.2 466.06 524.3 466.06C529.39 466.06 533.53 461.93 533.53 456.83C533.53 451.74 529.41 447.59 524.3 447.59Z" id="a2xVs1IRKk"></path><path d="M524.3 447.59C519.2 447.61 515.08 451.74 515.08 456.83C515.08 461.92 519.2 466.06 524.3 466.06C529.39 466.06 533.53 461.93 533.53 456.83C533.53 451.74 529.41 447.59 524.3 447.59Z" id="a5MY40LgSE"></path><path d="M94.61 344C94.61 345.85 93.12 347.35 91.27 347.35C89.43 347.35 87.93 345.85 87.93 344C87.93 342.15 89.43 340.66 91.27 340.66C93.12 340.66 94.61 342.15 94.61 344Z" id="b7G0nFXjB"></path><path d="M94.61 344C94.61 345.85 93.12 347.35 91.27 347.35C89.43 347.35 87.93 345.85 87.93 344C87.93 342.15 89.43 340.66 91.27 340.66C93.12 340.66 94.61 342.15 94.61 344Z" id="a5aoXCYzxf"></path><path d="M94.61 344C94.61 345.85 93.12 347.35 91.27 347.35C89.43 347.35 87.93 345.85 87.93 344C87.93 342.15 89.43 340.66 91.27 340.66C93.12 340.66 94.61 342.15 94.61 344Z" id="c3mSbdx7O"></path><path d="M94.61 344C94.61 345.85 93.12 347.35 91.27 347.35C89.43 347.35 87.93 345.85 87.93 344C87.93 342.15 89.43 340.66 91.27 340.66C93.12 340.66 94.61 342.15 94.61 344Z" id="c2v9xt5PIt"></path><path d="M94.61 367.37C94.61 369.22 93.12 370.72 91.27 370.72C89.43 370.72 87.93 369.22 87.93 367.37C87.93 365.52 89.43 364.03 91.27 364.03C93.12 364.03 94.61 365.52 94.61 367.37Z" id="d4VLn9qvDV"></path><path d="M94.61 367.37C94.61 369.22 93.12 370.72 91.27 370.72C89.43 370.72 87.93 369.22 87.93 367.37C87.93 365.52 89.43 364.03 91.27 364.03C93.12 364.03 94.61 365.52 94.61 367.37Z" id="c3jAtX2cJ"></path><path d="M94.61 367.37C94.61 369.22 93.12 370.72 91.27 370.72C89.43 370.72 87.93 369.22 87.93 367.37C87.93 365.52 89.43 364.03 91.27 364.03C93.12 364.03 94.61 365.52 94.61 367.37Z" id="acES1KeCB"></path><path d="M94.61 367.37C94.61 369.22 93.12 370.72 91.27 370.72C89.43 370.72 87.93 369.22 87.93 367.37C87.93 365.52 89.43 364.03 91.27 364.03C93.12 364.03 94.61 365.52 94.61 367.37Z" id="iik0aW6pL"></path><path d="M94.61 390.72C94.61 392.57 93.12 394.07 91.27 394.07C89.43 394.07 87.93 392.57 87.93 390.72C87.93 388.88 89.43 387.38 91.27 387.38C93.12 387.38 94.61 388.88 94.61 390.72Z" id="dwOskKhW2"></path><path d="M94.61 390.72C94.61 392.57 93.12 394.07 91.27 394.07C89.43 394.07 87.93 392.57 87.93 390.72C87.93 388.88 89.43 387.38 91.27 387.38C93.12 387.38 94.61 388.88 94.61 390.72Z" id="cDTs6D0d1"></path><path d="M94.61 390.72C94.61 392.57 93.12 394.07 91.27 394.07C89.43 394.07 87.93 392.57 87.93 390.72C87.93 388.88 89.43 387.38 91.27 387.38C93.12 387.38 94.61 388.88 94.61 390.72Z" id="b44ZQbW5aU"></path><path d="M94.61 390.72C94.61 392.57 93.12 394.07 91.27 394.07C89.43 394.07 87.93 392.57 87.93 390.72C87.93 388.88 89.43 387.38 91.27 387.38C93.12 387.38 94.61 388.88 94.61 390.72Z" id="a48lBDMBdV"></path><path d="M94.61 414.1C94.61 415.94 93.12 417.44 91.27 417.44C89.43 417.44 87.93 415.94 87.93 414.1C87.93 412.25 89.43 410.75 91.27 410.75C93.12 410.75 94.61 412.25 94.61 414.1Z" id="araHkBpQK"></path><path d="M94.61 414.1C94.61 415.94 93.12 417.44 91.27 417.44C89.43 417.44 87.93 415.94 87.93 414.1C87.93 412.25 89.43 410.75 91.27 410.75C93.12 410.75 94.61 412.25 94.61 414.1Z" id="g12CpwvSxc"></path><path d="M94.61 414.1C94.61 415.94 93.12 417.44 91.27 417.44C89.43 417.44 87.93 415.94 87.93 414.1C87.93 412.25 89.43 410.75 91.27 410.75C93.12 410.75 94.61 412.25 94.61 414.1Z" id="d2dlbID0R5"></path><path d="M94.61 414.1C94.61 415.94 93.12 417.44 91.27 417.44C89.43 417.44 87.93 415.94 87.93 414.1C87.93 412.25 89.43 410.75 91.27 410.75C93.12 410.75 94.61 412.25 94.61 414.1Z" id="a1WoouTwBL"></path><path d="M117.95 344C117.95 345.85 116.45 347.35 114.61 347.35C112.76 347.35 111.27 345.85 111.27 344C111.27 342.15 112.76 340.66 114.61 340.66C116.45 340.66 117.95 342.15 117.95 344Z" id="b1d1lljelr"></path><path d="M117.95 344C117.95 345.85 116.45 347.35 114.61 347.35C112.76 347.35 111.27 345.85 111.27 344C111.27 342.15 112.76 340.66 114.61 340.66C116.45 340.66 117.95 342.15 117.95 344Z" id="c84AP8wU0L"></path><path d="M117.95 344C117.95 345.85 116.45 347.35 114.61 347.35C112.76 347.35 111.27 345.85 111.27 344C111.27 342.15 112.76 340.66 114.61 340.66C116.45 340.66 117.95 342.15 117.95 344Z" id="c1Kbkjv4B"></path><path d="M117.95 344C117.95 345.85 116.45 347.35 114.61 347.35C112.76 347.35 111.27 345.85 111.27 344C111.27 342.15 112.76 340.66 114.61 340.66C116.45 340.66 117.95 342.15 117.95 344Z" id="cKKXjNeuP"></path><path d="M117.95 367.37C117.95 369.22 116.45 370.72 114.61 370.72C112.76 370.72 111.27 369.22 111.27 367.37C111.27 365.52 112.76 364.03 114.61 364.03C116.45 364.03 117.95 365.52 117.95 367.37Z" id="a1T8VSi73d"></path><path d="M117.95 367.37C117.95 369.22 116.45 370.72 114.61 370.72C112.76 370.72 111.27 369.22 111.27 367.37C111.27 365.52 112.76 364.03 114.61 364.03C116.45 364.03 117.95 365.52 117.95 367.37Z" id="a2JuQuk2iz"></path><path d="M117.95 367.37C117.95 369.22 116.45 370.72 114.61 370.72C112.76 370.72 111.27 369.22 111.27 367.37C111.27 365.52 112.76 364.03 114.61 364.03C116.45 364.03 117.95 365.52 117.95 367.37Z" id="f3Tdc6nLmP"></path><path d="M117.95 367.37C117.95 369.22 116.45 370.72 114.61 370.72C112.76 370.72 111.27 369.22 111.27 367.37C111.27 365.52 112.76 364.03 114.61 364.03C116.45 364.03 117.95 365.52 117.95 367.37Z" id="c1tcY3SNYM"></path><path d="M117.95 390.72C117.95 392.57 116.45 394.07 114.61 394.07C112.76 394.07 111.27 392.57 111.27 390.72C111.27 388.88 112.76 387.38 114.61 387.38C116.45 387.38 117.95 388.88 117.95 390.72Z" id="hdVkceZwF"></path><path d="M117.95 390.72C117.95 392.57 116.45 394.07 114.61 394.07C112.76 394.07 111.27 392.57 111.27 390.72C111.27 388.88 112.76 387.38 114.61 387.38C116.45 387.38 117.95 388.88 117.95 390.72Z" id="l3taJVq8kG"></path><path d="M117.95 390.72C117.95 392.57 116.45 394.07 114.61 394.07C112.76 394.07 111.27 392.57 111.27 390.72C111.27 388.88 112.76 387.38 114.61 387.38C116.45 387.38 117.95 388.88 117.95 390.72Z" id="dIDGZxicX"></path><path d="M117.95 390.72C117.95 392.57 116.45 394.07 114.61 394.07C112.76 394.07 111.27 392.57 111.27 390.72C111.27 388.88 112.76 387.38 114.61 387.38C116.45 387.38 117.95 388.88 117.95 390.72Z" id="d2vpU8yIfb"></path><path d="M117.95 414.1C117.95 415.94 116.45 417.44 114.61 417.44C112.76 417.44 111.27 415.94 111.27 414.1C111.27 412.25 112.76 410.75 114.61 410.75C116.45 410.75 117.95 412.25 117.95 414.1Z" id="c3DMPqUlc"></path><path d="M117.95 414.1C117.95 415.94 116.45 417.44 114.61 417.44C112.76 417.44 111.27 415.94 111.27 414.1C111.27 412.25 112.76 410.75 114.61 410.75C116.45 410.75 117.95 412.25 117.95 414.1Z" id="b54UKV3mvM"></path><path d="M117.95 414.1C117.95 415.94 116.45 417.44 114.61 417.44C112.76 417.44 111.27 415.94 111.27 414.1C111.27 412.25 112.76 410.75 114.61 410.75C116.45 410.75 117.95 412.25 117.95 414.1Z" id="g3eIVhhLLd"></path><path d="M117.95 414.1C117.95 415.94 116.45 417.44 114.61 417.44C112.76 417.44 111.27 415.94 111.27 414.1C111.27 412.25 112.76 410.75 114.61 410.75C116.45 410.75 117.95 412.25 117.95 414.1Z" id="a1E9nCozcE"></path><path d="M141.27 344C141.27 345.85 139.78 347.35 137.93 347.35C136.09 347.35 134.59 345.85 134.59 344C134.59 342.15 136.09 340.66 137.93 340.66C139.78 340.66 141.27 342.15 141.27 344Z" id="c3e4aPdrHR"></path><path d="M141.27 344C141.27 345.85 139.78 347.35 137.93 347.35C136.09 347.35 134.59 345.85 134.59 344C134.59 342.15 136.09 340.66 137.93 340.66C139.78 340.66 141.27 342.15 141.27 344Z" id="b7J2xxpJ4"></path><path d="M141.27 344C141.27 345.85 139.78 347.35 137.93 347.35C136.09 347.35 134.59 345.85 134.59 344C134.59 342.15 136.09 340.66 137.93 340.66C139.78 340.66 141.27 342.15 141.27 344Z" id="e2VNbDIu70"></path><path d="M141.27 344C141.27 345.85 139.78 347.35 137.93 347.35C136.09 347.35 134.59 345.85 134.59 344C134.59 342.15 136.09 340.66 137.93 340.66C139.78 340.66 141.27 342.15 141.27 344Z" id="e3uxZmvaQ"></path><path d="M141.27 367.37C141.27 369.22 139.78 370.72 137.93 370.72C136.09 370.72 134.59 369.22 134.59 367.37C134.59 365.52 136.09 364.03 137.93 364.03C139.78 364.03 141.27 365.52 141.27 367.37Z" id="ckNr5O0N4"></path><path d="M141.27 367.37C141.27 369.22 139.78 370.72 137.93 370.72C136.09 370.72 134.59 369.22 134.59 367.37C134.59 365.52 136.09 364.03 137.93 364.03C139.78 364.03 141.27 365.52 141.27 367.37Z" id="bsJ3SBKZR"></path><path d="M141.27 367.37C141.27 369.22 139.78 370.72 137.93 370.72C136.09 370.72 134.59 369.22 134.59 367.37C134.59 365.52 136.09 364.03 137.93 364.03C139.78 364.03 141.27 365.52 141.27 367.37Z" id="e6D441PpHC"></path><path d="M141.27 367.37C141.27 369.22 139.78 370.72 137.93 370.72C136.09 370.72 134.59 369.22 134.59 367.37C134.59 365.52 136.09 364.03 137.93 364.03C139.78 364.03 141.27 365.52 141.27 367.37Z" id="a32qAdfTci"></path><path d="M141.27 390.72C141.27 392.57 139.78 394.07 137.93 394.07C136.09 394.07 134.59 392.57 134.59 390.72C134.59 388.88 136.09 387.38 137.93 387.38C139.78 387.38 141.27 388.88 141.27 390.72Z" id="a7HPg4QVW"></path><path d="M141.27 390.72C141.27 392.57 139.78 394.07 137.93 394.07C136.09 394.07 134.59 392.57 134.59 390.72C134.59 388.88 136.09 387.38 137.93 387.38C139.78 387.38 141.27 388.88 141.27 390.72Z" id="c8EJIYdgv"></path><path d="M141.27 390.72C141.27 392.57 139.78 394.07 137.93 394.07C136.09 394.07 134.59 392.57 134.59 390.72C134.59 388.88 136.09 387.38 137.93 387.38C139.78 387.38 141.27 388.88 141.27 390.72Z" id="a18ZWN9JsM"></path><path d="M141.27 390.72C141.27 392.57 139.78 394.07 137.93 394.07C136.09 394.07 134.59 392.57 134.59 390.72C134.59 388.88 136.09 387.38 137.93 387.38C139.78 387.38 141.27 388.88 141.27 390.72Z" id="bhYVSzOyI"></path><path d="M141.27 414.1C141.27 415.94 139.78 417.44 137.93 417.44C136.09 417.44 134.59 415.94 134.59 414.1C134.59 412.25 136.09 410.75 137.93 410.75C139.78 410.75 141.27 412.25 141.27 414.1Z" id="f5ahpEDSiQ"></path><path d="M141.27 414.1C141.27 415.94 139.78 417.44 137.93 417.44C136.09 417.44 134.59 415.94 134.59 414.1C134.59 412.25 136.09 410.75 137.93 410.75C139.78 410.75 141.27 412.25 141.27 414.1Z" id="c9rLaZiD7"></path><path d="M141.27 414.1C141.27 415.94 139.78 417.44 137.93 417.44C136.09 417.44 134.59 415.94 134.59 414.1C134.59 412.25 136.09 410.75 137.93 410.75C139.78 410.75 141.27 412.25 141.27 414.1Z" id="b2lvExETYm"></path><path d="M141.27 414.1C141.27 415.94 139.78 417.44 137.93 417.44C136.09 417.44 134.59 415.94 134.59 414.1C134.59 412.25 136.09 410.75 137.93 410.75C139.78 410.75 141.27 412.25 141.27 414.1Z" id="fEsYD8swQ"></path><path d="M164.61 344C164.61 345.85 163.11 347.35 161.27 347.35C159.42 347.35 157.93 345.85 157.93 344C157.93 342.15 159.42 340.66 161.27 340.66C163.11 340.66 164.61 342.15 164.61 344Z" id="b5ue0vIVmA"></path><path d="M164.61 344C164.61 345.85 163.11 347.35 161.27 347.35C159.42 347.35 157.93 345.85 157.93 344C157.93 342.15 159.42 340.66 161.27 340.66C163.11 340.66 164.61 342.15 164.61 344Z" id="b1bctRfjUy"></path><path d="M164.61 344C164.61 345.85 163.11 347.35 161.27 347.35C159.42 347.35 157.93 345.85 157.93 344C157.93 342.15 159.42 340.66 161.27 340.66C163.11 340.66 164.61 342.15 164.61 344Z" id="aW8y37J9Q"></path><path d="M164.61 344C164.61 345.85 163.11 347.35 161.27 347.35C159.42 347.35 157.93 345.85 157.93 344C157.93 342.15 159.42 340.66 161.27 340.66C163.11 340.66 164.61 342.15 164.61 344Z" id="j6lGJ1ubXN"></path><path d="M164.61 367.37C164.61 369.22 163.12 370.72 161.27 370.72C159.42 370.72 157.93 369.22 157.93 367.37C157.93 365.52 159.42 364.03 161.27 364.03C163.12 364.03 164.61 365.52 164.61 367.37Z" id="f2eLcpU4vc"></path><path d="M164.61 367.37C164.61 369.22 163.12 370.72 161.27 370.72C159.42 370.72 157.93 369.22 157.93 367.37C157.93 365.52 159.42 364.03 161.27 364.03C163.12 364.03 164.61 365.52 164.61 367.37Z" id="aGABTCU0U"></path><path d="M164.61 367.37C164.61 369.22 163.12 370.72 161.27 370.72C159.42 370.72 157.93 369.22 157.93 367.37C157.93 365.52 159.42 364.03 161.27 364.03C163.12 364.03 164.61 365.52 164.61 367.37Z" id="antoWRLST"></path><path d="M164.61 367.37C164.61 369.22 163.12 370.72 161.27 370.72C159.42 370.72 157.93 369.22 157.93 367.37C157.93 365.52 159.42 364.03 161.27 364.03C163.12 364.03 164.61 365.52 164.61 367.37Z" id="bPrDRKnNn"></path><path d="M164.61 390.72C164.61 392.57 163.12 394.07 161.27 394.07C159.42 394.07 157.93 392.57 157.93 390.72C157.93 388.88 159.42 387.38 161.27 387.38C163.12 387.38 164.61 388.88 164.61 390.72Z" id="a1SH7pyKCO"></path><path d="M164.61 390.72C164.61 392.57 163.12 394.07 161.27 394.07C159.42 394.07 157.93 392.57 157.93 390.72C157.93 388.88 159.42 387.38 161.27 387.38C163.12 387.38 164.61 388.88 164.61 390.72Z" id="c2YGv5bsl2"></path><path d="M164.61 390.72C164.61 392.57 163.12 394.07 161.27 394.07C159.42 394.07 157.93 392.57 157.93 390.72C157.93 388.88 159.42 387.38 161.27 387.38C163.12 387.38 164.61 388.88 164.61 390.72Z" id="cyvFEzMv1"></path><path d="M164.61 390.72C164.61 392.57 163.12 394.07 161.27 394.07C159.42 394.07 157.93 392.57 157.93 390.72C157.93 388.88 159.42 387.38 161.27 387.38C163.12 387.38 164.61 388.88 164.61 390.72Z" id="g135lXsvFE"></path><path d="M164.61 414.1C164.61 415.94 163.12 417.44 161.27 417.44C159.42 417.44 157.93 415.94 157.93 414.1C157.93 412.25 159.42 410.75 161.27 410.75C163.12 410.75 164.61 412.25 164.61 414.1Z" id="cAMPl4DCt"></path><path d="M164.61 414.1C164.61 415.94 163.12 417.44 161.27 417.44C159.42 417.44 157.93 415.94 157.93 414.1C157.93 412.25 159.42 410.75 161.27 410.75C163.12 410.75 164.61 412.25 164.61 414.1Z" id="c2ikgIYlNF"></path><path d="M164.61 414.1C164.61 415.94 163.12 417.44 161.27 417.44C159.42 417.44 157.93 415.94 157.93 414.1C157.93 412.25 159.42 410.75 161.27 410.75C163.12 410.75 164.61 412.25 164.61 414.1Z" id="a2RUGS70Oj"></path><path d="M164.61 414.1C164.61 415.94 163.12 417.44 161.27 417.44C159.42 417.44 157.93 415.94 157.93 414.1C157.93 412.25 159.42 410.75 161.27 410.75C163.12 410.75 164.61 412.25 164.61 414.1Z" id="c26yzLsoT"></path></defs><g><g><g><use xlink:href="#b2rEgsztTg" opacity="1" fill="#000000" fill-opacity="0"></use><g><use xlink:href="#b2rEgsztTg" opacity="1" fill-opacity="0" stroke="#000000" stroke-width="1" stroke-opacity="0"></use></g></g><g><use xlink:href="#evQa3tUrK" opacity="1" fill="#000000" fill-opacity="0"></use><g><use xlink:href="#evQa3tUrK" opacity="1" fill-opacity="0" stroke="#000000" stroke-width="1" stroke-opacity="0"></use></g></g><g><use xlink:href="#f2tIEGABio" opacity="1" fill="#000000" fill-opacity="0"></use><g><use xlink:href="#f2tIEGABio" opacity="1" fill-opacity="0" stroke="#000000" stroke-width="1" stroke-opacity="0"></use></g></g><g><use xlink:href="#h1mRxro2c6" opacity="1" fill="#000000" fill-opacity="0"></use><g><use xlink:href="#h1mRxro2c6" opacity="1" fill-opacity="0" stroke="#04d361" stroke-width="3" stroke-opacity="1"></use></g></g><g><use xlink:href="#ennnz1ehc" opacity="1" fill="#000000" fill-opacity="0"></use><g><use xlink:href="#ennnz1ehc" opacity="1" fill-opacity="0" stroke="#000000" stroke-width="1" stroke-opacity="0"></use></g></g><g><use xlink:href="#b6PUynicuX" opacity="1" fill="#000000" fill-opacity="0"></use><g><use xlink:href="#b6PUynicuX" opacity="1" fill-opacity="0" stroke="#000000" stroke-width="1" stroke-opacity="0"></use></g></g><g><use xlink:href="#bwEwHndv6" opacity="1" fill="#000000" fill-opacity="0"></use><g><use xlink:href="#bwEwHndv6" opacity="1" fill-opacity="0" stroke="#000000" stroke-width="1" stroke-opacity="0"></use></g></g><g><use xlink:href="#b492ty4lme" opacity="1" fill="#000000" fill-opacity="0"></use><g><use xlink:href="#b492ty4lme" opacity="1" fill-opacity="0" stroke="#04d361" stroke-width="3" stroke-opacity="1"></use></g></g><g><use xlink:href="#a27Ytqxuv" opacity="1" fill="#000000" fill-opacity="0"></use><g><use xlink:href="#a27Ytqxuv" opacity="1" fill-opacity="0" stroke="#000000" stroke-width="1" stroke-opacity="0"></use></g></g><g><use xlink:href="#a59NoZXT6Z" opacity="1" fill="#000000" fill-opacity="0"></use><g><use xlink:href="#a59NoZXT6Z" opacity="1" fill-opacity="0" stroke="#000000" stroke-width="1" stroke-opacity="0"></use></g></g><g><use xlink:href="#aLYCHaF2e" opacity="1" fill="#000000" fill-opacity="0"></use><g><use xlink:href="#aLYCHaF2e" opacity="1" fill-opacity="0" stroke="#000000" stroke-width="1" stroke-opacity="0"></use></g></g><g><use xlink:href="#bjn72Dgku" opacity="1" fill="#000000" fill-opacity="0"></use><g><use xlink:href="#bjn72Dgku" opacity="1" fill-opacity="0" stroke="#04d361" stroke-width="3" stroke-opacity="1"></use></g></g><g><use xlink:href="#bQOyqUJgS" opacity="1" fill="#000000" fill-opacity="0"></use><g><use xlink:href="#bQOyqUJgS" opacity="1" fill-opacity="0" stroke="#000000" stroke-width="1" stroke-opacity="0"></use></g></g><g><use xlink:href="#b8iaB0KWS" opacity="1" fill="#000000" fill-opacity="0"></use><g><use xlink:href="#b8iaB0KWS" opacity="1" fill-opacity="0" stroke="#000000" stroke-width="1" stroke-opacity="0"></use></g></g><g><use xlink:href="#i2pcBxA88M" opacity="1" fill="#000000" fill-opacity="0"></use><g><use xlink:href="#i2pcBxA88M" opacity="1" fill-opacity="0" stroke="#000000" stroke-width="1" stroke-opacity="0"></use></g></g><g><use xlink:href="#b12PrjTzyn" opacity="1" fill="#000000" fill-opacity="0"></use><g><use xlink:href="#b12PrjTzyn" opacity="1" fill-opacity="0" stroke="#04d361" stroke-width="3" stroke-opacity="1"></use></g></g><g><use xlink:href="#g2yuBnuhL5" opacity="1" fill="#000000" fill-opacity="0"></use><g><use xlink:href="#g2yuBnuhL5" opacity="1" fill-opacity="0" stroke="#000000" stroke-width="1" stroke-opacity="0"></use></g></g><g><use xlink:href="#bgoZNiBxf" opacity="1" fill="#000000" fill-opacity="0"></use><g><use xlink:href="#bgoZNiBxf" opacity="1" fill-opacity="0" stroke="#000000" stroke-width="1" stroke-opacity="0"></use></g></g><g><use xlink:href="#cvF5QsDei" opacity="1" fill="#000000" fill-opacity="0"></use><g><use xlink:href="#cvF5QsDei" opacity="1" fill-opacity="0" stroke="#000000" stroke-width="1" stroke-opacity="0"></use></g></g><g><use xlink:href="#d3JT1td6E" opacity="1" fill="#000000" fill-opacity="0"></use><g><use xlink:href="#d3JT1td6E" opacity="1" fill-opacity="0" stroke="#000000" stroke-width="1" stroke-opacity="0"></use></g></g><g><use xlink:href="#fb3MGe4U" opacity="1" fill="#9871f5" fill-opacity="1"></use><g><use xlink:href="#fb3MGe4U" opacity="1" fill-opacity="0" stroke="#000000" stroke-width="1" stroke-opacity="0"></use></g></g><g><use xlink:href="#b3SoUsSgc" opacity="1" fill="#000000" fill-opacity="0"></use><g><use xlink:href="#b3SoUsSgc" opacity="1" fill-opacity="0" stroke="#000000" stroke-width="1" stroke-opacity="0"></use></g></g><g><use xlink:href="#bbr5dJeAz" opacity="1" fill="#000000" fill-opacity="0"></use><g><use xlink:href="#bbr5dJeAz" opacity="1" fill-opacity="0" stroke="#000000" stroke-width="1" stroke-opacity="0"></use></g></g><g><use xlink:href="#a3SbGZOkOR" opacity="1" fill="#000000" fill-opacity="0"></use><g><use xlink:href="#a3SbGZOkOR" opacity="1" fill-opacity="0" stroke="#000000" stroke-width="1" stroke-opacity="0"></use></g></g><g><use xlink:href="#e1ffGt6D7f" opacity="1" fill="#000000" fill-opacity="0"></use><g><use xlink:href="#e1ffGt6D7f" opacity="1" fill-opacity="0" stroke="#04d361" stroke-width="3" stroke-opacity="1"></use></g></g><g><use xlink:href="#ctnGQTVfx" opacity="1" fill="#9871f5" fill-opacity="1"></use><g><use xlink:href="#ctnGQTVfx" opacity="1" fill-opacity="0" stroke="#000000" stroke-width="1" stroke-opacity="0"></use></g></g><g><use xlink:href="#aqIDOJ19g" opacity="1" fill="#000000" fill-opacity="0"></use><g><use xlink:href="#aqIDOJ19g" opacity="1" fill-opacity="0" stroke="#000000" stroke-width="1" stroke-opacity="0"></use></g></g><g><use xlink:href="#a78KhVm8Zl" opacity="1" fill="#000000" fill-opacity="0"></use><g><use xlink:href="#a78KhVm8Zl" opacity="1" fill-opacity="0" stroke="#000000" stroke-width="1" stroke-opacity="0"></use></g></g><g><use xlink:href="#e4ZqUIweEB" opacity="1" fill="#000000" fill-opacity="0"></use><g><use xlink:href="#e4ZqUIweEB" opacity="1" fill-opacity="0" stroke="#000000" stroke-width="1" stroke-opacity="0"></use></g></g><g><use xlink:href="#a1L9sl4sSS" opacity="1" fill="#9871f5" fill-opacity="1"></use><g><use xlink:href="#a1L9sl4sSS" opacity="1" fill-opacity="0" stroke="#000000" stroke-width="1" stroke-opacity="0"></use></g></g><g><use xlink:href="#alTOMn9uo" opacity="1" fill="#000000" fill-opacity="0"></use><g><use xlink:href="#alTOMn9uo" opacity="1" fill-opacity="0" stroke="#000000" stroke-width="1" stroke-opacity="0"></use></g></g><g><use xlink:href="#acLWlSEhE" opacity="1" fill="#000000" fill-opacity="0"></use><g><use xlink:href="#acLWlSEhE" opacity="1" fill-opacity="0" stroke="#000000" stroke-width="1" stroke-opacity="0"></use></g></g><g><use xlink:href="#g1tkw9Tl6V" opacity="1" fill="#000000" fill-opacity="0"></use><g><use xlink:href="#g1tkw9Tl6V" opacity="1" fill-opacity="0" stroke="#000000" stroke-width="1" stroke-opacity="0"></use></g></g><g><use xlink:href="#fWDYd40WX" opacity="1" fill="#9871f5" fill-opacity="1"></use><g><use xlink:href="#fWDYd40WX" opacity="1" fill-opacity="0" stroke="#000000" stroke-width="1" stroke-opacity="0"></use></g></g><g><use xlink:href="#b1MzsAIfJd" opacity="1" fill="#000000" fill-opacity="0"></use><g><use xlink:href="#b1MzsAIfJd" opacity="1" fill-opacity="0" stroke="#000000" stroke-width="1" stroke-opacity="0"></use></g></g><g><use xlink:href="#aakaSu4uy" opacity="1" fill="#000000" fill-opacity="0"></use><g><use xlink:href="#aakaSu4uy" opacity="1" fill-opacity="0" stroke="#000000" stroke-width="1" stroke-opacity="0"></use></g></g><g><use xlink:href="#fUVyzIWf5" opacity="1" fill="#000000" fill-opacity="0"></use><g><use xlink:href="#fUVyzIWf5" opacity="1" fill-opacity="0" stroke="#000000" stroke-width="1" stroke-opacity="0"></use></g></g><g><use xlink:href="#b3WufVBdM" opacity="1" fill="#9871f5" fill-opacity="1"></use><g><use xlink:href="#b3WufVBdM" opacity="1" fill-opacity="0" stroke="#000000" stroke-width="1" stroke-opacity="0"></use></g></g><g><use xlink:href="#a1Bsalhszq" opacity="1" fill="#000000" fill-opacity="0"></use><g><use xlink:href="#a1Bsalhszq" opacity="1" fill-opacity="0" stroke="#000000" stroke-width="1" stroke-opacity="0"></use></g></g><g><use xlink:href="#dha8BUmaP" opacity="1" fill="#000000" fill-opacity="0"></use><g><use xlink:href="#dha8BUmaP" opacity="1" fill-opacity="0" stroke="#000000" stroke-width="1" stroke-opacity="0"></use></g></g><g><use xlink:href="#a2rYYiKo2G" opacity="1" fill="#000000" fill-opacity="0"></use><g><use xlink:href="#a2rYYiKo2G" opacity="1" fill-opacity="0" stroke="#000000" stroke-width="1" stroke-opacity="0"></use></g></g><g><use xlink:href="#b1Xx1k1GS" opacity="1" fill="#9871f5" fill-opacity="1"></use><g><use xlink:href="#b1Xx1k1GS" opacity="1" fill-opacity="0" stroke="#000000" stroke-width="1" stroke-opacity="0"></use></g></g><g><use xlink:href="#iv0AsciXj" opacity="1" fill="#000000" fill-opacity="0"></use><g><use xlink:href="#iv0AsciXj" opacity="1" fill-opacity="0" stroke="#000000" stroke-width="1" stroke-opacity="0"></use></g></g><g><use xlink:href="#aTPPsBVUZ" opacity="1" fill="#000000" fill-opacity="0"></use><g><use xlink:href="#aTPPsBVUZ" opacity="1" fill-opacity="0" stroke="#000000" stroke-width="1" stroke-opacity="0"></use></g></g><g><use xlink:href="#c3dbpryU4X" opacity="1" fill="#000000" fill-opacity="0"></use><g><use xlink:href="#c3dbpryU4X" opacity="1" fill-opacity="0" stroke="#000000" stroke-width="1" stroke-opacity="0"></use></g></g><g><use xlink:href="#a2q4bQD0De" opacity="1" fill="#000000" fill-opacity="0"></use><g><use xlink:href="#a2q4bQD0De" opacity="1" fill-opacity="0" stroke="#000000" stroke-width="1" stroke-opacity="0"></use></g></g><g><use xlink:href="#a6oC9tZbu" opacity="1" fill="#000000" fill-opacity="0"></use><g><use xlink:href="#a6oC9tZbu" opacity="1" fill-opacity="0" stroke="#000000" stroke-width="1" stroke-opacity="0"></use></g></g><g><use xlink:href="#a3K9YMCxg" opacity="1" fill="#000000" fill-opacity="0"></use><g><use xlink:href="#a3K9YMCxg" opacity="1" fill-opacity="0" stroke="#04d361" stroke-width="3" stroke-opacity="1"></use></g></g><g><use xlink:href="#k1mQ2c1oSO" opacity="1" fill="#9871f5" fill-opacity="1"></use><g><use xlink:href="#k1mQ2c1oSO" opacity="1" fill-opacity="0" stroke="#000000" stroke-width="1" stroke-opacity="0"></use></g></g><g><use xlink:href="#kp4DSVY0S" opacity="1" fill="#000000" fill-opacity="0"></use><g><use xlink:href="#kp4DSVY0S" opacity="1" fill-opacity="0" stroke="#000000" stroke-width="1" stroke-opacity="0"></use></g></g><g><use xlink:href="#b29YfX5fZh" opacity="1" fill="#000000" fill-opacity="0"></use><g><use xlink:href="#b29YfX5fZh" opacity="1" fill-opacity="0" stroke="#000000" stroke-width="1" stroke-opacity="0"></use></g></g><g><use xlink:href="#a2U3W3NoSS" opacity="1" fill="#000000" fill-opacity="0"></use><g><use xlink:href="#a2U3W3NoSS" opacity="1" fill-opacity="0" stroke="#000000" stroke-width="1" stroke-opacity="0"></use></g></g><g><use xlink:href="#d7takIJKf" opacity="1" fill="#9871f5" fill-opacity="1"></use><g><use xlink:href="#d7takIJKf" opacity="1" fill-opacity="0" stroke="#000000" stroke-width="1" stroke-opacity="0"></use></g></g><g><use xlink:href="#a57UeIRzkg" opacity="1" fill="#000000" fill-opacity="0"></use><g><use xlink:href="#a57UeIRzkg" opacity="1" fill-opacity="0" stroke="#000000" stroke-width="1" stroke-opacity="0"></use></g></g><g><use xlink:href="#g15copokid" opacity="1" fill="#000000" fill-opacity="0"></use><g><use xlink:href="#g15copokid" opacity="1" fill-opacity="0" stroke="#000000" stroke-width="1" stroke-opacity="0"></use></g></g><g><use xlink:href="#d6ZJC7j90" opacity="1" fill="#000000" fill-opacity="0"></use><g><use xlink:href="#d6ZJC7j90" opacity="1" fill-opacity="0" stroke="#000000" stroke-width="1" stroke-opacity="0"></use></g></g><g><use xlink:href="#ajRFz2NiK" opacity="1" fill="#9871f5" fill-opacity="1"></use><g><use xlink:href="#ajRFz2NiK" opacity="1" fill-opacity="0" stroke="#000000" stroke-width="1" stroke-opacity="0"></use></g></g><g><use xlink:href="#a1YXp0FrB6" opacity="1" fill="#000000" fill-opacity="0"></use><g><use xlink:href="#a1YXp0FrB6" opacity="1" fill-opacity="0" stroke="#000000" stroke-width="1" stroke-opacity="0"></use></g></g><g><use xlink:href="#cfBbnyNUY" opacity="1" fill="#000000" fill-opacity="0"></use><g><use xlink:href="#cfBbnyNUY" opacity="1" fill-opacity="0" stroke="#000000" stroke-width="1" stroke-opacity="0"></use></g></g><g><use xlink:href="#bZbecTqS" opacity="1" fill="#000000" fill-opacity="0"></use><g><use xlink:href="#bZbecTqS" opacity="1" fill-opacity="0" stroke="#000000" stroke-width="1" stroke-opacity="0"></use></g></g><g><use xlink:href="#aaqOYUOLT" opacity="1" fill="#9871f5" fill-opacity="1"></use><g><use xlink:href="#aaqOYUOLT" opacity="1" fill-opacity="0" stroke="#000000" stroke-width="1" stroke-opacity="0"></use></g></g><g><use xlink:href="#aBE6NMCLU" opacity="1" fill="#000000" fill-opacity="0"></use><g><use xlink:href="#aBE6NMCLU" opacity="1" fill-opacity="0" stroke="#000000" stroke-width="1" stroke-opacity="0"></use></g></g><g><use xlink:href="#f1GMlKoIJS" opacity="1" fill="#000000" fill-opacity="0"></use><g><use xlink:href="#f1GMlKoIJS" opacity="1" fill-opacity="0" stroke="#000000" stroke-width="1" stroke-opacity="0"></use></g></g><g><use xlink:href="#b1OXMulzG" opacity="1" fill="#000000" fill-opacity="0"></use><g><use xlink:href="#b1OXMulzG" opacity="1" fill-opacity="0" stroke="#000000" stroke-width="1" stroke-opacity="0"></use></g></g><g><use xlink:href="#d1kTWsJyif" opacity="1" fill="#9871f5" fill-opacity="1"></use><g><use xlink:href="#d1kTWsJyif" opacity="1" fill-opacity="0" stroke="#000000" stroke-width="1" stroke-opacity="0"></use></g></g><g><use xlink:href="#a1mKijLbuS" opacity="1" fill="#000000" fill-opacity="0"></use><g><use xlink:href="#a1mKijLbuS" opacity="1" fill-opacity="0" stroke="#000000" stroke-width="1" stroke-opacity="0"></use></g></g><g><use xlink:href="#f1ZxlfSbAI" opacity="1" fill="#000000" fill-opacity="0"></use><g><use xlink:href="#f1ZxlfSbAI" opacity="1" fill-opacity="0" stroke="#000000" stroke-width="1" stroke-opacity="0"></use></g></g><g><use xlink:href="#aNmZjPlMN" opacity="1" fill="#000000" fill-opacity="0"></use><g><use xlink:href="#aNmZjPlMN" opacity="1" fill-opacity="0" stroke="#000000" stroke-width="1" stroke-opacity="0"></use></g></g><g><use xlink:href="#bkmU8PkYR" opacity="1" fill="#9871f5" fill-opacity="1"></use><g><use xlink:href="#bkmU8PkYR" opacity="1" fill-opacity="0" stroke="#000000" stroke-width="1" stroke-opacity="0"></use></g></g><g><use xlink:href="#dykyrt2fb" opacity="1" fill="#000000" fill-opacity="0"></use><g><use xlink:href="#dykyrt2fb" opacity="1" fill-opacity="0" stroke="#000000" stroke-width="1" stroke-opacity="0"></use></g></g><g><use xlink:href="#b1pTSQn86M" opacity="1" fill="#000000" fill-opacity="0"></use><g><use xlink:href="#b1pTSQn86M" opacity="1" fill-opacity="0" stroke="#000000" stroke-width="1" stroke-opacity="0"></use></g></g><g><use xlink:href="#c2E373MpUZ" opacity="1" fill="#000000" fill-opacity="0"></use><g><use xlink:href="#c2E373MpUZ" opacity="1" fill-opacity="0" stroke="#000000" stroke-width="1" stroke-opacity="0"></use></g></g><g><use xlink:href="#a8HcoEuqj" opacity="1" fill="#9871f5" fill-opacity="1"></use><g><use xlink:href="#a8HcoEuqj" opacity="1" fill-opacity="0" stroke="#000000" stroke-width="1" stroke-opacity="0"></use></g></g><g><use xlink:href="#cgS8KkqhD" opacity="1" fill="#000000" fill-opacity="0"></use><g><use xlink:href="#cgS8KkqhD" opacity="1" fill-opacity="0" stroke="#000000" stroke-width="1" stroke-opacity="0"></use></g></g><g><use xlink:href="#a1hmAn6lwa" opacity="1" fill="#000000" fill-opacity="0"></use><g><use xlink:href="#a1hmAn6lwa" opacity="1" fill-opacity="0" stroke="#000000" stroke-width="1" stroke-opacity="0"></use></g></g><g><use xlink:href="#h5OKIghbqb" opacity="1" fill="#000000" fill-opacity="0"></use><g><use xlink:href="#h5OKIghbqb" opacity="1" fill-opacity="0" stroke="#000000" stroke-width="1" stroke-opacity="0"></use></g></g><g><use xlink:href="#aPvxnqRX3" opacity="1" fill="#9871f5" fill-opacity="1"></use><g><use xlink:href="#aPvxnqRX3" opacity="1" fill-opacity="0" stroke="#000000" stroke-width="1" stroke-opacity="0"></use></g></g><g><use xlink:href="#egFiXoGOT" opacity="1" fill="#000000" fill-opacity="0"></use><g><use xlink:href="#egFiXoGOT" opacity="1" fill-opacity="0" stroke="#000000" stroke-width="1" stroke-opacity="0"></use></g></g><g><use xlink:href="#bcatllxQdi" opacity="1" fill="#000000" fill-opacity="0"></use><g><use xlink:href="#bcatllxQdi" opacity="1" fill-opacity="0" stroke="#000000" stroke-width="1" stroke-opacity="0"></use></g></g><g><use xlink:href="#i1F89nYIu7" opacity="1" fill="#000000" fill-opacity="0"></use><g><use xlink:href="#i1F89nYIu7" opacity="1" fill-opacity="0" stroke="#000000" stroke-width="1" stroke-opacity="0"></use></g></g><g><use xlink:href="#a5AFXOa2cQ" opacity="1" fill="#9871f5" fill-opacity="1"></use><g><use xlink:href="#a5AFXOa2cQ" opacity="1" fill-opacity="0" stroke="#000000" stroke-width="1" stroke-opacity="0"></use></g></g><g><use xlink:href="#bXqXQT3xY" opacity="1" fill="#000000" fill-opacity="0"></use><g><use xlink:href="#bXqXQT3xY" opacity="1" fill-opacity="0" stroke="#000000" stroke-width="1" stroke-opacity="0"></use></g></g><g><use xlink:href="#b1F8YmMNR" opacity="1" fill="#000000" fill-opacity="0"></use><g><use xlink:href="#b1F8YmMNR" opacity="1" fill-opacity="0" stroke="#000000" stroke-width="1" stroke-opacity="0"></use></g></g><g><use xlink:href="#a6RYsoNrnv" opacity="1" fill="#000000" fill-opacity="0"></use><g><use xlink:href="#a6RYsoNrnv" opacity="1" fill-opacity="0" stroke="#000000" stroke-width="1" stroke-opacity="0"></use></g></g><g><use xlink:href="#a2sOW4ZM9R" opacity="1" fill="#9871f5" fill-opacity="1"></use><g><use xlink:href="#a2sOW4ZM9R" opacity="1" fill-opacity="0" stroke="#000000" stroke-width="1" stroke-opacity="0"></use></g></g><g><use xlink:href="#a1UnCvC7Qr" opacity="1" fill="#000000" fill-opacity="0"></use><g><use xlink:href="#a1UnCvC7Qr" opacity="1" fill-opacity="0" stroke="#000000" stroke-width="1" stroke-opacity="0"></use></g></g><g><use xlink:href="#a6sC2bpUeM" opacity="1" fill="#000000" fill-opacity="0"></use><g><use xlink:href="#a6sC2bpUeM" opacity="1" fill-opacity="0" stroke="#000000" stroke-width="1" stroke-opacity="0"></use></g></g><g><use xlink:href="#a4cdEOqqp" opacity="1" fill="#000000" fill-opacity="0"></use><g><use xlink:href="#a4cdEOqqp" opacity="1" fill-opacity="0" stroke="#000000" stroke-width="1" stroke-opacity="0"></use></g></g><g><use xlink:href="#j1G2JbJiXD" opacity="1" fill="#9871f5" fill-opacity="1"></use><g><use xlink:href="#j1G2JbJiXD" opacity="1" fill-opacity="0" stroke="#000000" stroke-width="1" stroke-opacity="0"></use></g></g><g><use xlink:href="#a29CKG5Io" opacity="1" fill="#000000" fill-opacity="0"></use><g><use xlink:href="#a29CKG5Io" opacity="1" fill-opacity="0" stroke="#000000" stroke-width="1" stroke-opacity="0"></use></g></g><g><use xlink:href="#a2HUWu3s33" opacity="1" fill="#000000" fill-opacity="0"></use><g><use xlink:href="#a2HUWu3s33" opacity="1" fill-opacity="0" stroke="#000000" stroke-width="1" stroke-opacity="0"></use></g></g><g><use xlink:href="#bQ4X3JCQ" opacity="1" fill="#000000" fill-opacity="0"></use><g><use xlink:href="#bQ4X3JCQ" opacity="1" fill-opacity="0" stroke="#000000" stroke-width="1" stroke-opacity="0"></use></g></g><g><use xlink:href="#e4XRNGqJ0W" opacity="1" fill="#9871f5" fill-opacity="1"></use><g><use xlink:href="#e4XRNGqJ0W" opacity="1" fill-opacity="0" stroke="#000000" stroke-width="1" stroke-opacity="0"></use></g></g><g><use xlink:href="#cTKXZm7Mc" opacity="1" fill="#000000" fill-opacity="0"></use><g><use xlink:href="#cTKXZm7Mc" opacity="1" fill-opacity="0" stroke="#000000" stroke-width="1" stroke-opacity="0"></use></g></g><g><use xlink:href="#a3nFKCaKRS" opacity="1" fill="#000000" fill-opacity="0"></use><g><use xlink:href="#a3nFKCaKRS" opacity="1" fill-opacity="0" stroke="#000000" stroke-width="1" stroke-opacity="0"></use></g></g><g><use xlink:href="#b42HL2mYyu" opacity="1" fill="#000000" fill-opacity="0"></use><g><use xlink:href="#b42HL2mYyu" opacity="1" fill-opacity="0" stroke="#000000" stroke-width="1" stroke-opacity="0"></use></g></g><g><use xlink:href="#b2Mgv7NFr" opacity="1" fill="#9871f5" fill-opacity="1"></use><g><use xlink:href="#b2Mgv7NFr" opacity="1" fill-opacity="0" stroke="#000000" stroke-width="1" stroke-opacity="0"></use></g></g><g><use xlink:href="#l1kO8hfen" opacity="1" fill="#000000" fill-opacity="0"></use><g><use xlink:href="#l1kO8hfen" opacity="1" fill-opacity="0" stroke="#000000" stroke-width="1" stroke-opacity="0"></use></g></g><g><use xlink:href="#b5Zm4O0BdM" opacity="1" fill="#000000" fill-opacity="0"></use><g><use xlink:href="#b5Zm4O0BdM" opacity="1" fill-opacity="0" stroke="#000000" stroke-width="1" stroke-opacity="0"></use></g></g><g><use xlink:href="#b4wFzASoGW" opacity="1" fill="#000000" fill-opacity="0"></use><g><use xlink:href="#b4wFzASoGW" opacity="1" fill-opacity="0" stroke="#000000" stroke-width="1" stroke-opacity="0"></use></g></g><g><use xlink:href="#b6PIdtucr" opacity="1" fill="#9871f5" fill-opacity="1"></use><g><use xlink:href="#b6PIdtucr" opacity="1" fill-opacity="0" stroke="#000000" stroke-width="1" stroke-opacity="0"></use></g></g><g><use xlink:href="#c3p4Vg2Kw6" opacity="1" fill="#000000" fill-opacity="0"></use><g><use xlink:href="#c3p4Vg2Kw6" opacity="1" fill-opacity="0" stroke="#000000" stroke-width="1" stroke-opacity="0"></use></g></g><g><use xlink:href="#azB3PHS5M" opacity="1" fill="#000000" fill-opacity="0"></use><g><use xlink:href="#azB3PHS5M" opacity="1" fill-opacity="0" stroke="#000000" stroke-width="1" stroke-opacity="0"></use></g></g><g><use xlink:href="#aWgJmjkp1" opacity="1" fill="#000000" fill-opacity="0"></use><g><use xlink:href="#aWgJmjkp1" opacity="1" fill-opacity="0" stroke="#000000" stroke-width="1" stroke-opacity="0"></use></g></g><g><use xlink:href="#a4XsLHRqh5" opacity="1" fill="#9871f5" fill-opacity="1"></use><g><use xlink:href="#a4XsLHRqh5" opacity="1" fill-opacity="0" stroke="#000000" stroke-width="1" stroke-opacity="0"></use></g></g><g><use xlink:href="#baumu7N" opacity="1" fill="#000000" fill-opacity="0"></use><g><use xlink:href="#baumu7N" opacity="1" fill-opacity="0" stroke="#000000" stroke-width="1" stroke-opacity="0"></use></g></g><g><use xlink:href="#b6umauktps" opacity="1" fill="#000000" fill-opacity="0"></use><g><use xlink:href="#b6umauktps" opacity="1" fill-opacity="0" stroke="#000000" stroke-width="1" stroke-opacity="0"></use></g></g><g><use xlink:href="#cH1GVhKC6" opacity="1" fill="#000000" fill-opacity="0"></use><g><use xlink:href="#cH1GVhKC6" opacity="1" fill-opacity="0" stroke="#000000" stroke-width="1" stroke-opacity="0"></use></g></g><g><use xlink:href="#b2Sasje3c" opacity="1" fill="#9871f5" fill-opacity="1"></use><g><use xlink:href="#b2Sasje3c" opacity="1" fill-opacity="0" stroke="#000000" stroke-width="1" stroke-opacity="0"></use></g></g><g><use xlink:href="#ihHoGVQp5" opacity="1" fill="#000000" fill-opacity="0"></use><g><use xlink:href="#ihHoGVQp5" opacity="1" fill-opacity="0" stroke="#000000" stroke-width="1" stroke-opacity="0"></use></g></g><g><use xlink:href="#asjQLXKUh" opacity="1" fill="#000000" fill-opacity="0"></use><g><use xlink:href="#asjQLXKUh" opacity="1" fill-opacity="0" stroke="#000000" stroke-width="1" stroke-opacity="0"></use></g></g><g><use xlink:href="#e3aZlznuXm" opacity="1" fill="#000000" fill-opacity="0"></use><g><use xlink:href="#e3aZlznuXm" opacity="1" fill-opacity="0" stroke="#000000" stroke-width="1" stroke-opacity="0"></use></g></g><g><use xlink:href="#f54eCq1jDv" opacity="1" fill="#9871f5" fill-opacity="1"></use><g><use xlink:href="#f54eCq1jDv" opacity="1" fill-opacity="0" stroke="#000000" stroke-width="1" stroke-opacity="0"></use></g></g><g><use xlink:href="#awK4764Iz" opacity="1" fill="#000000" fill-opacity="0"></use><g><use xlink:href="#awK4764Iz" opacity="1" fill-opacity="0" stroke="#000000" stroke-width="1" stroke-opacity="0"></use></g></g><g><use xlink:href="#b1jKJ4p9xn" opacity="1" fill="#000000" fill-opacity="0"></use><g><use xlink:href="#b1jKJ4p9xn" opacity="1" fill-opacity="0" stroke="#000000" stroke-width="1" stroke-opacity="0"></use></g></g><g><use xlink:href="#e1HXteUze0" opacity="1" fill="#000000" fill-opacity="0"></use><g><use xlink:href="#e1HXteUze0" opacity="1" fill-opacity="0" stroke="#000000" stroke-width="1" stroke-opacity="0"></use></g></g><g><use xlink:href="#e6bRUZCHrK" opacity="1" fill="#9871f5" fill-opacity="1"></use><g><use xlink:href="#e6bRUZCHrK" opacity="1" fill-opacity="0" stroke="#000000" stroke-width="1" stroke-opacity="0"></use></g></g><g><use xlink:href="#ay9WuXLEc" opacity="1" fill="#000000" fill-opacity="0"></use><g><use xlink:href="#ay9WuXLEc" opacity="1" fill-opacity="0" stroke="#000000" stroke-width="1" stroke-opacity="0"></use></g></g><g><use xlink:href="#c6o8VqX76" opacity="1" fill="#000000" fill-opacity="0"></use><g><use xlink:href="#c6o8VqX76" opacity="1" fill-opacity="0" stroke="#000000" stroke-width="1" stroke-opacity="0"></use></g></g><g><use xlink:href="#bJX2LkHuQ" opacity="1" fill="#000000" fill-opacity="0"></use><g><use xlink:href="#bJX2LkHuQ" opacity="1" fill-opacity="0" stroke="#000000" stroke-width="1" stroke-opacity="0"></use></g></g><g><use xlink:href="#n1HMLj4TY6" opacity="1" fill="#000000" fill-opacity="0"></use><g><use xlink:href="#n1HMLj4TY6" opacity="1" fill-opacity="0" stroke="#000000" stroke-width="1" stroke-opacity="0"></use></g></g><g><use xlink:href="#h2FFXIM8CS" opacity="1" fill="#000000" fill-opacity="0"></use><g><use xlink:href="#h2FFXIM8CS" opacity="1" fill-opacity="0" stroke="#000000" stroke-width="1" stroke-opacity="0"></use></g></g><g><use xlink:href="#m1vEuETxan" opacity="1" fill="#000000" fill-opacity="0"></use><g><use xlink:href="#m1vEuETxan" opacity="1" fill-opacity="0" stroke="#000000" stroke-width="1" stroke-opacity="0"></use></g></g><g><use xlink:href="#c1A4OOf7Ny" opacity="1" fill="#9871f5" fill-opacity="1"></use><g><use xlink:href="#c1A4OOf7Ny" opacity="1" fill-opacity="0" stroke="#000000" stroke-width="1" stroke-opacity="0"></use></g></g><g><use xlink:href="#gc2Yuolqn" opacity="1" fill="#000000" fill-opacity="0"></use><g><use xlink:href="#gc2Yuolqn" opacity="1" fill-opacity="0" stroke="#000000" stroke-width="1" stroke-opacity="0"></use></g></g><g><use xlink:href="#d1e72vFiHW" opacity="1" fill="#000000" fill-opacity="0"></use><g><use xlink:href="#d1e72vFiHW" opacity="1" fill-opacity="0" stroke="#000000" stroke-width="1" stroke-opacity="0"></use></g></g><g><use xlink:href="#a2TFtVYVW6" opacity="1" fill="#000000" fill-opacity="0"></use><g><use xlink:href="#a2TFtVYVW6" opacity="1" fill-opacity="0" stroke="#000000" stroke-width="1" stroke-opacity="0"></use></g></g><g><use xlink:href="#ahgEpfras" opacity="1" fill="#9871f5" fill-opacity="1"></use><g><use xlink:href="#ahgEpfras" opacity="1" fill-opacity="0" stroke="#000000" stroke-width="1" stroke-opacity="0"></use></g></g><g><use xlink:href="#cHMkNWxM7" opacity="1" fill="#000000" fill-opacity="0"></use><g><use xlink:href="#cHMkNWxM7" opacity="1" fill-opacity="0" stroke="#000000" stroke-width="1" stroke-opacity="0"></use></g></g><g><use xlink:href="#b4ZOJc0pHJ" opacity="1" fill="#000000" fill-opacity="0"></use><g><use xlink:href="#b4ZOJc0pHJ" opacity="1" fill-opacity="0" stroke="#000000" stroke-width="1" stroke-opacity="0"></use></g></g><g><use xlink:href="#a2TMuqNtE2" opacity="1" fill="#000000" fill-opacity="0"></use><g><use xlink:href="#a2TMuqNtE2" opacity="1" fill-opacity="0" stroke="#000000" stroke-width="1" stroke-opacity="0"></use></g></g><g><use xlink:href="#hg94jP0P5" opacity="1" fill="#9871f5" fill-opacity="1"></use><g><use xlink:href="#hg94jP0P5" opacity="1" fill-opacity="0" stroke="#000000" stroke-width="1" stroke-opacity="0"></use></g></g><g><use xlink:href="#b2XB8lHSr1" opacity="1" fill="#000000" fill-opacity="0"></use><g><use xlink:href="#b2XB8lHSr1" opacity="1" fill-opacity="0" stroke="#000000" stroke-width="1" stroke-opacity="0"></use></g></g><g><use xlink:href="#a13vHd3BNN" opacity="1" fill="#000000" fill-opacity="0"></use><g><use xlink:href="#a13vHd3BNN" opacity="1" fill-opacity="0" stroke="#000000" stroke-width="1" stroke-opacity="0"></use></g></g><g><use xlink:href="#hPURFyiNB" opacity="1" fill="#000000" fill-opacity="0"></use><g><use xlink:href="#hPURFyiNB" opacity="1" fill-opacity="0" stroke="#000000" stroke-width="1" stroke-opacity="0"></use></g></g><g><use xlink:href="#c12kyxn7z" opacity="1" fill="#9871f5" fill-opacity="1"></use><g><use xlink:href="#c12kyxn7z" opacity="1" fill-opacity="0" stroke="#000000" stroke-width="1" stroke-opacity="0"></use></g></g><g><use xlink:href="#a8cZeh9WO" opacity="1" fill="#000000" fill-opacity="0"></use><g><use xlink:href="#a8cZeh9WO" opacity="1" fill-opacity="0" stroke="#000000" stroke-width="1" stroke-opacity="0"></use></g></g><g><use xlink:href="#b74APTwWtx" opacity="1" fill="#000000" fill-opacity="0"></use><g><use xlink:href="#b74APTwWtx" opacity="1" fill-opacity="0" stroke="#000000" stroke-width="1" stroke-opacity="0"></use></g></g><g><use xlink:href="#b2mBNh3NZh" opacity="1" fill="#000000" fill-opacity="0"></use><g><use xlink:href="#b2mBNh3NZh" opacity="1" fill-opacity="0" stroke="#000000" stroke-width="1" stroke-opacity="0"></use></g></g><g><use xlink:href="#a2bjFbkvU" opacity="1" fill="#9871f5" fill-opacity="1"></use><g><use xlink:href="#a2bjFbkvU" opacity="1" fill-opacity="0" stroke="#000000" stroke-width="1" stroke-opacity="0"></use></g></g><g><use xlink:href="#b6xg2UYukW" opacity="1" fill="#000000" fill-opacity="0"></use><g><use xlink:href="#b6xg2UYukW" opacity="1" fill-opacity="0" stroke="#000000" stroke-width="1" stroke-opacity="0"></use></g></g><g><use xlink:href="#f19nwVoxbC" opacity="1" fill="#000000" fill-opacity="0"></use><g><use xlink:href="#f19nwVoxbC" opacity="1" fill-opacity="0" stroke="#000000" stroke-width="1" stroke-opacity="0"></use></g></g><g><use xlink:href="#a1w3W0Ys4I" opacity="1" fill="#000000" fill-opacity="0"></use><g><use xlink:href="#a1w3W0Ys4I" opacity="1" fill-opacity="0" stroke="#000000" stroke-width="1" stroke-opacity="0"></use></g></g><g><use xlink:href="#a3CjvgAJEG" opacity="1" fill="#9871f5" fill-opacity="1"></use><g><use xlink:href="#a3CjvgAJEG" opacity="1" fill-opacity="0" stroke="#000000" stroke-width="1" stroke-opacity="0"></use></g></g><g><use xlink:href="#cIEcmIe69" opacity="1" fill="#000000" fill-opacity="0"></use><g><use xlink:href="#cIEcmIe69" opacity="1" fill-opacity="0" stroke="#000000" stroke-width="1" stroke-opacity="0"></use></g></g><g><use xlink:href="#brC2rZxc0" opacity="1" fill="#000000" fill-opacity="0"></use><g><use xlink:href="#brC2rZxc0" opacity="1" fill-opacity="0" stroke="#000000" stroke-width="1" stroke-opacity="0"></use></g></g><g><use xlink:href="#a2xVs1IRKk" opacity="1" fill="#000000" fill-opacity="0"></use><g><use xlink:href="#a2xVs1IRKk" opacity="1" fill-opacity="0" stroke="#000000" stroke-width="1" stroke-opacity="0"></use></g></g><g><use xlink:href="#a5MY40LgSE" opacity="1" fill="#000000" fill-opacity="0"></use><g><use xlink:href="#a5MY40LgSE" opacity="1" fill-opacity="0" stroke="#04d361" stroke-width="3" stroke-opacity="1"></use></g></g><g><use xlink:href="#b7G0nFXjB" opacity="1" fill="#9871f5" fill-opacity="1"></use><g><use xlink:href="#b7G0nFXjB" opacity="1" fill-opacity="0" stroke="#000000" stroke-width="1" stroke-opacity="0"></use></g></g><g><use xlink:href="#a5aoXCYzxf" opacity="1" fill="#000000" fill-opacity="0"></use><g><use xlink:href="#a5aoXCYzxf" opacity="1" fill-opacity="0" stroke="#000000" stroke-width="1" stroke-opacity="0"></use></g></g><g><use xlink:href="#c3mSbdx7O" opacity="1" fill="#000000" fill-opacity="0"></use><g><use xlink:href="#c3mSbdx7O" opacity="1" fill-opacity="0" stroke="#000000" stroke-width="1" stroke-opacity="0"></use></g></g><g><use xlink:href="#c2v9xt5PIt" opacity="1" fill="#000000" fill-opacity="0"></use><g><use xlink:href="#c2v9xt5PIt" opacity="1" fill-opacity="0" stroke="#000000" stroke-width="1" stroke-opacity="0"></use></g></g><g><use xlink:href="#d4VLn9qvDV" opacity="1" fill="#9871f5" fill-opacity="1"></use><g><use xlink:href="#d4VLn9qvDV" opacity="1" fill-opacity="0" stroke="#000000" stroke-width="1" stroke-opacity="0"></use></g></g><g><use xlink:href="#c3jAtX2cJ" opacity="1" fill="#000000" fill-opacity="0"></use><g><use xlink:href="#c3jAtX2cJ" opacity="1" fill-opacity="0" stroke="#000000" stroke-width="1" stroke-opacity="0"></use></g></g><g><use xlink:href="#acES1KeCB" opacity="1" fill="#000000" fill-opacity="0"></use><g><use xlink:href="#acES1KeCB" opacity="1" fill-opacity="0" stroke="#000000" stroke-width="1" stroke-opacity="0"></use></g></g><g><use xlink:href="#iik0aW6pL" opacity="1" fill="#000000" fill-opacity="0"></use><g><use xlink:href="#iik0aW6pL" opacity="1" fill-opacity="0" stroke="#000000" stroke-width="1" stroke-opacity="0"></use></g></g><g><use xlink:href="#dwOskKhW2" opacity="1" fill="#9871f5" fill-opacity="1"></use><g><use xlink:href="#dwOskKhW2" opacity="1" fill-opacity="0" stroke="#000000" stroke-width="1" stroke-opacity="0"></use></g></g><g><use xlink:href="#cDTs6D0d1" opacity="1" fill="#000000" fill-opacity="0"></use><g><use xlink:href="#cDTs6D0d1" opacity="1" fill-opacity="0" stroke="#000000" stroke-width="1" stroke-opacity="0"></use></g></g><g><use xlink:href="#b44ZQbW5aU" opacity="1" fill="#000000" fill-opacity="0"></use><g><use xlink:href="#b44ZQbW5aU" opacity="1" fill-opacity="0" stroke="#000000" stroke-width="1" stroke-opacity="0"></use></g></g><g><use xlink:href="#a48lBDMBdV" opacity="1" fill="#000000" fill-opacity="0"></use><g><use xlink:href="#a48lBDMBdV" opacity="1" fill-opacity="0" stroke="#000000" stroke-width="1" stroke-opacity="0"></use></g></g><g><use xlink:href="#araHkBpQK" opacity="1" fill="#9871f5" fill-opacity="1"></use><g><use xlink:href="#araHkBpQK" opacity="1" fill-opacity="0" stroke="#000000" stroke-width="1" stroke-opacity="0"></use></g></g><g><use xlink:href="#g12CpwvSxc" opacity="1" fill="#000000" fill-opacity="0"></use><g><use xlink:href="#g12CpwvSxc" opacity="1" fill-opacity="0" stroke="#000000" stroke-width="1" stroke-opacity="0"></use></g></g><g><use xlink:href="#d2dlbID0R5" opacity="1" fill="#000000" fill-opacity="0"></use><g><use xlink:href="#d2dlbID0R5" opacity="1" fill-opacity="0" stroke="#000000" stroke-width="1" stroke-opacity="0"></use></g></g><g><use xlink:href="#a1WoouTwBL" opacity="1" fill="#000000" fill-opacity="0"></use><g><use xlink:href="#a1WoouTwBL" opacity="1" fill-opacity="0" stroke="#000000" stroke-width="1" stroke-opacity="0"></use></g></g><g><use xlink:href="#b1d1lljelr" opacity="1" fill="#9871f5" fill-opacity="1"></use><g><use xlink:href="#b1d1lljelr" opacity="1" fill-opacity="0" stroke="#000000" stroke-width="1" stroke-opacity="0"></use></g></g><g><use xlink:href="#c84AP8wU0L" opacity="1" fill="#000000" fill-opacity="0"></use><g><use xlink:href="#c84AP8wU0L" opacity="1" fill-opacity="0" stroke="#000000" stroke-width="1" stroke-opacity="0"></use></g></g><g><use xlink:href="#c1Kbkjv4B" opacity="1" fill="#000000" fill-opacity="0"></use><g><use xlink:href="#c1Kbkjv4B" opacity="1" fill-opacity="0" stroke="#000000" stroke-width="1" stroke-opacity="0"></use></g></g><g><use xlink:href="#cKKXjNeuP" opacity="1" fill="#000000" fill-opacity="0"></use><g><use xlink:href="#cKKXjNeuP" opacity="1" fill-opacity="0" stroke="#000000" stroke-width="1" stroke-opacity="0"></use></g></g><g><use xlink:href="#a1T8VSi73d" opacity="1" fill="#9871f5" fill-opacity="1"></use><g><use xlink:href="#a1T8VSi73d" opacity="1" fill-opacity="0" stroke="#000000" stroke-width="1" stroke-opacity="0"></use></g></g><g><use xlink:href="#a2JuQuk2iz" opacity="1" fill="#000000" fill-opacity="0"></use><g><use xlink:href="#a2JuQuk2iz" opacity="1" fill-opacity="0" stroke="#000000" stroke-width="1" stroke-opacity="0"></use></g></g><g><use xlink:href="#f3Tdc6nLmP" opacity="1" fill="#000000" fill-opacity="0"></use><g><use xlink:href="#f3Tdc6nLmP" opacity="1" fill-opacity="0" stroke="#000000" stroke-width="1" stroke-opacity="0"></use></g></g><g><use xlink:href="#c1tcY3SNYM" opacity="1" fill="#000000" fill-opacity="0"></use><g><use xlink:href="#c1tcY3SNYM" opacity="1" fill-opacity="0" stroke="#000000" stroke-width="1" stroke-opacity="0"></use></g></g><g><use xlink:href="#hdVkceZwF" opacity="1" fill="#9871f5" fill-opacity="1"></use><g><use xlink:href="#hdVkceZwF" opacity="1" fill-opacity="0" stroke="#000000" stroke-width="1" stroke-opacity="0"></use></g></g><g><use xlink:href="#l3taJVq8kG" opacity="1" fill="#000000" fill-opacity="0"></use><g><use xlink:href="#l3taJVq8kG" opacity="1" fill-opacity="0" stroke="#000000" stroke-width="1" stroke-opacity="0"></use></g></g><g><use xlink:href="#dIDGZxicX" opacity="1" fill="#000000" fill-opacity="0"></use><g><use xlink:href="#dIDGZxicX" opacity="1" fill-opacity="0" stroke="#000000" stroke-width="1" stroke-opacity="0"></use></g></g><g><use xlink:href="#d2vpU8yIfb" opacity="1" fill="#000000" fill-opacity="0"></use><g><use xlink:href="#d2vpU8yIfb" opacity="1" fill-opacity="0" stroke="#000000" stroke-width="1" stroke-opacity="0"></use></g></g><g><use xlink:href="#c3DMPqUlc" opacity="1" fill="#9871f5" fill-opacity="1"></use><g><use xlink:href="#c3DMPqUlc" opacity="1" fill-opacity="0" stroke="#000000" stroke-width="1" stroke-opacity="0"></use></g></g><g><use xlink:href="#b54UKV3mvM" opacity="1" fill="#000000" fill-opacity="0"></use><g><use xlink:href="#b54UKV3mvM" opacity="1" fill-opacity="0" stroke="#000000" stroke-width="1" stroke-opacity="0"></use></g></g><g><use xlink:href="#g3eIVhhLLd" opacity="1" fill="#000000" fill-opacity="0"></use><g><use xlink:href="#g3eIVhhLLd" opacity="1" fill-opacity="0" stroke="#000000" stroke-width="1" stroke-opacity="0"></use></g></g><g><use xlink:href="#a1E9nCozcE" opacity="1" fill="#000000" fill-opacity="0"></use><g><use xlink:href="#a1E9nCozcE" opacity="1" fill-opacity="0" stroke="#000000" stroke-width="1" stroke-opacity="0"></use></g></g><g><use xlink:href="#c3e4aPdrHR" opacity="1" fill="#9871f5" fill-opacity="1"></use><g><use xlink:href="#c3e4aPdrHR" opacity="1" fill-opacity="0" stroke="#000000" stroke-width="1" stroke-opacity="0"></use></g></g><g><use xlink:href="#b7J2xxpJ4" opacity="1" fill="#000000" fill-opacity="0"></use><g><use xlink:href="#b7J2xxpJ4" opacity="1" fill-opacity="0" stroke="#000000" stroke-width="1" stroke-opacity="0"></use></g></g><g><use xlink:href="#e2VNbDIu70" opacity="1" fill="#000000" fill-opacity="0"></use><g><use xlink:href="#e2VNbDIu70" opacity="1" fill-opacity="0" stroke="#000000" stroke-width="1" stroke-opacity="0"></use></g></g><g><use xlink:href="#e3uxZmvaQ" opacity="1" fill="#000000" fill-opacity="0"></use><g><use xlink:href="#e3uxZmvaQ" opacity="1" fill-opacity="0" stroke="#000000" stroke-width="1" stroke-opacity="0"></use></g></g><g><use xlink:href="#ckNr5O0N4" opacity="1" fill="#9871f5" fill-opacity="1"></use><g><use xlink:href="#ckNr5O0N4" opacity="1" fill-opacity="0" stroke="#000000" stroke-width="1" stroke-opacity="0"></use></g></g><g><use xlink:href="#bsJ3SBKZR" opacity="1" fill="#000000" fill-opacity="0"></use><g><use xlink:href="#bsJ3SBKZR" opacity="1" fill-opacity="0" stroke="#000000" stroke-width="1" stroke-opacity="0"></use></g></g><g><use xlink:href="#e6D441PpHC" opacity="1" fill="#000000" fill-opacity="0"></use><g><use xlink:href="#e6D441PpHC" opacity="1" fill-opacity="0" stroke="#000000" stroke-width="1" stroke-opacity="0"></use></g></g><g><use xlink:href="#a32qAdfTci" opacity="1" fill="#000000" fill-opacity="0"></use><g><use xlink:href="#a32qAdfTci" opacity="1" fill-opacity="0" stroke="#000000" stroke-width="1" stroke-opacity="0"></use></g></g><g><use xlink:href="#a7HPg4QVW" opacity="1" fill="#9871f5" fill-opacity="1"></use><g><use xlink:href="#a7HPg4QVW" opacity="1" fill-opacity="0" stroke="#000000" stroke-width="1" stroke-opacity="0"></use></g></g><g><use xlink:href="#c8EJIYdgv" opacity="1" fill="#000000" fill-opacity="0"></use><g><use xlink:href="#c8EJIYdgv" opacity="1" fill-opacity="0" stroke="#000000" stroke-width="1" stroke-opacity="0"></use></g></g><g><use xlink:href="#a18ZWN9JsM" opacity="1" fill="#000000" fill-opacity="0"></use><g><use xlink:href="#a18ZWN9JsM" opacity="1" fill-opacity="0" stroke="#000000" stroke-width="1" stroke-opacity="0"></use></g></g><g><use xlink:href="#bhYVSzOyI" opacity="1" fill="#000000" fill-opacity="0"></use><g><use xlink:href="#bhYVSzOyI" opacity="1" fill-opacity="0" stroke="#000000" stroke-width="1" stroke-opacity="0"></use></g></g><g><use xlink:href="#f5ahpEDSiQ" opacity="1" fill="#9871f5" fill-opacity="1"></use><g><use xlink:href="#f5ahpEDSiQ" opacity="1" fill-opacity="0" stroke="#000000" stroke-width="1" stroke-opacity="0"></use></g></g><g><use xlink:href="#c9rLaZiD7" opacity="1" fill="#000000" fill-opacity="0"></use><g><use xlink:href="#c9rLaZiD7" opacity="1" fill-opacity="0" stroke="#000000" stroke-width="1" stroke-opacity="0"></use></g></g><g><use xlink:href="#b2lvExETYm" opacity="1" fill="#000000" fill-opacity="0"></use><g><use xlink:href="#b2lvExETYm" opacity="1" fill-opacity="0" stroke="#000000" stroke-width="1" stroke-opacity="0"></use></g></g><g><use xlink:href="#fEsYD8swQ" opacity="1" fill="#000000" fill-opacity="0"></use><g><use xlink:href="#fEsYD8swQ" opacity="1" fill-opacity="0" stroke="#000000" stroke-width="1" stroke-opacity="0"></use></g></g><g><use xlink:href="#b5ue0vIVmA" opacity="1" fill="#9871f5" fill-opacity="1"></use><g><use xlink:href="#b5ue0vIVmA" opacity="1" fill-opacity="0" stroke="#000000" stroke-width="1" stroke-opacity="0"></use></g></g><g><use xlink:href="#b1bctRfjUy" opacity="1" fill="#000000" fill-opacity="0"></use><g><use xlink:href="#b1bctRfjUy" opacity="1" fill-opacity="0" stroke="#000000" stroke-width="1" stroke-opacity="0"></use></g></g><g><use xlink:href="#aW8y37J9Q" opacity="1" fill="#000000" fill-opacity="0"></use><g><use xlink:href="#aW8y37J9Q" opacity="1" fill-opacity="0" stroke="#000000" stroke-width="1" stroke-opacity="0"></use></g></g><g><use xlink:href="#j6lGJ1ubXN" opacity="1" fill="#000000" fill-opacity="0"></use><g><use xlink:href="#j6lGJ1ubXN" opacity="1" fill-opacity="0" stroke="#000000" stroke-width="1" stroke-opacity="0"></use></g></g><g><use xlink:href="#f2eLcpU4vc" opacity="1" fill="#9871f5" fill-opacity="1"></use><g><use xlink:href="#f2eLcpU4vc" opacity="1" fill-opacity="0" stroke="#000000" stroke-width="1" stroke-opacity="0"></use></g></g><g><use xlink:href="#aGABTCU0U" opacity="1" fill="#000000" fill-opacity="0"></use><g><use xlink:href="#aGABTCU0U" opacity="1" fill-opacity="0" stroke="#000000" stroke-width="1" stroke-opacity="0"></use></g></g><g><use xlink:href="#antoWRLST" opacity="1" fill="#000000" fill-opacity="0"></use><g><use xlink:href="#antoWRLST" opacity="1" fill-opacity="0" stroke="#000000" stroke-width="1" stroke-opacity="0"></use></g></g><g><use xlink:href="#bPrDRKnNn" opacity="1" fill="#000000" fill-opacity="0"></use><g><use xlink:href="#bPrDRKnNn" opacity="1" fill-opacity="0" stroke="#000000" stroke-width="1" stroke-opacity="0"></use></g></g><g><use xlink:href="#a1SH7pyKCO" opacity="1" fill="#9871f5" fill-opacity="1"></use><g><use xlink:href="#a1SH7pyKCO" opacity="1" fill-opacity="0" stroke="#000000" stroke-width="1" stroke-opacity="0"></use></g></g><g><use xlink:href="#c2YGv5bsl2" opacity="1" fill="#000000" fill-opacity="0"></use><g><use xlink:href="#c2YGv5bsl2" opacity="1" fill-opacity="0" stroke="#000000" stroke-width="1" stroke-opacity="0"></use></g></g><g><use xlink:href="#cyvFEzMv1" opacity="1" fill="#000000" fill-opacity="0"></use><g><use xlink:href="#cyvFEzMv1" opacity="1" fill-opacity="0" stroke="#000000" stroke-width="1" stroke-opacity="0"></use></g></g><g><use xlink:href="#g135lXsvFE" opacity="1" fill="#000000" fill-opacity="0"></use><g><use xlink:href="#g135lXsvFE" opacity="1" fill-opacity="0" stroke="#000000" stroke-width="1" stroke-opacity="0"></use></g></g><g><use xlink:href="#cAMPl4DCt" opacity="1" fill="#9871f5" fill-opacity="1"></use><g><use xlink:href="#cAMPl4DCt" opacity="1" fill-opacity="0" stroke="#000000" stroke-width="1" stroke-opacity="0"></use></g></g><g><use xlink:href="#c2ikgIYlNF" opacity="1" fill="#000000" fill-opacity="0"></use><g><use xlink:href="#c2ikgIYlNF" opacity="1" fill-opacity="0" stroke="#000000" stroke-width="1" stroke-opacity="0"></use></g></g><g><use xlink:href="#a2RUGS70Oj" opacity="1" fill="#000000" fill-opacity="0"></use><g><use xlink:href="#a2RUGS70Oj" opacity="1" fill-opacity="0" stroke="#000000" stroke-width="1" stroke-opacity="0"></use></g></g><g><use xlink:href="#c26yzLsoT" opacity="1" fill="#000000" fill-opacity="0"></use><g><use xlink:href="#c26yzLsoT" opacity="1" fill-opacity="0" stroke="#000000" stroke-width="1" stroke-opacity="0"></use></g></g></g></g></svg>