<?xml version="1.0" encoding="UTF-8" standalone="no"?>
<!DOCTYPE svg PUBLIC "-//W3C//DTD SVG 1.1//EN" "http://www.w3.org/Graphics/SVG/1.1/DTD/svg11.dtd">
<svg version="1.1" xmlns="http://www.w3.org/2000/svg" xmlns:xlink="http://www.w3.org/1999/xlink" preserveAspectRatio="xMidYMid meet" viewBox="0 0 1120 565" width="1120" height="565"><defs><path d="M70.07 73.44L59.34 84.19" id="dbV0g5L7O"></path><path d="M70.07 73.44L59.34 84.19" id="aC7SSDRtg"></path><path d="M59.34 73.44L70.07 84.19" id="b59MxDvJvL"></path><path d="M59.34 73.44L70.07 84.19" id="gUdF4SIoX"></path><path d="M361.9 308.87L351.16 319.62" id="b1UsZrQxrv"></path><path d="M361.9 308.87L351.16 319.62" id="f3thNqMik"></path><path d="M351.16 308.87L361.9 319.62" id="amizSEJa4"></path><path d="M351.16 308.87L361.9 319.62" id="c2T9pglt6t"></path><path d="M746.39 349.37L746.39 364.57" id="aDjD51aVL"></path><path d="M746.39 349.37L746.39 364.57" id="cfeqcN06V"></path><path d="M738.78 356.97L753.98 356.97" id="moyntogvb"></path><path d="M738.78 356.97L753.98 356.97" id="b3F8PmTG9"></path><path d="M493.53 398.83C493.53 393.74 489.41 389.59 484.3 389.59C479.2 389.61 475.08 393.74 475.08 398.83C475.08 403.92 479.2 408.06 484.3 408.06C489.39 408.06 493.53 403.93 493.53 398.83Z" id="b306Ok5iWy"></path><path d="M493.53 398.83C493.53 393.74 489.41 389.59 484.3 389.59C479.2 389.61 475.08 393.74 475.08 398.83C475.08 403.92 479.2 408.06 484.3 408.06C489.39 408.06 493.53 403.93 493.53 398.83Z" id="cwBKBsSVA"></path><path d="M1105 328.62C1106.84 328.62 1108.34 330.11 1108.34 331.96C1108.34 333.81 1106.84 335.31 1105 335.31C1103.15 335.31 1101.66 333.81 1101.66 331.96C1101.66 330.11 1103.15 328.62 1105 328.62Z" id="a2oDpZ3IHC"></path><path d="M1105 328.62C1106.84 328.62 1108.34 330.11 1108.34 331.96C1108.34 333.81 1106.84 335.31 1105 335.31C1103.15 335.31 1101.66 333.81 1101.66 331.96C1101.66 330.11 1103.15 328.62 1105 328.62Z" id="gboK54SR"></path><path d="M1081.66 328.62C1083.51 328.62 1085 330.11 1085 331.96C1085 333.81 1083.51 335.31 1081.66 335.31C1079.81 335.31 1078.32 333.81 1078.32 331.96C1078.32 330.11 1079.81 328.62 1081.66 328.62Z" id="b3qGY9rcuP"></path><path d="M1081.66 328.62C1083.51 328.62 1085 330.11 1085 331.96C1085 333.81 1083.51 335.31 1081.66 335.31C1079.81 335.31 1078.32 333.81 1078.32 331.96C1078.32 330.11 1079.81 328.62 1081.66 328.62Z" id="bSdF9HeaX"></path><path d="M1058.34 328.62C1060.18 328.62 1061.68 330.11 1061.68 331.96C1061.68 333.81 1060.18 335.31 1058.34 335.31C1056.49 335.31 1055 333.81 1055 331.96C1055 330.11 1056.49 328.62 1058.34 328.62Z" id="avgthmQDn"></path><path d="M1058.34 328.62C1060.18 328.62 1061.68 330.11 1061.68 331.96C1061.68 333.81 1060.18 335.31 1058.34 335.31C1056.49 335.31 1055 333.81 1055 331.96C1055 330.11 1056.49 328.62 1058.34 328.62Z" id="a2pF8zjJk9"></path><path d="M1035 328.62C1036.85 328.62 1038.34 330.11 1038.34 331.96C1038.34 333.81 1036.85 335.31 1035 335.31C1033.15 335.31 1031.66 333.81 1031.66 331.96C1031.66 330.11 1033.15 328.62 1035 328.62Z" id="aGZD9I1OA"></path><path d="M1035 328.62C1036.85 328.62 1038.34 330.11 1038.34 331.96C1038.34 333.81 1036.85 335.31 1035 335.31C1033.15 335.31 1031.66 333.81 1031.66 331.96C1031.66 330.11 1033.15 328.62 1035 328.62Z" id="btKrtVsaK"></path><path d="M1011.68 328.62C1013.52 328.62 1015.02 330.11 1015.02 331.96C1015.02 333.81 1013.52 335.31 1011.68 335.31C1009.83 335.31 1008.34 333.81 1008.34 331.96C1008.34 330.11 1009.83 328.62 1011.68 328.62Z" id="bKNXoaGGs"></path><path d="M1011.68 328.62C1013.52 328.62 1015.02 330.11 1015.02 331.96C1015.02 333.81 1013.52 335.31 1011.68 335.31C1009.83 335.31 1008.34 333.81 1008.34 331.96C1008.34 330.11 1009.83 328.62 1011.68 328.62Z" id="dppeDMREO"></path><path d="M988.34 328.62C990.19 328.62 991.68 330.11 991.68 331.96C991.68 333.81 990.19 335.31 988.34 335.31C986.5 335.31 985 333.81 985 331.96C985 330.11 986.5 328.62 988.34 328.62Z" id="l4xUftY1SU"></path><path d="M988.34 328.62C990.19 328.62 991.68 330.11 991.68 331.96C991.68 333.81 990.19 335.31 988.34 335.31C986.5 335.31 985 333.81 985 331.96C985 330.11 986.5 328.62 988.34 328.62Z" id="j1EUutu4Py"></path><path d="M1105 351.97C1106.84 351.97 1108.34 353.47 1108.34 355.32C1108.34 357.16 1106.84 358.66 1105 358.66C1103.15 358.66 1101.66 357.16 1101.66 355.32C1101.66 353.47 1103.15 351.97 1105 351.97Z" id="bCHefg1e1"></path><path d="M1105 351.97C1106.84 351.97 1108.34 353.47 1108.34 355.32C1108.34 357.16 1106.84 358.66 1105 358.66C1103.15 358.66 1101.66 357.16 1101.66 355.32C1101.66 353.47 1103.15 351.97 1105 351.97Z" id="o1KsEZpOyY"></path><path d="M1081.66 351.97C1083.51 351.97 1085 353.47 1085 355.32C1085 357.16 1083.51 358.66 1081.66 358.66C1079.81 358.66 1078.32 357.16 1078.32 355.32C1078.32 353.47 1079.81 351.97 1081.66 351.97Z" id="bvtxggiqy"></path><path d="M1081.66 351.97C1083.51 351.97 1085 353.47 1085 355.32C1085 357.16 1083.51 358.66 1081.66 358.66C1079.81 358.66 1078.32 357.16 1078.32 355.32C1078.32 353.47 1079.81 351.97 1081.66 351.97Z" id="agyud6vP4"></path><path d="M1058.34 351.97C1060.18 351.97 1061.68 353.47 1061.68 355.32C1061.68 357.16 1060.18 358.66 1058.34 358.66C1056.49 358.66 1055 357.16 1055 355.32C1055 353.47 1056.49 351.97 1058.34 351.97Z" id="a5Gmbh0ST"></path><path d="M1058.34 351.97C1060.18 351.97 1061.68 353.47 1061.68 355.32C1061.68 357.16 1060.18 358.66 1058.34 358.66C1056.49 358.66 1055 357.16 1055 355.32C1055 353.47 1056.49 351.97 1058.34 351.97Z" id="e393RtCexJ"></path><path d="M1035 351.97C1036.85 351.97 1038.34 353.47 1038.34 355.32C1038.34 357.16 1036.85 358.66 1035 358.66C1033.15 358.66 1031.66 357.16 1031.66 355.32C1031.66 353.47 1033.15 351.97 1035 351.97Z" id="b2i0FuGhwr"></path><path d="M1035 351.97C1036.85 351.97 1038.34 353.47 1038.34 355.32C1038.34 357.16 1036.85 358.66 1035 358.66C1033.15 358.66 1031.66 357.16 1031.66 355.32C1031.66 353.47 1033.15 351.97 1035 351.97Z" id="e1CYsHcK6h"></path><path d="M1011.68 351.97C1013.52 351.97 1015.02 353.47 1015.02 355.32C1015.02 357.16 1013.52 358.66 1011.68 358.66C1009.83 358.66 1008.34 357.16 1008.34 355.32C1008.34 353.47 1009.83 351.97 1011.68 351.97Z" id="h4LHKmd1Nv"></path><path d="M1011.68 351.97C1013.52 351.97 1015.02 353.47 1015.02 355.32C1015.02 357.16 1013.52 358.66 1011.68 358.66C1009.83 358.66 1008.34 357.16 1008.34 355.32C1008.34 353.47 1009.83 351.97 1011.68 351.97Z" id="apJDl92S5"></path><path d="M988.34 351.97C990.19 351.97 991.68 353.47 991.68 355.32C991.68 357.16 990.19 358.66 988.34 358.66C986.5 358.66 985 357.16 985 355.32C985 353.47 986.5 351.97 988.34 351.97Z" id="lnpSiWMXH"></path><path d="M988.34 351.97C990.19 351.97 991.68 353.47 991.68 355.32C991.68 357.16 990.19 358.66 988.34 358.66C986.5 358.66 985 357.16 985 355.32C985 353.47 986.5 351.97 988.34 351.97Z" id="a1iP8kIlDT"></path><path d="M1105 375.34C1106.84 375.34 1108.34 376.84 1108.34 378.69C1108.34 380.53 1106.84 382.03 1105 382.03C1103.15 382.03 1101.66 380.53 1101.66 378.69C1101.66 376.84 1103.15 375.34 1105 375.34Z" id="b3IZJTzJlO"></path><path d="M1105 375.34C1106.84 375.34 1108.34 376.84 1108.34 378.69C1108.34 380.53 1106.84 382.03 1105 382.03C1103.15 382.03 1101.66 380.53 1101.66 378.69C1101.66 376.84 1103.15 375.34 1105 375.34Z" id="bmSFp4eJ7"></path><path d="M1081.66 375.34C1083.51 375.34 1085 376.84 1085 378.69C1085 380.53 1083.51 382.03 1081.66 382.03C1079.81 382.03 1078.32 380.53 1078.32 378.69C1078.32 376.84 1079.81 375.34 1081.66 375.34Z" id="a13NyigUqj"></path><path d="M1081.66 375.34C1083.51 375.34 1085 376.84 1085 378.69C1085 380.53 1083.51 382.03 1081.66 382.03C1079.81 382.03 1078.32 380.53 1078.32 378.69C1078.32 376.84 1079.81 375.34 1081.66 375.34Z" id="bV9DgWXLl"></path><path d="M1058.34 375.34C1060.18 375.34 1061.68 376.84 1061.68 378.69C1061.68 380.53 1060.18 382.03 1058.34 382.03C1056.49 382.03 1055 380.53 1055 378.69C1055 376.84 1056.49 375.34 1058.34 375.34Z" id="dhlWJRhQ9"></path><path d="M1058.34 375.34C1060.18 375.34 1061.68 376.84 1061.68 378.69C1061.68 380.53 1060.18 382.03 1058.34 382.03C1056.49 382.03 1055 380.53 1055 378.69C1055 376.84 1056.49 375.34 1058.34 375.34Z" id="gB5ERuzH9"></path><path d="M1035 375.34C1036.85 375.34 1038.34 376.84 1038.34 378.69C1038.34 380.53 1036.85 382.03 1035 382.03C1033.15 382.03 1031.66 380.53 1031.66 378.69C1031.66 376.84 1033.15 375.34 1035 375.34Z" id="bEJkE1ZEf"></path><path d="M1035 375.34C1036.85 375.34 1038.34 376.84 1038.34 378.69C1038.34 380.53 1036.85 382.03 1035 382.03C1033.15 382.03 1031.66 380.53 1031.66 378.69C1031.66 376.84 1033.15 375.34 1035 375.34Z" id="a4osI8nxBB"></path><path d="M1011.68 375.34C1013.52 375.34 1015.02 376.84 1015.02 378.69C1015.02 380.53 1013.52 382.03 1011.68 382.03C1009.83 382.03 1008.34 380.53 1008.34 378.69C1008.34 376.84 1009.83 375.34 1011.68 375.34Z" id="iVCkwGEJk"></path><path d="M1011.68 375.34C1013.52 375.34 1015.02 376.84 1015.02 378.69C1015.02 380.53 1013.52 382.03 1011.68 382.03C1009.83 382.03 1008.34 380.53 1008.34 378.69C1008.34 376.84 1009.83 375.34 1011.68 375.34Z" id="e6npWACYbH"></path><path d="M988.34 375.34C990.19 375.34 991.68 376.84 991.68 378.69C991.68 380.53 990.19 382.03 988.34 382.03C986.5 382.03 985 380.53 985 378.69C985 376.84 986.5 375.34 988.34 375.34Z" id="c3OZ0y5KA3"></path><path d="M988.34 375.34C990.19 375.34 991.68 376.84 991.68 378.69C991.68 380.53 990.19 382.03 988.34 382.03C986.5 382.03 985 380.53 985 378.69C985 376.84 986.5 375.34 988.34 375.34Z" id="a2AObVSP4p"></path><path d="M1105 398.69C1106.84 398.69 1108.34 400.19 1108.34 402.04C1108.34 403.89 1106.84 405.38 1105 405.38C1103.15 405.38 1101.66 403.89 1101.66 402.04C1101.66 400.19 1103.15 398.69 1105 398.69Z" id="a4mWwz5LI"></path><path d="M1105 398.69C1106.84 398.69 1108.34 400.19 1108.34 402.04C1108.34 403.89 1106.84 405.38 1105 405.38C1103.15 405.38 1101.66 403.89 1101.66 402.04C1101.66 400.19 1103.15 398.69 1105 398.69Z" id="e293Bgwwj6"></path><path d="M1081.66 398.69C1083.51 398.69 1085 400.19 1085 402.04C1085 403.89 1083.51 405.38 1081.66 405.38C1079.81 405.38 1078.32 403.89 1078.32 402.04C1078.32 400.19 1079.81 398.69 1081.66 398.69Z" id="ej3s0ZFAB"></path><path d="M1081.66 398.69C1083.51 398.69 1085 400.19 1085 402.04C1085 403.89 1083.51 405.38 1081.66 405.38C1079.81 405.38 1078.32 403.89 1078.32 402.04C1078.32 400.19 1079.81 398.69 1081.66 398.69Z" id="a8iyGIST1q"></path><path d="M1058.34 398.69C1060.18 398.69 1061.68 400.19 1061.68 402.04C1061.68 403.89 1060.18 405.38 1058.34 405.38C1056.49 405.38 1055 403.89 1055 402.04C1055 400.19 1056.49 398.69 1058.34 398.69Z" id="a54tPrRte"></path><path d="M1058.34 398.69C1060.18 398.69 1061.68 400.19 1061.68 402.04C1061.68 403.89 1060.18 405.38 1058.34 405.38C1056.49 405.38 1055 403.89 1055 402.04C1055 400.19 1056.49 398.69 1058.34 398.69Z" id="b1c2p58luj"></path><path d="M1035 398.69C1036.85 398.69 1038.34 400.19 1038.34 402.04C1038.34 403.89 1036.85 405.38 1035 405.38C1033.15 405.38 1031.66 403.89 1031.66 402.04C1031.66 400.19 1033.15 398.69 1035 398.69Z" id="ceAfmIzas"></path><path d="M1035 398.69C1036.85 398.69 1038.34 400.19 1038.34 402.04C1038.34 403.89 1036.85 405.38 1035 405.38C1033.15 405.38 1031.66 403.89 1031.66 402.04C1031.66 400.19 1033.15 398.69 1035 398.69Z" id="bdROmv2vL"></path><path d="M1011.68 398.69C1013.52 398.69 1015.02 400.19 1015.02 402.04C1015.02 403.89 1013.52 405.38 1011.68 405.38C1009.83 405.38 1008.34 403.89 1008.34 402.04C1008.34 400.19 1009.83 398.69 1011.68 398.69Z" id="a11a4zDe0Y"></path><path d="M1011.68 398.69C1013.52 398.69 1015.02 400.19 1015.02 402.04C1015.02 403.89 1013.52 405.38 1011.68 405.38C1009.83 405.38 1008.34 403.89 1008.34 402.04C1008.34 400.19 1009.83 398.69 1011.68 398.69Z" id="d2sM2wSRY"></path><path d="M988.34 398.69C990.19 398.69 991.68 400.19 991.68 402.04C991.68 403.89 990.19 405.38 988.34 405.38C986.5 405.38 985 403.89 985 402.04C985 400.19 986.5 398.69 988.34 398.69Z" id="e1qv2SS6nx"></path><path d="M988.34 398.69C990.19 398.69 991.68 400.19 991.68 402.04C991.68 403.89 990.19 405.38 988.34 405.38C986.5 405.38 985 403.89 985 402.04C985 400.19 986.5 398.69 988.34 398.69Z" id="a4sGrApHAp"></path><path d="M397.82 143.5C399.67 143.5 401.16 145 401.16 146.84C401.16 148.69 399.67 150.19 397.82 150.19C395.97 150.19 394.48 148.69 394.48 146.84C394.48 145 395.97 143.5 397.82 143.5Z" id="c8BluPvS8"></path><path d="M397.82 143.5C399.67 143.5 401.16 145 401.16 146.84C401.16 148.69 399.67 150.19 397.82 150.19C395.97 150.19 394.48 148.69 394.48 146.84C394.48 145 395.97 143.5 397.82 143.5Z" id="a6Lx40WZ9U"></path><path d="M374.5 143.5C376.34 143.5 377.84 145 377.84 146.84C377.84 148.69 376.34 150.19 374.5 150.19C372.65 150.19 371.16 148.69 371.16 146.84C371.16 145 372.65 143.5 374.5 143.5Z" id="bzEAAHvx7"></path><path d="M374.5 143.5C376.34 143.5 377.84 145 377.84 146.84C377.84 148.69 376.34 150.19 374.5 150.19C372.65 150.19 371.16 148.69 371.16 146.84C371.16 145 372.65 143.5 374.5 143.5Z" id="c9iENyhLS"></path><path d="M351.16 143.5C353.01 143.5 354.5 145 354.5 146.84C354.5 148.69 353.01 150.19 351.16 150.19C349.32 150.19 347.82 148.69 347.82 146.84C347.82 145 349.32 143.5 351.16 143.5Z" id="b44EGcEcb"></path><path d="M351.16 143.5C353.01 143.5 354.5 145 354.5 146.84C354.5 148.69 353.01 150.19 351.16 150.19C349.32 150.19 347.82 148.69 347.82 146.84C347.82 145 349.32 143.5 351.16 143.5Z" id="eZeFYbNzq"></path><path d="M397.82 166.87C399.67 166.87 401.16 168.37 401.16 170.21C401.16 172.06 399.67 173.56 397.82 173.56C395.98 173.56 394.48 172.06 394.48 170.21C394.48 168.37 395.98 166.87 397.82 166.87Z" id="bEwKXy4rC"></path><path d="M397.82 166.87C399.67 166.87 401.16 168.37 401.16 170.21C401.16 172.06 399.67 173.56 397.82 173.56C395.98 173.56 394.48 172.06 394.48 170.21C394.48 168.37 395.98 166.87 397.82 166.87Z" id="b7wrGf4PV"></path><path d="M374.5 166.87C376.34 166.87 377.84 168.37 377.84 170.21C377.84 172.06 376.34 173.56 374.5 173.56C372.65 173.56 371.16 172.06 371.16 170.21C371.16 168.37 372.65 166.87 374.5 166.87Z" id="amKOzSU86"></path><path d="M374.5 166.87C376.34 166.87 377.84 168.37 377.84 170.21C377.84 172.06 376.34 173.56 374.5 173.56C372.65 173.56 371.16 172.06 371.16 170.21C371.16 168.37 372.65 166.87 374.5 166.87Z" id="b18VgoBnlR"></path><path d="M351.16 166.87C353.01 166.87 354.5 168.37 354.5 170.21C354.5 172.06 353.01 173.56 351.16 173.56C349.32 173.56 347.82 172.06 347.82 170.21C347.82 168.37 349.32 166.87 351.16 166.87Z" id="b1a13NQZ5Q"></path><path d="M351.16 166.87C353.01 166.87 354.5 168.37 354.5 170.21C354.5 172.06 353.01 173.56 351.16 173.56C349.32 173.56 347.82 172.06 347.82 170.21C347.82 168.37 349.32 166.87 351.16 166.87Z" id="b1zJPesyyi"></path><path d="M17.34 326.59C19.19 326.59 20.68 328.08 20.68 329.93C20.68 331.78 19.19 333.28 17.34 333.28C15.5 333.28 14 331.78 14 329.93C14 328.08 15.5 326.59 17.34 326.59Z" id="a4eeW8jkH7"></path><path d="M17.34 326.59C19.19 326.59 20.68 328.08 20.68 329.93C20.68 331.78 19.19 333.28 17.34 333.28C15.5 333.28 14 331.78 14 329.93C14 328.08 15.5 326.59 17.34 326.59Z" id="aeKMjDMNi"></path><path d="M17.34 349.96C19.19 349.96 20.68 351.45 20.68 353.3C20.68 355.15 19.19 356.65 17.34 356.65C15.5 356.65 14 355.15 14 353.3C14 351.45 15.5 349.96 17.34 349.96Z" id="azkbd6Ev8"></path><path d="M17.34 349.96C19.19 349.96 20.68 351.45 20.68 353.3C20.68 355.15 19.19 356.65 17.34 356.65C15.5 356.65 14 355.15 14 353.3C14 351.45 15.5 349.96 17.34 349.96Z" id="e3YyB8Dtgp"></path><path d="M17.34 373.31C19.19 373.31 20.68 374.81 20.68 376.65C20.68 378.5 19.19 380 17.34 380C15.5 380 14 378.5 14 376.65C14 374.81 15.5 373.31 17.34 373.31Z" id="b6viwOPAj"></path><path d="M17.34 373.31C19.19 373.31 20.68 374.81 20.68 376.65C20.68 378.5 19.19 380 17.34 380C15.5 380 14 378.5 14 376.65C14 374.81 15.5 373.31 17.34 373.31Z" id="g3yawLD6CC"></path><path d="M17.34 396.68C19.19 396.68 20.68 398.18 20.68 400.03C20.68 401.87 19.19 403.37 17.34 403.37C15.5 403.37 14 401.87 14 400.03C14 398.18 15.5 396.68 17.34 396.68Z" id="ceTAQZ133"></path><path d="M17.34 396.68C19.19 396.68 20.68 398.18 20.68 400.03C20.68 401.87 19.19 403.37 17.34 403.37C15.5 403.37 14 401.87 14 400.03C14 398.18 15.5 396.68 17.34 396.68Z" id="b9l9xMcSg"></path><path d="M40.68 326.59C42.52 326.59 44.02 328.08 44.02 329.93C44.02 331.78 42.52 333.28 40.68 333.28C38.83 333.28 37.34 331.78 37.34 329.93C37.34 328.08 38.83 326.59 40.68 326.59Z" id="c8YLSii9Tj"></path><path d="M40.68 326.59C42.52 326.59 44.02 328.08 44.02 329.93C44.02 331.78 42.52 333.28 40.68 333.28C38.83 333.28 37.34 331.78 37.34 329.93C37.34 328.08 38.83 326.59 40.68 326.59Z" id="d19hdQeGk3"></path><path d="M40.68 349.96C42.52 349.96 44.02 351.45 44.02 353.3C44.02 355.15 42.52 356.65 40.68 356.65C38.83 356.65 37.34 355.15 37.34 353.3C37.34 351.45 38.83 349.96 40.68 349.96Z" id="dPs8Ys79g"></path><path d="M40.68 349.96C42.52 349.96 44.02 351.45 44.02 353.3C44.02 355.15 42.52 356.65 40.68 356.65C38.83 356.65 37.34 355.15 37.34 353.3C37.34 351.45 38.83 349.96 40.68 349.96Z" id="b1qjZfElzb"></path><path d="M40.68 373.31C42.52 373.31 44.02 374.81 44.02 376.65C44.02 378.5 42.52 380 40.68 380C38.83 380 37.34 378.5 37.34 376.65C37.34 374.81 38.83 373.31 40.68 373.31Z" id="bqmXoC4px"></path><path d="M40.68 373.31C42.52 373.31 44.02 374.81 44.02 376.65C44.02 378.5 42.52 380 40.68 380C38.83 380 37.34 378.5 37.34 376.65C37.34 374.81 38.83 373.31 40.68 373.31Z" id="b9MRvw6O5"></path><path d="M40.68 396.68C42.52 396.68 44.02 398.18 44.02 400.03C44.02 401.87 42.52 403.37 40.68 403.37C38.83 403.37 37.34 401.87 37.34 400.03C37.34 398.18 38.83 396.68 40.68 396.68Z" id="b2wX1Q4GM"></path><path d="M40.68 396.68C42.52 396.68 44.02 398.18 44.02 400.03C44.02 401.87 42.52 403.37 40.68 403.37C38.83 403.37 37.34 401.87 37.34 400.03C37.34 398.18 38.83 396.68 40.68 396.68Z" id="abjbgl6"></path><path d="M64 326.59C65.85 326.59 67.34 328.08 67.34 329.93C67.34 331.78 65.85 333.28 64 333.28C62.16 333.28 60.66 331.78 60.66 329.93C60.66 328.08 62.16 326.59 64 326.59Z" id="fFj5YO1tB"></path><path d="M64 326.59C65.85 326.59 67.34 328.08 67.34 329.93C67.34 331.78 65.85 333.28 64 333.28C62.16 333.28 60.66 331.78 60.66 329.93C60.66 328.08 62.16 326.59 64 326.59Z" id="b9m1FpQKi"></path><path d="M64 349.96C65.85 349.96 67.34 351.45 67.34 353.3C67.34 355.15 65.85 356.65 64 356.65C62.16 356.65 60.66 355.15 60.66 353.3C60.66 351.45 62.16 349.96 64 349.96Z" id="fk0JcrVEm"></path><path d="M64 349.96C65.85 349.96 67.34 351.45 67.34 353.3C67.34 355.15 65.85 356.65 64 356.65C62.16 356.65 60.66 355.15 60.66 353.3C60.66 351.45 62.16 349.96 64 349.96Z" id="cLMInhB4E"></path><path d="M64 373.31C65.85 373.31 67.34 374.81 67.34 376.65C67.34 378.5 65.85 380 64 380C62.16 380 60.66 378.5 60.66 376.65C60.66 374.81 62.16 373.31 64 373.31Z" id="bw6yVybb1"></path><path d="M64 373.31C65.85 373.31 67.34 374.81 67.34 376.65C67.34 378.5 65.85 380 64 380C62.16 380 60.66 378.5 60.66 376.65C60.66 374.81 62.16 373.31 64 373.31Z" id="bqKgFQdG5"></path><path d="M64 396.68C65.85 396.68 67.34 398.18 67.34 400.03C67.34 401.87 65.85 403.37 64 403.37C62.16 403.37 60.66 401.87 60.66 400.03C60.66 398.18 62.16 396.68 64 396.68Z" id="h6FEPidoIE"></path><path d="M64 396.68C65.85 396.68 67.34 398.18 67.34 400.03C67.34 401.87 65.85 403.37 64 403.37C62.16 403.37 60.66 401.87 60.66 400.03C60.66 398.18 62.16 396.68 64 396.68Z" id="itBdBZbq"></path><path d="M87.34 326.59C89.18 326.59 90.68 328.08 90.68 329.93C90.68 331.78 89.18 333.28 87.34 333.28C85.49 333.28 84 331.78 84 329.93C84 328.08 85.49 326.59 87.34 326.59Z" id="b1nsvlRPFK"></path><path d="M87.34 326.59C89.18 326.59 90.68 328.08 90.68 329.93C90.68 331.78 89.18 333.28 87.34 333.28C85.49 333.28 84 331.78 84 329.93C84 328.08 85.49 326.59 87.34 326.59Z" id="b1PjqYElM8"></path><path d="M87.34 349.96C89.19 349.96 90.68 351.45 90.68 353.3C90.68 355.15 89.19 356.65 87.34 356.65C85.49 356.65 84 355.15 84 353.3C84 351.45 85.49 349.96 87.34 349.96Z" id="eiYiEZmIj"></path><path d="M87.34 349.96C89.19 349.96 90.68 351.45 90.68 353.3C90.68 355.15 89.19 356.65 87.34 356.65C85.49 356.65 84 355.15 84 353.3C84 351.45 85.49 349.96 87.34 349.96Z" id="aKaRYLLV"></path><path d="M87.34 373.31C89.19 373.31 90.68 374.81 90.68 376.65C90.68 378.5 89.19 380 87.34 380C85.49 380 84 378.5 84 376.65C84 374.81 85.49 373.31 87.34 373.31Z" id="b1VRIApPgk"></path><path d="M87.34 373.31C89.19 373.31 90.68 374.81 90.68 376.65C90.68 378.5 89.19 380 87.34 380C85.49 380 84 378.5 84 376.65C84 374.81 85.49 373.31 87.34 373.31Z" id="c1gZ3c7K9k"></path><path d="M87.34 396.68C89.19 396.68 90.68 398.18 90.68 400.03C90.68 401.87 89.19 403.37 87.34 403.37C85.49 403.37 84 401.87 84 400.03C84 398.18 85.49 396.68 87.34 396.68Z" id="e1a9dE6eQ"></path><path d="M87.34 396.68C89.19 396.68 90.68 398.18 90.68 400.03C90.68 401.87 89.19 403.37 87.34 403.37C85.49 403.37 84 401.87 84 400.03C84 398.18 85.49 396.68 87.34 396.68Z" id="cdylBFAmT"></path></defs><g><g><g><use xlink:href="#dbV0g5L7O" opacity="1" fill="#000000" fill-opacity="0"></use><g><use xlink:href="#dbV0g5L7O" opacity="1" fill-opacity="0" stroke="#000000" stroke-width="1" stroke-opacity="0"></use></g></g><g><use xlink:href="#aC7SSDRtg" opacity="1" fill="#000000" fill-opacity="0"></use><g><use xlink:href="#aC7SSDRtg" opacity="1" fill-opacity="0" stroke="#04d361" stroke-width="3" stroke-opacity="1"></use></g></g><g><use xlink:href="#b59MxDvJvL" opacity="1" fill="#000000" fill-opacity="0"></use><g><use xlink:href="#b59MxDvJvL" opacity="1" fill-opacity="0" stroke="#000000" stroke-width="1" stroke-opacity="0"></use></g></g><g><use xlink:href="#gUdF4SIoX" opacity="1" fill="#000000" fill-opacity="0"></use><g><use xlink:href="#gUdF4SIoX" opacity="1" fill-opacity="0" stroke="#04d361" stroke-width="3" stroke-opacity="1"></use></g></g><g><use xlink:href="#b1UsZrQxrv" opacity="1" fill="#000000" fill-opacity="0"></use><g><use xlink:href="#b1UsZrQxrv" opacity="1" fill-opacity="0" stroke="#000000" stroke-width="1" stroke-opacity="0"></use></g></g><g><use xlink:href="#f3thNqMik" opacity="1" fill="#000000" fill-opacity="0"></use><g><use xlink:href="#f3thNqMik" opacity="1" fill-opacity="0" stroke="#04d361" stroke-width="3" stroke-opacity="1"></use></g></g><g><use xlink:href="#amizSEJa4" opacity="1" fill="#000000" fill-opacity="0"></use><g><use xlink:href="#amizSEJa4" opacity="1" fill-opacity="0" stroke="#000000" stroke-width="1" stroke-opacity="0"></use></g></g><g><use xlink:href="#c2T9pglt6t" opacity="1" fill="#000000" fill-opacity="0"></use><g><use xlink:href="#c2T9pglt6t" opacity="1" fill-opacity="0" stroke="#04d361" stroke-width="3" stroke-opacity="1"></use></g></g><g><use xlink:href="#aDjD51aVL" opacity="1" fill="#000000" fill-opacity="0"></use><g><use xlink:href="#aDjD51aVL" opacity="1" fill-opacity="0" stroke="#000000" stroke-width="1" stroke-opacity="0"></use></g></g><g><use xlink:href="#cfeqcN06V" opacity="1" fill="#000000" fill-opacity="0"></use><g><use xlink:href="#cfeqcN06V" opacity="1" fill-opacity="0" stroke="#04d361" stroke-width="3" stroke-opacity="1"></use></g></g><g><use xlink:href="#moyntogvb" opacity="1" fill="#000000" fill-opacity="0"></use><g><use xlink:href="#moyntogvb" opacity="1" fill-opacity="0" stroke="#000000" stroke-width="1" stroke-opacity="0"></use></g></g><g><use xlink:href="#b3F8PmTG9" opacity="1" fill="#000000" fill-opacity="0"></use><g><use xlink:href="#b3F8PmTG9" opacity="1" fill-opacity="0" stroke="#04d361" stroke-width="3" stroke-opacity="1"></use></g></g><g><use xlink:href="#b306Ok5iWy" opacity="1" fill="#000000" fill-opacity="0"></use><g><use xlink:href="#b306Ok5iWy" opacity="1" fill-opacity="0" stroke="#000000" stroke-width="1" stroke-opacity="0"></use></g></g><g><use xlink:href="#cwBKBsSVA" opacity="1" fill="#000000" fill-opacity="0"></use><g><use xlink:href="#cwBKBsSVA" opacity="1" fill-opacity="0" stroke="#04d361" stroke-width="3" stroke-opacity="1"></use></g></g><g><use xlink:href="#a2oDpZ3IHC" opacity="1" fill="#9871f5" fill-opacity="1"></use><g><use xlink:href="#a2oDpZ3IHC" opacity="1" fill-opacity="0" stroke="#000000" stroke-width="1" stroke-opacity="0"></use></g></g><g><use xlink:href="#gboK54SR" opacity="1" fill="#000000" fill-opacity="0"></use><g><use xlink:href="#gboK54SR" opacity="1" fill-opacity="0" stroke="#000000" stroke-width="1" stroke-opacity="0"></use></g></g><g><use xlink:href="#b3qGY9rcuP" opacity="1" fill="#9871f5" fill-opacity="1"></use><g><use xlink:href="#b3qGY9rcuP" opacity="1" fill-opacity="0" stroke="#000000" stroke-width="1" stroke-opacity="0"></use></g></g><g><use xlink:href="#bSdF9HeaX" opacity="1" fill="#000000" fill-opacity="0"></use><g><use xlink:href="#bSdF9HeaX" opacity="1" fill-opacity="0" stroke="#000000" stroke-width="1" stroke-opacity="0"></use></g></g><g><use xlink:href="#avgthmQDn" opacity="1" fill="#9871f5" fill-opacity="1"></use><g><use xlink:href="#avgthmQDn" opacity="1" fill-opacity="0" stroke="#000000" stroke-width="1" stroke-opacity="0"></use></g></g><g><use xlink:href="#a2pF8zjJk9" opacity="1" fill="#000000" fill-opacity="0"></use><g><use xlink:href="#a2pF8zjJk9" opacity="1" fill-opacity="0" stroke="#000000" stroke-width="1" stroke-opacity="0"></use></g></g><g><use xlink:href="#aGZD9I1OA" opacity="1" fill="#9871f5" fill-opacity="1"></use><g><use xlink:href="#aGZD9I1OA" opacity="1" fill-opacity="0" stroke="#000000" stroke-width="1" stroke-opacity="0"></use></g></g><g><use xlink:href="#btKrtVsaK" opacity="1" fill="#000000" fill-opacity="0"></use><g><use xlink:href="#btKrtVsaK" opacity="1" fill-opacity="0" stroke="#000000" stroke-width="1" stroke-opacity="0"></use></g></g><g><use xlink:href="#bKNXoaGGs" opacity="1" fill="#9871f5" fill-opacity="1"></use><g><use xlink:href="#bKNXoaGGs" opacity="1" fill-opacity="0" stroke="#000000" stroke-width="1" stroke-opacity="0"></use></g></g><g><use xlink:href="#dppeDMREO" opacity="1" fill="#000000" fill-opacity="0"></use><g><use xlink:href="#dppeDMREO" opacity="1" fill-opacity="0" stroke="#000000" stroke-width="1" stroke-opacity="0"></use></g></g><g><use xlink:href="#l4xUftY1SU" opacity="1" fill="#9871f5" fill-opacity="1"></use><g><use xlink:href="#l4xUftY1SU" opacity="1" fill-opacity="0" stroke="#000000" stroke-width="1" stroke-opacity="0"></use></g></g><g><use xlink:href="#j1EUutu4Py" opacity="1" fill="#000000" fill-opacity="0"></use><g><use xlink:href="#j1EUutu4Py" opacity="1" fill-opacity="0" stroke="#000000" stroke-width="1" stroke-opacity="0"></use></g></g><g><use xlink:href="#bCHefg1e1" opacity="1" fill="#9871f5" fill-opacity="1"></use><g><use xlink:href="#bCHefg1e1" opacity="1" fill-opacity="0" stroke="#000000" stroke-width="1" stroke-opacity="0"></use></g></g><g><use xlink:href="#o1KsEZpOyY" opacity="1" fill="#000000" fill-opacity="0"></use><g><use xlink:href="#o1KsEZpOyY" opacity="1" fill-opacity="0" stroke="#000000" stroke-width="1" stroke-opacity="0"></use></g></g><g><use xlink:href="#bvtxggiqy" opacity="1" fill="#9871f5" fill-opacity="1"></use><g><use xlink:href="#bvtxggiqy" opacity="1" fill-opacity="0" stroke="#000000" stroke-width="1" stroke-opacity="0"></use></g></g><g><use xlink:href="#agyud6vP4" opacity="1" fill="#000000" fill-opacity="0"></use><g><use xlink:href="#agyud6vP4" opacity="1" fill-opacity="0" stroke="#000000" stroke-width="1" stroke-opacity="0"></use></g></g><g><use xlink:href="#a5Gmbh0ST" opacity="1" fill="#9871f5" fill-opacity="1"></use><g><use xlink:href="#a5Gmbh0ST" opacity="1" fill-opacity="0" stroke="#000000" stroke-width="1" stroke-opacity="0"></use></g></g><g><use xlink:href="#e393RtCexJ" opacity="1" fill="#000000" fill-opacity="0"></use><g><use xlink:href="#e393RtCexJ" opacity="1" fill-opacity="0" stroke="#000000" stroke-width="1" stroke-opacity="0"></use></g></g><g><use xlink:href="#b2i0FuGhwr" opacity="1" fill="#9871f5" fill-opacity="1"></use><g><use xlink:href="#b2i0FuGhwr" opacity="1" fill-opacity="0" stroke="#000000" stroke-width="1" stroke-opacity="0"></use></g></g><g><use xlink:href="#e1CYsHcK6h" opacity="1" fill="#000000" fill-opacity="0"></use><g><use xlink:href="#e1CYsHcK6h" opacity="1" fill-opacity="0" stroke="#000000" stroke-width="1" stroke-opacity="0"></use></g></g><g><use xlink:href="#h4LHKmd1Nv" opacity="1" fill="#9871f5" fill-opacity="1"></use><g><use xlink:href="#h4LHKmd1Nv" opacity="1" fill-opacity="0" stroke="#000000" stroke-width="1" stroke-opacity="0"></use></g></g><g><use xlink:href="#apJDl92S5" opacity="1" fill="#000000" fill-opacity="0"></use><g><use xlink:href="#apJDl92S5" opacity="1" fill-opacity="0" stroke="#000000" stroke-width="1" stroke-opacity="0"></use></g></g><g><use xlink:href="#lnpSiWMXH" opacity="1" fill="#9871f5" fill-opacity="1"></use><g><use xlink:href="#lnpSiWMXH" opacity="1" fill-opacity="0" stroke="#000000" stroke-width="1" stroke-opacity="0"></use></g></g><g><use xlink:href="#a1iP8kIlDT" opacity="1" fill="#000000" fill-opacity="0"></use><g><use xlink:href="#a1iP8kIlDT" opacity="1" fill-opacity="0" stroke="#000000" stroke-width="1" stroke-opacity="0"></use></g></g><g><use xlink:href="#b3IZJTzJlO" opacity="1" fill="#9871f5" fill-opacity="1"></use><g><use xlink:href="#b3IZJTzJlO" opacity="1" fill-opacity="0" stroke="#000000" stroke-width="1" stroke-opacity="0"></use></g></g><g><use xlink:href="#bmSFp4eJ7" opacity="1" fill="#000000" fill-opacity="0"></use><g><use xlink:href="#bmSFp4eJ7" opacity="1" fill-opacity="0" stroke="#000000" stroke-width="1" stroke-opacity="0"></use></g></g><g><use xlink:href="#a13NyigUqj" opacity="1" fill="#9871f5" fill-opacity="1"></use><g><use xlink:href="#a13NyigUqj" opacity="1" fill-opacity="0" stroke="#000000" stroke-width="1" stroke-opacity="0"></use></g></g><g><use xlink:href="#bV9DgWXLl" opacity="1" fill="#000000" fill-opacity="0"></use><g><use xlink:href="#bV9DgWXLl" opacity="1" fill-opacity="0" stroke="#000000" stroke-width="1" stroke-opacity="0"></use></g></g><g><use xlink:href="#dhlWJRhQ9" opacity="1" fill="#9871f5" fill-opacity="1"></use><g><use xlink:href="#dhlWJRhQ9" opacity="1" fill-opacity="0" stroke="#000000" stroke-width="1" stroke-opacity="0"></use></g></g><g><use xlink:href="#gB5ERuzH9" opacity="1" fill="#000000" fill-opacity="0"></use><g><use xlink:href="#gB5ERuzH9" opacity="1" fill-opacity="0" stroke="#000000" stroke-width="1" stroke-opacity="0"></use></g></g><g><use xlink:href="#bEJkE1ZEf" opacity="1" fill="#9871f5" fill-opacity="1"></use><g><use xlink:href="#bEJkE1ZEf" opacity="1" fill-opacity="0" stroke="#000000" stroke-width="1" stroke-opacity="0"></use></g></g><g><use xlink:href="#a4osI8nxBB" opacity="1" fill="#000000" fill-opacity="0"></use><g><use xlink:href="#a4osI8nxBB" opacity="1" fill-opacity="0" stroke="#000000" stroke-width="1" stroke-opacity="0"></use></g></g><g><use xlink:href="#iVCkwGEJk" opacity="1" fill="#9871f5" fill-opacity="1"></use><g><use xlink:href="#iVCkwGEJk" opacity="1" fill-opacity="0" stroke="#000000" stroke-width="1" stroke-opacity="0"></use></g></g><g><use xlink:href="#e6npWACYbH" opacity="1" fill="#000000" fill-opacity="0"></use><g><use xlink:href="#e6npWACYbH" opacity="1" fill-opacity="0" stroke="#000000" stroke-width="1" stroke-opacity="0"></use></g></g><g><use xlink:href="#c3OZ0y5KA3" opacity="1" fill="#9871f5" fill-opacity="1"></use><g><use xlink:href="#c3OZ0y5KA3" opacity="1" fill-opacity="0" stroke="#000000" stroke-width="1" stroke-opacity="0"></use></g></g><g><use xlink:href="#a2AObVSP4p" opacity="1" fill="#000000" fill-opacity="0"></use><g><use xlink:href="#a2AObVSP4p" opacity="1" fill-opacity="0" stroke="#000000" stroke-width="1" stroke-opacity="0"></use></g></g><g><use xlink:href="#a4mWwz5LI" opacity="1" fill="#9871f5" fill-opacity="1"></use><g><use xlink:href="#a4mWwz5LI" opacity="1" fill-opacity="0" stroke="#000000" stroke-width="1" stroke-opacity="0"></use></g></g><g><use xlink:href="#e293Bgwwj6" opacity="1" fill="#000000" fill-opacity="0"></use><g><use xlink:href="#e293Bgwwj6" opacity="1" fill-opacity="0" stroke="#000000" stroke-width="1" stroke-opacity="0"></use></g></g><g><use xlink:href="#ej3s0ZFAB" opacity="1" fill="#9871f5" fill-opacity="1"></use><g><use xlink:href="#ej3s0ZFAB" opacity="1" fill-opacity="0" stroke="#000000" stroke-width="1" stroke-opacity="0"></use></g></g><g><use xlink:href="#a8iyGIST1q" opacity="1" fill="#000000" fill-opacity="0"></use><g><use xlink:href="#a8iyGIST1q" opacity="1" fill-opacity="0" stroke="#000000" stroke-width="1" stroke-opacity="0"></use></g></g><g><use xlink:href="#a54tPrRte" opacity="1" fill="#9871f5" fill-opacity="1"></use><g><use xlink:href="#a54tPrRte" opacity="1" fill-opacity="0" stroke="#000000" stroke-width="1" stroke-opacity="0"></use></g></g><g><use xlink:href="#b1c2p58luj" opacity="1" fill="#000000" fill-opacity="0"></use><g><use xlink:href="#b1c2p58luj" opacity="1" fill-opacity="0" stroke="#000000" stroke-width="1" stroke-opacity="0"></use></g></g><g><use xlink:href="#ceAfmIzas" opacity="1" fill="#9871f5" fill-opacity="1"></use><g><use xlink:href="#ceAfmIzas" opacity="1" fill-opacity="0" stroke="#000000" stroke-width="1" stroke-opacity="0"></use></g></g><g><use xlink:href="#bdROmv2vL" opacity="1" fill="#000000" fill-opacity="0"></use><g><use xlink:href="#bdROmv2vL" opacity="1" fill-opacity="0" stroke="#000000" stroke-width="1" stroke-opacity="0"></use></g></g><g><use xlink:href="#a11a4zDe0Y" opacity="1" fill="#9871f5" fill-opacity="1"></use><g><use xlink:href="#a11a4zDe0Y" opacity="1" fill-opacity="0" stroke="#000000" stroke-width="1" stroke-opacity="0"></use></g></g><g><use xlink:href="#d2sM2wSRY" opacity="1" fill="#000000" fill-opacity="0"></use><g><use xlink:href="#d2sM2wSRY" opacity="1" fill-opacity="0" stroke="#000000" stroke-width="1" stroke-opacity="0"></use></g></g><g><use xlink:href="#e1qv2SS6nx" opacity="1" fill="#9871f5" fill-opacity="1"></use><g><use xlink:href="#e1qv2SS6nx" opacity="1" fill-opacity="0" stroke="#000000" stroke-width="1" stroke-opacity="0"></use></g></g><g><use xlink:href="#a4sGrApHAp" opacity="1" fill="#000000" fill-opacity="0"></use><g><use xlink:href="#a4sGrApHAp" opacity="1" fill-opacity="0" stroke="#000000" stroke-width="1" stroke-opacity="0"></use></g></g><g><use xlink:href="#c8BluPvS8" opacity="1" fill="#9871f5" fill-opacity="1"></use><g><use xlink:href="#c8BluPvS8" opacity="1" fill-opacity="0" stroke="#000000" stroke-width="1" stroke-opacity="0"></use></g></g><g><use xlink:href="#a6Lx40WZ9U" opacity="1" fill="#000000" fill-opacity="0"></use><g><use xlink:href="#a6Lx40WZ9U" opacity="1" fill-opacity="0" stroke="#000000" stroke-width="1" stroke-opacity="0"></use></g></g><g><use xlink:href="#bzEAAHvx7" opacity="1" fill="#9871f5" fill-opacity="1"></use><g><use xlink:href="#bzEAAHvx7" opacity="1" fill-opacity="0" stroke="#000000" stroke-width="1" stroke-opacity="0"></use></g></g><g><use xlink:href="#c9iENyhLS" opacity="1" fill="#000000" fill-opacity="0"></use><g><use xlink:href="#c9iENyhLS" opacity="1" fill-opacity="0" stroke="#000000" stroke-width="1" stroke-opacity="0"></use></g></g><g><use xlink:href="#b44EGcEcb" opacity="1" fill="#9871f5" fill-opacity="1"></use><g><use xlink:href="#b44EGcEcb" opacity="1" fill-opacity="0" stroke="#000000" stroke-width="1" stroke-opacity="0"></use></g></g><g><use xlink:href="#eZeFYbNzq" opacity="1" fill="#000000" fill-opacity="0"></use><g><use xlink:href="#eZeFYbNzq" opacity="1" fill-opacity="0" stroke="#000000" stroke-width="1" stroke-opacity="0"></use></g></g><g><use xlink:href="#bEwKXy4rC" opacity="1" fill="#9871f5" fill-opacity="1"></use><g><use xlink:href="#bEwKXy4rC" opacity="1" fill-opacity="0" stroke="#000000" stroke-width="1" stroke-opacity="0"></use></g></g><g><use xlink:href="#b7wrGf4PV" opacity="1" fill="#000000" fill-opacity="0"></use><g><use xlink:href="#b7wrGf4PV" opacity="1" fill-opacity="0" stroke="#000000" stroke-width="1" stroke-opacity="0"></use></g></g><g><use xlink:href="#amKOzSU86" opacity="1" fill="#9871f5" fill-opacity="1"></use><g><use xlink:href="#amKOzSU86" opacity="1" fill-opacity="0" stroke="#000000" stroke-width="1" stroke-opacity="0"></use></g></g><g><use xlink:href="#b18VgoBnlR" opacity="1" fill="#000000" fill-opacity="0"></use><g><use xlink:href="#b18VgoBnlR" opacity="1" fill-opacity="0" stroke="#000000" stroke-width="1" stroke-opacity="0"></use></g></g><g><use xlink:href="#b1a13NQZ5Q" opacity="1" fill="#9871f5" fill-opacity="1"></use><g><use xlink:href="#b1a13NQZ5Q" opacity="1" fill-opacity="0" stroke="#000000" stroke-width="1" stroke-opacity="0"></use></g></g><g><use xlink:href="#b1zJPesyyi" opacity="1" fill="#000000" fill-opacity="0"></use><g><use xlink:href="#b1zJPesyyi" opacity="1" fill-opacity="0" stroke="#000000" stroke-width="1" stroke-opacity="0"></use></g></g><g><use xlink:href="#a4eeW8jkH7" opacity="1" fill="#9871f5" fill-opacity="1"></use><g><use xlink:href="#a4eeW8jkH7" opacity="1" fill-opacity="0" stroke="#000000" stroke-width="1" stroke-opacity="0"></use></g></g><g><use xlink:href="#aeKMjDMNi" opacity="1" fill="#000000" fill-opacity="0"></use><g><use xlink:href="#aeKMjDMNi" opacity="1" fill-opacity="0" stroke="#000000" stroke-width="1" stroke-opacity="0"></use></g></g><g><use xlink:href="#azkbd6Ev8" opacity="1" fill="#9871f5" fill-opacity="1"></use><g><use xlink:href="#azkbd6Ev8" opacity="1" fill-opacity="0" stroke="#000000" stroke-width="1" stroke-opacity="0"></use></g></g><g><use xlink:href="#e3YyB8Dtgp" opacity="1" fill="#000000" fill-opacity="0"></use><g><use xlink:href="#e3YyB8Dtgp" opacity="1" fill-opacity="0" stroke="#000000" stroke-width="1" stroke-opacity="0"></use></g></g><g><use xlink:href="#b6viwOPAj" opacity="1" fill="#9871f5" fill-opacity="1"></use><g><use xlink:href="#b6viwOPAj" opacity="1" fill-opacity="0" stroke="#000000" stroke-width="1" stroke-opacity="0"></use></g></g><g><use xlink:href="#g3yawLD6CC" opacity="1" fill="#000000" fill-opacity="0"></use><g><use xlink:href="#g3yawLD6CC" opacity="1" fill-opacity="0" stroke="#000000" stroke-width="1" stroke-opacity="0"></use></g></g><g><use xlink:href="#ceTAQZ133" opacity="1" fill="#9871f5" fill-opacity="1"></use><g><use xlink:href="#ceTAQZ133" opacity="1" fill-opacity="0" stroke="#000000" stroke-width="1" stroke-opacity="0"></use></g></g><g><use xlink:href="#b9l9xMcSg" opacity="1" fill="#000000" fill-opacity="0"></use><g><use xlink:href="#b9l9xMcSg" opacity="1" fill-opacity="0" stroke="#000000" stroke-width="1" stroke-opacity="0"></use></g></g><g><use xlink:href="#c8YLSii9Tj" opacity="1" fill="#9871f5" fill-opacity="1"></use><g><use xlink:href="#c8YLSii9Tj" opacity="1" fill-opacity="0" stroke="#000000" stroke-width="1" stroke-opacity="0"></use></g></g><g><use xlink:href="#d19hdQeGk3" opacity="1" fill="#000000" fill-opacity="0"></use><g><use xlink:href="#d19hdQeGk3" opacity="1" fill-opacity="0" stroke="#000000" stroke-width="1" stroke-opacity="0"></use></g></g><g><use xlink:href="#dPs8Ys79g" opacity="1" fill="#9871f5" fill-opacity="1"></use><g><use xlink:href="#dPs8Ys79g" opacity="1" fill-opacity="0" stroke="#000000" stroke-width="1" stroke-opacity="0"></use></g></g><g><use xlink:href="#b1qjZfElzb" opacity="1" fill="#000000" fill-opacity="0"></use><g><use xlink:href="#b1qjZfElzb" opacity="1" fill-opacity="0" stroke="#000000" stroke-width="1" stroke-opacity="0"></use></g></g><g><use xlink:href="#bqmXoC4px" opacity="1" fill="#9871f5" fill-opacity="1"></use><g><use xlink:href="#bqmXoC4px" opacity="1" fill-opacity="0" stroke="#000000" stroke-width="1" stroke-opacity="0"></use></g></g><g><use xlink:href="#b9MRvw6O5" opacity="1" fill="#000000" fill-opacity="0"></use><g><use xlink:href="#b9MRvw6O5" opacity="1" fill-opacity="0" stroke="#000000" stroke-width="1" stroke-opacity="0"></use></g></g><g><use xlink:href="#b2wX1Q4GM" opacity="1" fill="#9871f5" fill-opacity="1"></use><g><use xlink:href="#b2wX1Q4GM" opacity="1" fill-opacity="0" stroke="#000000" stroke-width="1" stroke-opacity="0"></use></g></g><g><use xlink:href="#abjbgl6" opacity="1" fill="#000000" fill-opacity="0"></use><g><use xlink:href="#abjbgl6" opacity="1" fill-opacity="0" stroke="#000000" stroke-width="1" stroke-opacity="0"></use></g></g><g><use xlink:href="#fFj5YO1tB" opacity="1" fill="#9871f5" fill-opacity="1"></use><g><use xlink:href="#fFj5YO1tB" opacity="1" fill-opacity="0" stroke="#000000" stroke-width="1" stroke-opacity="0"></use></g></g><g><use xlink:href="#b9m1FpQKi" opacity="1" fill="#000000" fill-opacity="0"></use><g><use xlink:href="#b9m1FpQKi" opacity="1" fill-opacity="0" stroke="#000000" stroke-width="1" stroke-opacity="0"></use></g></g><g><use xlink:href="#fk0JcrVEm" opacity="1" fill="#9871f5" fill-opacity="1"></use><g><use xlink:href="#fk0JcrVEm" opacity="1" fill-opacity="0" stroke="#000000" stroke-width="1" stroke-opacity="0"></use></g></g><g><use xlink:href="#cLMInhB4E" opacity="1" fill="#000000" fill-opacity="0"></use><g><use xlink:href="#cLMInhB4E" opacity="1" fill-opacity="0" stroke="#000000" stroke-width="1" stroke-opacity="0"></use></g></g><g><use xlink:href="#bw6yVybb1" opacity="1" fill="#9871f5" fill-opacity="1"></use><g><use xlink:href="#bw6yVybb1" opacity="1" fill-opacity="0" stroke="#000000" stroke-width="1" stroke-opacity="0"></use></g></g><g><use xlink:href="#bqKgFQdG5" opacity="1" fill="#000000" fill-opacity="0"></use><g><use xlink:href="#bqKgFQdG5" opacity="1" fill-opacity="0" stroke="#000000" stroke-width="1" stroke-opacity="0"></use></g></g><g><use xlink:href="#h6FEPidoIE" opacity="1" fill="#9871f5" fill-opacity="1"></use><g><use xlink:href="#h6FEPidoIE" opacity="1" fill-opacity="0" stroke="#000000" stroke-width="1" stroke-opacity="0"></use></g></g><g><use xlink:href="#itBdBZbq" opacity="1" fill="#000000" fill-opacity="0"></use><g><use xlink:href="#itBdBZbq" opacity="1" fill-opacity="0" stroke="#000000" stroke-width="1" stroke-opacity="0"></use></g></g><g><use xlink:href="#b1nsvlRPFK" opacity="1" fill="#9871f5" fill-opacity="1"></use><g><use xlink:href="#b1nsvlRPFK" opacity="1" fill-opacity="0" stroke="#000000" stroke-width="1" stroke-opacity="0"></use></g></g><g><use xlink:href="#b1PjqYElM8" opacity="1" fill="#000000" fill-opacity="0"></use><g><use xlink:href="#b1PjqYElM8" opacity="1" fill-opacity="0" stroke="#000000" stroke-width="1" stroke-opacity="0"></use></g></g><g><use xlink:href="#eiYiEZmIj" opacity="1" fill="#9871f5" fill-opacity="1"></use><g><use xlink:href="#eiYiEZmIj" opacity="1" fill-opacity="0" stroke="#000000" stroke-width="1" stroke-opacity="0"></use></g></g><g><use xlink:href="#aKaRYLLV" opacity="1" fill="#000000" fill-opacity="0"></use><g><use xlink:href="#aKaRYLLV" opacity="1" fill-opacity="0" stroke="#000000" stroke-width="1" stroke-opacity="0"></use></g></g><g><use xlink:href="#b1VRIApPgk" opacity="1" fill="#9871f5" fill-opacity="1"></use><g><use xlink:href="#b1VRIApPgk" opacity="1" fill-opacity="0" stroke="#000000" stroke-width="1" stroke-opacity="0"></use></g></g><g><use xlink:href="#c1gZ3c7K9k" opacity="1" fill="#000000" fill-opacity="0"></use><g><use xlink:href="#c1gZ3c7K9k" opacity="1" fill-opacity="0" stroke="#000000" stroke-width="1" stroke-opacity="0"></use></g></g><g><use xlink:href="#e1a9dE6eQ" opacity="1" fill="#9871f5" fill-opacity="1"></use><g><use xlink:href="#e1a9dE6eQ" opacity="1" fill-opacity="0" stroke="#000000" stroke-width="1" stroke-opacity="0"></use></g></g><g><use xlink:href="#cdylBFAmT" opacity="1" fill="#000000" fill-opacity="0"></use><g><use xlink:href="#cdylBFAmT" opacity="1" fill-opacity="0" stroke="#000000" stroke-width="1" stroke-opacity="0"></use></g></g></g></g></svg>