<?xml version="1.0" encoding="UTF-8" standalone="no"?>
<!DOCTYPE svg PUBLIC "-//W3C//DTD SVG 1.1//EN" "http://www.w3.org/Graphics/SVG/1.1/DTD/svg11.dtd">
<svg version="1.1" xmlns="http://www.w3.org/2000/svg" xmlns:xlink="http://www.w3.org/1999/xlink" preserveAspectRatio="xMidYMid meet" viewBox="0 0 1120 565" width="1120" height="565"><defs><path d="M1052.27 73.44L1063 84.19" id="acY4jKjDt"></path><path d="M1052.27 73.44L1063 84.19" id="affUdMP7C"></path><path d="M1063 73.44L1052.27 84.19" id="f3ooiUps6a"></path><path d="M1063 73.44L1052.27 84.19" id="e17M3WktrW"></path><path d="M746.44 308.87L757.18 319.62" id="c16Xr2m1fb"></path><path d="M746.44 308.87L757.18 319.62" id="jeEiRwGzp"></path><path d="M757.18 308.87L746.44 319.62" id="b1TzQgGdxz"></path><path d="M757.18 308.87L746.44 319.62" id="i9eZBFrCNl"></path><path d="M361.95 349.37L361.95 364.57" id="atKHJ4MHT"></path><path d="M361.95 349.37L361.95 364.57" id="acouPQ6hh"></path><path d="M369.56 356.97L354.36 356.97" id="a2yDJwUbhw"></path><path d="M369.56 356.97L354.36 356.97" id="lzbYqW1rG"></path><path d="M614.81 398.83C614.81 393.74 618.93 389.59 624.04 389.59C629.14 389.61 633.26 393.74 633.26 398.83C633.26 403.92 629.14 408.06 624.04 408.06C618.95 408.06 614.81 403.93 614.81 398.83Z" id="f1ojimH7ne"></path><path d="M614.81 398.83C614.81 393.74 618.93 389.59 624.04 389.59C629.14 389.61 633.26 393.74 633.26 398.83C633.26 403.92 629.14 408.06 624.04 408.06C618.95 408.06 614.81 403.93 614.81 398.83Z" id="a1foYrtNE6"></path><path d="M3.34 328.62C1.5 328.62 0 330.11 0 331.96C0 333.81 1.5 335.31 3.34 335.31C5.19 335.31 6.68 333.81 6.68 331.96C6.68 330.11 5.19 328.62 3.34 328.62Z" id="d2qkIwJOJq"></path><path d="M3.34 328.62C1.5 328.62 0 330.11 0 331.96C0 333.81 1.5 335.31 3.34 335.31C5.19 335.31 6.68 333.81 6.68 331.96C6.68 330.11 5.19 328.62 3.34 328.62Z" id="bHvyp9Tf5"></path><path d="M26.68 328.62C24.83 328.62 23.34 330.11 23.34 331.96C23.34 333.81 24.83 335.31 26.68 335.31C28.53 335.31 30.02 333.81 30.02 331.96C30.02 330.11 28.53 328.62 26.68 328.62Z" id="c4vOhMP7H"></path><path d="M26.68 328.62C24.83 328.62 23.34 330.11 23.34 331.96C23.34 333.81 24.83 335.31 26.68 335.31C28.53 335.31 30.02 333.81 30.02 331.96C30.02 330.11 28.53 328.62 26.68 328.62Z" id="dTuS4gYCH"></path><path d="M50 328.62C48.16 328.62 46.66 330.11 46.66 331.96C46.66 333.81 48.16 335.31 50 335.31C51.85 335.31 53.34 333.81 53.34 331.96C53.34 330.11 51.85 328.62 50 328.62Z" id="acrCAw0JC"></path><path d="M50 328.62C48.16 328.62 46.66 330.11 46.66 331.96C46.66 333.81 48.16 335.31 50 335.31C51.85 335.31 53.34 333.81 53.34 331.96C53.34 330.11 51.85 328.62 50 328.62Z" id="b302vNd6f6"></path><path d="M73.34 328.62C71.49 328.62 70 330.11 70 331.96C70 333.81 71.49 335.31 73.34 335.31C75.19 335.31 76.68 333.81 76.68 331.96C76.68 330.11 75.19 328.62 73.34 328.62Z" id="aMKdo328Z"></path><path d="M73.34 328.62C71.49 328.62 70 330.11 70 331.96C70 333.81 71.49 335.31 73.34 335.31C75.19 335.31 76.68 333.81 76.68 331.96C76.68 330.11 75.19 328.62 73.34 328.62Z" id="a1E8CqMmp"></path><path d="M96.66 328.62C94.82 328.62 93.32 330.11 93.32 331.96C93.32 333.81 94.82 335.31 96.66 335.31C98.51 335.31 100 333.81 100 331.96C100 330.11 98.51 328.62 96.66 328.62Z" id="b3N98GqzPx"></path><path d="M96.66 328.62C94.82 328.62 93.32 330.11 93.32 331.96C93.32 333.81 94.82 335.31 96.66 335.31C98.51 335.31 100 333.81 100 331.96C100 330.11 98.51 328.62 96.66 328.62Z" id="a1dIocBqa"></path><path d="M120 328.62C118.15 328.62 116.66 330.11 116.66 331.96C116.66 333.81 118.15 335.31 120 335.31C121.84 335.31 123.34 333.81 123.34 331.96C123.34 330.11 121.84 328.62 120 328.62Z" id="aXGiWDi2M"></path><path d="M120 328.62C118.15 328.62 116.66 330.11 116.66 331.96C116.66 333.81 118.15 335.31 120 335.31C121.84 335.31 123.34 333.81 123.34 331.96C123.34 330.11 121.84 328.62 120 328.62Z" id="cqEcheTf"></path><path d="M3.34 351.97C1.5 351.97 0 353.47 0 355.32C0 357.16 1.5 358.66 3.34 358.66C5.19 358.66 6.68 357.16 6.68 355.32C6.68 353.47 5.19 351.97 3.34 351.97Z" id="bxw61GPIE"></path><path d="M3.34 351.97C1.5 351.97 0 353.47 0 355.32C0 357.16 1.5 358.66 3.34 358.66C5.19 358.66 6.68 357.16 6.68 355.32C6.68 353.47 5.19 351.97 3.34 351.97Z" id="b1apwVDOYF"></path><path d="M26.68 351.97C24.83 351.97 23.34 353.47 23.34 355.32C23.34 357.16 24.83 358.66 26.68 358.66C28.53 358.66 30.02 357.16 30.02 355.32C30.02 353.47 28.53 351.97 26.68 351.97Z" id="f2dGh69ll7"></path><path d="M26.68 351.97C24.83 351.97 23.34 353.47 23.34 355.32C23.34 357.16 24.83 358.66 26.68 358.66C28.53 358.66 30.02 357.16 30.02 355.32C30.02 353.47 28.53 351.97 26.68 351.97Z" id="aDctczEPI"></path><path d="M50 351.97C48.16 351.97 46.66 353.47 46.66 355.32C46.66 357.16 48.16 358.66 50 358.66C51.85 358.66 53.34 357.16 53.34 355.32C53.34 353.47 51.85 351.97 50 351.97Z" id="b7ZNHVNLMz"></path><path d="M50 351.97C48.16 351.97 46.66 353.47 46.66 355.32C46.66 357.16 48.16 358.66 50 358.66C51.85 358.66 53.34 357.16 53.34 355.32C53.34 353.47 51.85 351.97 50 351.97Z" id="byBPM34P5"></path><path d="M73.34 351.97C71.49 351.97 70 353.47 70 355.32C70 357.16 71.49 358.66 73.34 358.66C75.19 358.66 76.68 357.16 76.68 355.32C76.68 353.47 75.19 351.97 73.34 351.97Z" id="a3jx1skji7"></path><path d="M73.34 351.97C71.49 351.97 70 353.47 70 355.32C70 357.16 71.49 358.66 73.34 358.66C75.19 358.66 76.68 357.16 76.68 355.32C76.68 353.47 75.19 351.97 73.34 351.97Z" id="kn0JQWSGW"></path><path d="M96.66 351.97C94.82 351.97 93.32 353.47 93.32 355.32C93.32 357.16 94.82 358.66 96.66 358.66C98.51 358.66 100 357.16 100 355.32C100 353.47 98.51 351.97 96.66 351.97Z" id="eBhe7lFAn"></path><path d="M96.66 351.97C94.82 351.97 93.32 353.47 93.32 355.32C93.32 357.16 94.82 358.66 96.66 358.66C98.51 358.66 100 357.16 100 355.32C100 353.47 98.51 351.97 96.66 351.97Z" id="iCqzW1fJ8"></path><path d="M120 351.97C118.15 351.97 116.66 353.47 116.66 355.32C116.66 357.16 118.15 358.66 120 358.66C121.84 358.66 123.34 357.16 123.34 355.32C123.34 353.47 121.84 351.97 120 351.97Z" id="c2JW7q2hgd"></path><path d="M120 351.97C118.15 351.97 116.66 353.47 116.66 355.32C116.66 357.16 118.15 358.66 120 358.66C121.84 358.66 123.34 357.16 123.34 355.32C123.34 353.47 121.84 351.97 120 351.97Z" id="bl9RncL4x"></path><path d="M3.34 375.34C1.5 375.34 0 376.84 0 378.69C0 380.53 1.5 382.03 3.34 382.03C5.19 382.03 6.68 380.53 6.68 378.69C6.68 376.84 5.19 375.34 3.34 375.34Z" id="a1RJLacyKE"></path><path d="M3.34 375.34C1.5 375.34 0 376.84 0 378.69C0 380.53 1.5 382.03 3.34 382.03C5.19 382.03 6.68 380.53 6.68 378.69C6.68 376.84 5.19 375.34 3.34 375.34Z" id="d77iIEjzP"></path><path d="M26.68 375.34C24.83 375.34 23.34 376.84 23.34 378.69C23.34 380.53 24.83 382.03 26.68 382.03C28.53 382.03 30.02 380.53 30.02 378.69C30.02 376.84 28.53 375.34 26.68 375.34Z" id="f3231GY3er"></path><path d="M26.68 375.34C24.83 375.34 23.34 376.84 23.34 378.69C23.34 380.53 24.83 382.03 26.68 382.03C28.53 382.03 30.02 380.53 30.02 378.69C30.02 376.84 28.53 375.34 26.68 375.34Z" id="b5kUFd8z2"></path><path d="M50 375.34C48.16 375.34 46.66 376.84 46.66 378.69C46.66 380.53 48.16 382.03 50 382.03C51.85 382.03 53.34 380.53 53.34 378.69C53.34 376.84 51.85 375.34 50 375.34Z" id="b9SL8geg6"></path><path d="M50 375.34C48.16 375.34 46.66 376.84 46.66 378.69C46.66 380.53 48.16 382.03 50 382.03C51.85 382.03 53.34 380.53 53.34 378.69C53.34 376.84 51.85 375.34 50 375.34Z" id="b1oZwNXpa"></path><path d="M73.34 375.34C71.49 375.34 70 376.84 70 378.69C70 380.53 71.49 382.03 73.34 382.03C75.19 382.03 76.68 380.53 76.68 378.69C76.68 376.84 75.19 375.34 73.34 375.34Z" id="b30Tc4o1Pi"></path><path d="M73.34 375.34C71.49 375.34 70 376.84 70 378.69C70 380.53 71.49 382.03 73.34 382.03C75.19 382.03 76.68 380.53 76.68 378.69C76.68 376.84 75.19 375.34 73.34 375.34Z" id="b2rEfwxByw"></path><path d="M96.66 375.34C94.82 375.34 93.32 376.84 93.32 378.69C93.32 380.53 94.82 382.03 96.66 382.03C98.51 382.03 100 380.53 100 378.69C100 376.84 98.51 375.34 96.66 375.34Z" id="a1iUexuIkp"></path><path d="M96.66 375.34C94.82 375.34 93.32 376.84 93.32 378.69C93.32 380.53 94.82 382.03 96.66 382.03C98.51 382.03 100 380.53 100 378.69C100 376.84 98.51 375.34 96.66 375.34Z" id="elaanEFKe"></path><path d="M120 375.34C118.15 375.34 116.66 376.84 116.66 378.69C116.66 380.53 118.15 382.03 120 382.03C121.84 382.03 123.34 380.53 123.34 378.69C123.34 376.84 121.84 375.34 120 375.34Z" id="f7Oq75a1I"></path><path d="M120 375.34C118.15 375.34 116.66 376.84 116.66 378.69C116.66 380.53 118.15 382.03 120 382.03C121.84 382.03 123.34 380.53 123.34 378.69C123.34 376.84 121.84 375.34 120 375.34Z" id="f1QAM4wDq2"></path><path d="M3.34 398.69C1.5 398.69 0 400.19 0 402.04C0 403.89 1.5 405.38 3.34 405.38C5.19 405.38 6.68 403.89 6.68 402.04C6.68 400.19 5.19 398.69 3.34 398.69Z" id="j2IBs2VmFw"></path><path d="M3.34 398.69C1.5 398.69 0 400.19 0 402.04C0 403.89 1.5 405.38 3.34 405.38C5.19 405.38 6.68 403.89 6.68 402.04C6.68 400.19 5.19 398.69 3.34 398.69Z" id="a231oQsvIN"></path><path d="M26.68 398.69C24.83 398.69 23.34 400.19 23.34 402.04C23.34 403.89 24.83 405.38 26.68 405.38C28.53 405.38 30.02 403.89 30.02 402.04C30.02 400.19 28.53 398.69 26.68 398.69Z" id="b1TFkTBYlU"></path><path d="M26.68 398.69C24.83 398.69 23.34 400.19 23.34 402.04C23.34 403.89 24.83 405.38 26.68 405.38C28.53 405.38 30.02 403.89 30.02 402.04C30.02 400.19 28.53 398.69 26.68 398.69Z" id="c2qNNSB01N"></path><path d="M50 398.69C48.16 398.69 46.66 400.19 46.66 402.04C46.66 403.89 48.16 405.38 50 405.38C51.85 405.38 53.34 403.89 53.34 402.04C53.34 400.19 51.85 398.69 50 398.69Z" id="d1DJgsQyrn"></path><path d="M50 398.69C48.16 398.69 46.66 400.19 46.66 402.04C46.66 403.89 48.16 405.38 50 405.38C51.85 405.38 53.34 403.89 53.34 402.04C53.34 400.19 51.85 398.69 50 398.69Z" id="aIa7PPkG"></path><path d="M73.34 398.69C71.49 398.69 70 400.19 70 402.04C70 403.89 71.49 405.38 73.34 405.38C75.19 405.38 76.68 403.89 76.68 402.04C76.68 400.19 75.19 398.69 73.34 398.69Z" id="c1wH2N3rgo"></path><path d="M73.34 398.69C71.49 398.69 70 400.19 70 402.04C70 403.89 71.49 405.38 73.34 405.38C75.19 405.38 76.68 403.89 76.68 402.04C76.68 400.19 75.19 398.69 73.34 398.69Z" id="agJgZOdGa"></path><path d="M96.66 398.69C94.82 398.69 93.32 400.19 93.32 402.04C93.32 403.89 94.82 405.38 96.66 405.38C98.51 405.38 100 403.89 100 402.04C100 400.19 98.51 398.69 96.66 398.69Z" id="fa28kcJOJ"></path><path d="M96.66 398.69C94.82 398.69 93.32 400.19 93.32 402.04C93.32 403.89 94.82 405.38 96.66 405.38C98.51 405.38 100 403.89 100 402.04C100 400.19 98.51 398.69 96.66 398.69Z" id="dBZLiTMO6"></path><path d="M120 398.69C118.15 398.69 116.66 400.19 116.66 402.04C116.66 403.89 118.15 405.38 120 405.38C121.84 405.38 123.34 403.89 123.34 402.04C123.34 400.19 121.84 398.69 120 398.69Z" id="c1DVr4l1mF"></path><path d="M120 398.69C118.15 398.69 116.66 400.19 116.66 402.04C116.66 403.89 118.15 405.38 120 405.38C121.84 405.38 123.34 403.89 123.34 402.04C123.34 400.19 121.84 398.69 120 398.69Z" id="a1abGVtnZ"></path><path d="M710.52 143.5C708.67 143.5 707.18 145 707.18 146.84C707.18 148.69 708.67 150.19 710.52 150.19C712.37 150.19 713.86 148.69 713.86 146.84C713.86 145 712.37 143.5 710.52 143.5Z" id="a20whrNrb9"></path><path d="M710.52 143.5C708.67 143.5 707.18 145 707.18 146.84C707.18 148.69 708.67 150.19 710.52 150.19C712.37 150.19 713.86 148.69 713.86 146.84C713.86 145 712.37 143.5 710.52 143.5Z" id="b2AImNE4Yw"></path><path d="M733.84 143.5C732 143.5 730.5 145 730.5 146.84C730.5 148.69 732 150.19 733.84 150.19C735.69 150.19 737.18 148.69 737.18 146.84C737.18 145 735.69 143.5 733.84 143.5Z" id="cC1emdGo3"></path><path d="M733.84 143.5C732 143.5 730.5 145 730.5 146.84C730.5 148.69 732 150.19 733.84 150.19C735.69 150.19 737.18 148.69 737.18 146.84C737.18 145 735.69 143.5 733.84 143.5Z" id="i1c3yliP5e"></path><path d="M757.18 143.5C755.33 143.5 753.84 145 753.84 146.84C753.84 148.69 755.33 150.19 757.18 150.19C759.02 150.19 760.52 148.69 760.52 146.84C760.52 145 759.02 143.5 757.18 143.5Z" id="bgdixbo9z"></path><path d="M757.18 143.5C755.33 143.5 753.84 145 753.84 146.84C753.84 148.69 755.33 150.19 757.18 150.19C759.02 150.19 760.52 148.69 760.52 146.84C760.52 145 759.02 143.5 757.18 143.5Z" id="e2vVCTZctQ"></path><path d="M710.52 166.87C708.67 166.87 707.18 168.37 707.18 170.21C707.18 172.06 708.67 173.56 710.52 173.56C712.36 173.56 713.86 172.06 713.86 170.21C713.86 168.37 712.36 166.87 710.52 166.87Z" id="a1vROwvV1m"></path><path d="M710.52 166.87C708.67 166.87 707.18 168.37 707.18 170.21C707.18 172.06 708.67 173.56 710.52 173.56C712.36 173.56 713.86 172.06 713.86 170.21C713.86 168.37 712.36 166.87 710.52 166.87Z" id="flcyqKxz1"></path><path d="M733.84 166.87C732 166.87 730.5 168.37 730.5 170.21C730.5 172.06 732 173.56 733.84 173.56C735.69 173.56 737.18 172.06 737.18 170.21C737.18 168.37 735.69 166.87 733.84 166.87Z" id="ebwY2N3E1"></path><path d="M733.84 166.87C732 166.87 730.5 168.37 730.5 170.21C730.5 172.06 732 173.56 733.84 173.56C735.69 173.56 737.18 172.06 737.18 170.21C737.18 168.37 735.69 166.87 733.84 166.87Z" id="bqwJBejoV"></path><path d="M757.18 166.87C755.33 166.87 753.84 168.37 753.84 170.21C753.84 172.06 755.33 173.56 757.18 173.56C759.02 173.56 760.52 172.06 760.52 170.21C760.52 168.37 759.02 166.87 757.18 166.87Z" id="a6eqw7iZX"></path><path d="M757.18 166.87C755.33 166.87 753.84 168.37 753.84 170.21C753.84 172.06 755.33 173.56 757.18 173.56C759.02 173.56 760.52 172.06 760.52 170.21C760.52 168.37 759.02 166.87 757.18 166.87Z" id="h1tsJj1aFf"></path><path d="M1105 326.59C1103.15 326.59 1101.66 328.08 1101.66 329.93C1101.66 331.78 1103.15 333.28 1105 333.28C1106.84 333.28 1108.34 331.78 1108.34 329.93C1108.34 328.08 1106.84 326.59 1105 326.59Z" id="bp7G2tBJi"></path><path d="M1105 326.59C1103.15 326.59 1101.66 328.08 1101.66 329.93C1101.66 331.78 1103.15 333.28 1105 333.28C1106.84 333.28 1108.34 331.78 1108.34 329.93C1108.34 328.08 1106.84 326.59 1105 326.59Z" id="e1enZIbzVz"></path><path d="M1105 349.96C1103.15 349.96 1101.66 351.45 1101.66 353.3C1101.66 355.15 1103.15 356.65 1105 356.65C1106.84 356.65 1108.34 355.15 1108.34 353.3C1108.34 351.45 1106.84 349.96 1105 349.96Z" id="a1uR7vuXcs"></path><path d="M1105 349.96C1103.15 349.96 1101.66 351.45 1101.66 353.3C1101.66 355.15 1103.15 356.65 1105 356.65C1106.84 356.65 1108.34 355.15 1108.34 353.3C1108.34 351.45 1106.84 349.96 1105 349.96Z" id="gyPVMcv8d"></path><path d="M1105 373.31C1103.15 373.31 1101.66 374.81 1101.66 376.65C1101.66 378.5 1103.15 380 1105 380C1106.84 380 1108.34 378.5 1108.34 376.65C1108.34 374.81 1106.84 373.31 1105 373.31Z" id="a7lu1naTlP"></path><path d="M1105 373.31C1103.15 373.31 1101.66 374.81 1101.66 376.65C1101.66 378.5 1103.15 380 1105 380C1106.84 380 1108.34 378.5 1108.34 376.65C1108.34 374.81 1106.84 373.31 1105 373.31Z" id="a1tyHyjGdW"></path><path d="M1105 396.68C1103.15 396.68 1101.66 398.18 1101.66 400.03C1101.66 401.87 1103.15 403.37 1105 403.37C1106.84 403.37 1108.34 401.87 1108.34 400.03C1108.34 398.18 1106.84 396.68 1105 396.68Z" id="a62kwNdUV"></path><path d="M1105 396.68C1103.15 396.68 1101.66 398.18 1101.66 400.03C1101.66 401.87 1103.15 403.37 1105 403.37C1106.84 403.37 1108.34 401.87 1108.34 400.03C1108.34 398.18 1106.84 396.68 1105 396.68Z" id="a1nSZxntY"></path><path d="M1081.66 326.59C1079.82 326.59 1078.32 328.08 1078.32 329.93C1078.32 331.78 1079.82 333.28 1081.66 333.28C1083.51 333.28 1085 331.78 1085 329.93C1085 328.08 1083.51 326.59 1081.66 326.59Z" id="b3CNcro2Ll"></path><path d="M1081.66 326.59C1079.82 326.59 1078.32 328.08 1078.32 329.93C1078.32 331.78 1079.82 333.28 1081.66 333.28C1083.51 333.28 1085 331.78 1085 329.93C1085 328.08 1083.51 326.59 1081.66 326.59Z" id="d1Hf5dECdf"></path><path d="M1081.66 349.96C1079.82 349.96 1078.32 351.45 1078.32 353.3C1078.32 355.15 1079.82 356.65 1081.66 356.65C1083.51 356.65 1085 355.15 1085 353.3C1085 351.45 1083.51 349.96 1081.66 349.96Z" id="h12pnZn8RO"></path><path d="M1081.66 349.96C1079.82 349.96 1078.32 351.45 1078.32 353.3C1078.32 355.15 1079.82 356.65 1081.66 356.65C1083.51 356.65 1085 355.15 1085 353.3C1085 351.45 1083.51 349.96 1081.66 349.96Z" id="c1enolJazA"></path><path d="M1081.66 373.31C1079.82 373.31 1078.32 374.81 1078.32 376.65C1078.32 378.5 1079.82 380 1081.66 380C1083.51 380 1085 378.5 1085 376.65C1085 374.81 1083.51 373.31 1081.66 373.31Z" id="f49DbDh4Z"></path><path d="M1081.66 373.31C1079.82 373.31 1078.32 374.81 1078.32 376.65C1078.32 378.5 1079.82 380 1081.66 380C1083.51 380 1085 378.5 1085 376.65C1085 374.81 1083.51 373.31 1081.66 373.31Z" id="a35wexZkU"></path><path d="M1081.66 396.68C1079.82 396.68 1078.32 398.18 1078.32 400.03C1078.32 401.87 1079.82 403.37 1081.66 403.37C1083.51 403.37 1085 401.87 1085 400.03C1085 398.18 1083.51 396.68 1081.66 396.68Z" id="e5U3ooTinU"></path><path d="M1081.66 396.68C1079.82 396.68 1078.32 398.18 1078.32 400.03C1078.32 401.87 1079.82 403.37 1081.66 403.37C1083.51 403.37 1085 401.87 1085 400.03C1085 398.18 1083.51 396.68 1081.66 396.68Z" id="b6c5aVHuFE"></path><path d="M1058.34 326.59C1056.49 326.59 1055 328.08 1055 329.93C1055 331.78 1056.49 333.28 1058.34 333.28C1060.18 333.28 1061.68 331.78 1061.68 329.93C1061.68 328.08 1060.18 326.59 1058.34 326.59Z" id="esCCQkFG"></path><path d="M1058.34 326.59C1056.49 326.59 1055 328.08 1055 329.93C1055 331.78 1056.49 333.28 1058.34 333.28C1060.18 333.28 1061.68 331.78 1061.68 329.93C1061.68 328.08 1060.18 326.59 1058.34 326.59Z" id="g1GFU4LNO4"></path><path d="M1058.34 349.96C1056.49 349.96 1055 351.45 1055 353.3C1055 355.15 1056.49 356.65 1058.34 356.65C1060.18 356.65 1061.68 355.15 1061.68 353.3C1061.68 351.45 1060.18 349.96 1058.34 349.96Z" id="cpfkheQFY"></path><path d="M1058.34 349.96C1056.49 349.96 1055 351.45 1055 353.3C1055 355.15 1056.49 356.65 1058.34 356.65C1060.18 356.65 1061.68 355.15 1061.68 353.3C1061.68 351.45 1060.18 349.96 1058.34 349.96Z" id="ask0gtqaN"></path><path d="M1058.34 373.31C1056.49 373.31 1055 374.81 1055 376.65C1055 378.5 1056.49 380 1058.34 380C1060.18 380 1061.68 378.5 1061.68 376.65C1061.68 374.81 1060.18 373.31 1058.34 373.31Z" id="bCkE38g47"></path><path d="M1058.34 373.31C1056.49 373.31 1055 374.81 1055 376.65C1055 378.5 1056.49 380 1058.34 380C1060.18 380 1061.68 378.5 1061.68 376.65C1061.68 374.81 1060.18 373.31 1058.34 373.31Z" id="b2Q1YrthSd"></path><path d="M1058.34 396.68C1056.49 396.68 1055 398.18 1055 400.03C1055 401.87 1056.49 403.37 1058.34 403.37C1060.18 403.37 1061.68 401.87 1061.68 400.03C1061.68 398.18 1060.18 396.68 1058.34 396.68Z" id="b6Hbt25vqE"></path><path d="M1058.34 396.68C1056.49 396.68 1055 398.18 1055 400.03C1055 401.87 1056.49 403.37 1058.34 403.37C1060.18 403.37 1061.68 401.87 1061.68 400.03C1061.68 398.18 1060.18 396.68 1058.34 396.68Z" id="b2oPoNJBVz"></path><path d="M1035 326.59C1033.16 326.59 1031.66 328.08 1031.66 329.93C1031.66 331.78 1033.16 333.28 1035 333.28C1036.85 333.28 1038.34 331.78 1038.34 329.93C1038.34 328.08 1036.85 326.59 1035 326.59Z" id="cfsMqlKO2"></path><path d="M1035 326.59C1033.16 326.59 1031.66 328.08 1031.66 329.93C1031.66 331.78 1033.16 333.28 1035 333.28C1036.85 333.28 1038.34 331.78 1038.34 329.93C1038.34 328.08 1036.85 326.59 1035 326.59Z" id="bze81oBGg"></path><path d="M1035 349.96C1033.15 349.96 1031.66 351.45 1031.66 353.3C1031.66 355.15 1033.15 356.65 1035 356.65C1036.85 356.65 1038.34 355.15 1038.34 353.3C1038.34 351.45 1036.85 349.96 1035 349.96Z" id="aDUDU5ycS"></path><path d="M1035 349.96C1033.15 349.96 1031.66 351.45 1031.66 353.3C1031.66 355.15 1033.15 356.65 1035 356.65C1036.85 356.65 1038.34 355.15 1038.34 353.3C1038.34 351.45 1036.85 349.96 1035 349.96Z" id="a9nkoH97u"></path><path d="M1035 373.31C1033.15 373.31 1031.66 374.81 1031.66 376.65C1031.66 378.5 1033.15 380 1035 380C1036.85 380 1038.34 378.5 1038.34 376.65C1038.34 374.81 1036.85 373.31 1035 373.31Z" id="d2XSRaEBYj"></path><path d="M1035 373.31C1033.15 373.31 1031.66 374.81 1031.66 376.65C1031.66 378.5 1033.15 380 1035 380C1036.85 380 1038.34 378.5 1038.34 376.65C1038.34 374.81 1036.85 373.31 1035 373.31Z" id="b1SkxgEsL"></path><path d="M1035 396.68C1033.15 396.68 1031.66 398.18 1031.66 400.03C1031.66 401.87 1033.15 403.37 1035 403.37C1036.85 403.37 1038.34 401.87 1038.34 400.03C1038.34 398.18 1036.85 396.68 1035 396.68Z" id="a3o5itDGp"></path><path d="M1035 396.68C1033.15 396.68 1031.66 398.18 1031.66 400.03C1031.66 401.87 1033.15 403.37 1035 403.37C1036.85 403.37 1038.34 401.87 1038.34 400.03C1038.34 398.18 1036.85 396.68 1035 396.68Z" id="anPdjVj0M"></path></defs><g><g><g><use xlink:href="#acY4jKjDt" opacity="1" fill="#000000" fill-opacity="0"></use><g><use xlink:href="#acY4jKjDt" opacity="1" fill-opacity="0" stroke="#000000" stroke-width="1" stroke-opacity="0"></use></g></g><g><use xlink:href="#affUdMP7C" opacity="1" fill="#000000" fill-opacity="0"></use><g><use xlink:href="#affUdMP7C" opacity="1" fill-opacity="0" stroke="#04d361" stroke-width="3" stroke-opacity="1"></use></g></g><g><use xlink:href="#f3ooiUps6a" opacity="1" fill="#000000" fill-opacity="0"></use><g><use xlink:href="#f3ooiUps6a" opacity="1" fill-opacity="0" stroke="#000000" stroke-width="1" stroke-opacity="0"></use></g></g><g><use xlink:href="#e17M3WktrW" opacity="1" fill="#000000" fill-opacity="0"></use><g><use xlink:href="#e17M3WktrW" opacity="1" fill-opacity="0" stroke="#04d361" stroke-width="3" stroke-opacity="1"></use></g></g><g><use xlink:href="#c16Xr2m1fb" opacity="1" fill="#000000" fill-opacity="0"></use><g><use xlink:href="#c16Xr2m1fb" opacity="1" fill-opacity="0" stroke="#000000" stroke-width="1" stroke-opacity="0"></use></g></g><g><use xlink:href="#jeEiRwGzp" opacity="1" fill="#000000" fill-opacity="0"></use><g><use xlink:href="#jeEiRwGzp" opacity="1" fill-opacity="0" stroke="#04d361" stroke-width="3" stroke-opacity="1"></use></g></g><g><use xlink:href="#b1TzQgGdxz" opacity="1" fill="#000000" fill-opacity="0"></use><g><use xlink:href="#b1TzQgGdxz" opacity="1" fill-opacity="0" stroke="#000000" stroke-width="1" stroke-opacity="0"></use></g></g><g><use xlink:href="#i9eZBFrCNl" opacity="1" fill="#000000" fill-opacity="0"></use><g><use xlink:href="#i9eZBFrCNl" opacity="1" fill-opacity="0" stroke="#04d361" stroke-width="3" stroke-opacity="1"></use></g></g><g><use xlink:href="#atKHJ4MHT" opacity="1" fill="#000000" fill-opacity="0"></use><g><use xlink:href="#atKHJ4MHT" opacity="1" fill-opacity="0" stroke="#000000" stroke-width="1" stroke-opacity="0"></use></g></g><g><use xlink:href="#acouPQ6hh" opacity="1" fill="#000000" fill-opacity="0"></use><g><use xlink:href="#acouPQ6hh" opacity="1" fill-opacity="0" stroke="#04d361" stroke-width="3" stroke-opacity="1"></use></g></g><g><use xlink:href="#a2yDJwUbhw" opacity="1" fill="#000000" fill-opacity="0"></use><g><use xlink:href="#a2yDJwUbhw" opacity="1" fill-opacity="0" stroke="#000000" stroke-width="1" stroke-opacity="0"></use></g></g><g><use xlink:href="#lzbYqW1rG" opacity="1" fill="#000000" fill-opacity="0"></use><g><use xlink:href="#lzbYqW1rG" opacity="1" fill-opacity="0" stroke="#04d361" stroke-width="3" stroke-opacity="1"></use></g></g><g><use xlink:href="#f1ojimH7ne" opacity="1" fill="#000000" fill-opacity="0"></use><g><use xlink:href="#f1ojimH7ne" opacity="1" fill-opacity="0" stroke="#000000" stroke-width="1" stroke-opacity="0"></use></g></g><g><use xlink:href="#a1foYrtNE6" opacity="1" fill="#000000" fill-opacity="0"></use><g><use xlink:href="#a1foYrtNE6" opacity="1" fill-opacity="0" stroke="#04d361" stroke-width="3" stroke-opacity="1"></use></g></g><g><use xlink:href="#d2qkIwJOJq" opacity="1" fill="#9871f5" fill-opacity="1"></use><g><use xlink:href="#d2qkIwJOJq" opacity="1" fill-opacity="0" stroke="#000000" stroke-width="1" stroke-opacity="0"></use></g></g><g><use xlink:href="#bHvyp9Tf5" opacity="1" fill="#000000" fill-opacity="0"></use><g><use xlink:href="#bHvyp9Tf5" opacity="1" fill-opacity="0" stroke="#000000" stroke-width="1" stroke-opacity="0"></use></g></g><g><use xlink:href="#c4vOhMP7H" opacity="1" fill="#9871f5" fill-opacity="1"></use><g><use xlink:href="#c4vOhMP7H" opacity="1" fill-opacity="0" stroke="#000000" stroke-width="1" stroke-opacity="0"></use></g></g><g><use xlink:href="#dTuS4gYCH" opacity="1" fill="#000000" fill-opacity="0"></use><g><use xlink:href="#dTuS4gYCH" opacity="1" fill-opacity="0" stroke="#000000" stroke-width="1" stroke-opacity="0"></use></g></g><g><use xlink:href="#acrCAw0JC" opacity="1" fill="#9871f5" fill-opacity="1"></use><g><use xlink:href="#acrCAw0JC" opacity="1" fill-opacity="0" stroke="#000000" stroke-width="1" stroke-opacity="0"></use></g></g><g><use xlink:href="#b302vNd6f6" opacity="1" fill="#000000" fill-opacity="0"></use><g><use xlink:href="#b302vNd6f6" opacity="1" fill-opacity="0" stroke="#000000" stroke-width="1" stroke-opacity="0"></use></g></g><g><use xlink:href="#aMKdo328Z" opacity="1" fill="#9871f5" fill-opacity="1"></use><g><use xlink:href="#aMKdo328Z" opacity="1" fill-opacity="0" stroke="#000000" stroke-width="1" stroke-opacity="0"></use></g></g><g><use xlink:href="#a1E8CqMmp" opacity="1" fill="#000000" fill-opacity="0"></use><g><use xlink:href="#a1E8CqMmp" opacity="1" fill-opacity="0" stroke="#000000" stroke-width="1" stroke-opacity="0"></use></g></g><g><use xlink:href="#b3N98GqzPx" opacity="1" fill="#9871f5" fill-opacity="1"></use><g><use xlink:href="#b3N98GqzPx" opacity="1" fill-opacity="0" stroke="#000000" stroke-width="1" stroke-opacity="0"></use></g></g><g><use xlink:href="#a1dIocBqa" opacity="1" fill="#000000" fill-opacity="0"></use><g><use xlink:href="#a1dIocBqa" opacity="1" fill-opacity="0" stroke="#000000" stroke-width="1" stroke-opacity="0"></use></g></g><g><use xlink:href="#aXGiWDi2M" opacity="1" fill="#9871f5" fill-opacity="1"></use><g><use xlink:href="#aXGiWDi2M" opacity="1" fill-opacity="0" stroke="#000000" stroke-width="1" stroke-opacity="0"></use></g></g><g><use xlink:href="#cqEcheTf" opacity="1" fill="#000000" fill-opacity="0"></use><g><use xlink:href="#cqEcheTf" opacity="1" fill-opacity="0" stroke="#000000" stroke-width="1" stroke-opacity="0"></use></g></g><g><use xlink:href="#bxw61GPIE" opacity="1" fill="#9871f5" fill-opacity="1"></use><g><use xlink:href="#bxw61GPIE" opacity="1" fill-opacity="0" stroke="#000000" stroke-width="1" stroke-opacity="0"></use></g></g><g><use xlink:href="#b1apwVDOYF" opacity="1" fill="#000000" fill-opacity="0"></use><g><use xlink:href="#b1apwVDOYF" opacity="1" fill-opacity="0" stroke="#000000" stroke-width="1" stroke-opacity="0"></use></g></g><g><use xlink:href="#f2dGh69ll7" opacity="1" fill="#9871f5" fill-opacity="1"></use><g><use xlink:href="#f2dGh69ll7" opacity="1" fill-opacity="0" stroke="#000000" stroke-width="1" stroke-opacity="0"></use></g></g><g><use xlink:href="#aDctczEPI" opacity="1" fill="#000000" fill-opacity="0"></use><g><use xlink:href="#aDctczEPI" opacity="1" fill-opacity="0" stroke="#000000" stroke-width="1" stroke-opacity="0"></use></g></g><g><use xlink:href="#b7ZNHVNLMz" opacity="1" fill="#9871f5" fill-opacity="1"></use><g><use xlink:href="#b7ZNHVNLMz" opacity="1" fill-opacity="0" stroke="#000000" stroke-width="1" stroke-opacity="0"></use></g></g><g><use xlink:href="#byBPM34P5" opacity="1" fill="#000000" fill-opacity="0"></use><g><use xlink:href="#byBPM34P5" opacity="1" fill-opacity="0" stroke="#000000" stroke-width="1" stroke-opacity="0"></use></g></g><g><use xlink:href="#a3jx1skji7" opacity="1" fill="#9871f5" fill-opacity="1"></use><g><use xlink:href="#a3jx1skji7" opacity="1" fill-opacity="0" stroke="#000000" stroke-width="1" stroke-opacity="0"></use></g></g><g><use xlink:href="#kn0JQWSGW" opacity="1" fill="#000000" fill-opacity="0"></use><g><use xlink:href="#kn0JQWSGW" opacity="1" fill-opacity="0" stroke="#000000" stroke-width="1" stroke-opacity="0"></use></g></g><g><use xlink:href="#eBhe7lFAn" opacity="1" fill="#9871f5" fill-opacity="1"></use><g><use xlink:href="#eBhe7lFAn" opacity="1" fill-opacity="0" stroke="#000000" stroke-width="1" stroke-opacity="0"></use></g></g><g><use xlink:href="#iCqzW1fJ8" opacity="1" fill="#000000" fill-opacity="0"></use><g><use xlink:href="#iCqzW1fJ8" opacity="1" fill-opacity="0" stroke="#000000" stroke-width="1" stroke-opacity="0"></use></g></g><g><use xlink:href="#c2JW7q2hgd" opacity="1" fill="#9871f5" fill-opacity="1"></use><g><use xlink:href="#c2JW7q2hgd" opacity="1" fill-opacity="0" stroke="#000000" stroke-width="1" stroke-opacity="0"></use></g></g><g><use xlink:href="#bl9RncL4x" opacity="1" fill="#000000" fill-opacity="0"></use><g><use xlink:href="#bl9RncL4x" opacity="1" fill-opacity="0" stroke="#000000" stroke-width="1" stroke-opacity="0"></use></g></g><g><use xlink:href="#a1RJLacyKE" opacity="1" fill="#9871f5" fill-opacity="1"></use><g><use xlink:href="#a1RJLacyKE" opacity="1" fill-opacity="0" stroke="#000000" stroke-width="1" stroke-opacity="0"></use></g></g><g><use xlink:href="#d77iIEjzP" opacity="1" fill="#000000" fill-opacity="0"></use><g><use xlink:href="#d77iIEjzP" opacity="1" fill-opacity="0" stroke="#000000" stroke-width="1" stroke-opacity="0"></use></g></g><g><use xlink:href="#f3231GY3er" opacity="1" fill="#9871f5" fill-opacity="1"></use><g><use xlink:href="#f3231GY3er" opacity="1" fill-opacity="0" stroke="#000000" stroke-width="1" stroke-opacity="0"></use></g></g><g><use xlink:href="#b5kUFd8z2" opacity="1" fill="#000000" fill-opacity="0"></use><g><use xlink:href="#b5kUFd8z2" opacity="1" fill-opacity="0" stroke="#000000" stroke-width="1" stroke-opacity="0"></use></g></g><g><use xlink:href="#b9SL8geg6" opacity="1" fill="#9871f5" fill-opacity="1"></use><g><use xlink:href="#b9SL8geg6" opacity="1" fill-opacity="0" stroke="#000000" stroke-width="1" stroke-opacity="0"></use></g></g><g><use xlink:href="#b1oZwNXpa" opacity="1" fill="#000000" fill-opacity="0"></use><g><use xlink:href="#b1oZwNXpa" opacity="1" fill-opacity="0" stroke="#000000" stroke-width="1" stroke-opacity="0"></use></g></g><g><use xlink:href="#b30Tc4o1Pi" opacity="1" fill="#9871f5" fill-opacity="1"></use><g><use xlink:href="#b30Tc4o1Pi" opacity="1" fill-opacity="0" stroke="#000000" stroke-width="1" stroke-opacity="0"></use></g></g><g><use xlink:href="#b2rEfwxByw" opacity="1" fill="#000000" fill-opacity="0"></use><g><use xlink:href="#b2rEfwxByw" opacity="1" fill-opacity="0" stroke="#000000" stroke-width="1" stroke-opacity="0"></use></g></g><g><use xlink:href="#a1iUexuIkp" opacity="1" fill="#9871f5" fill-opacity="1"></use><g><use xlink:href="#a1iUexuIkp" opacity="1" fill-opacity="0" stroke="#000000" stroke-width="1" stroke-opacity="0"></use></g></g><g><use xlink:href="#elaanEFKe" opacity="1" fill="#000000" fill-opacity="0"></use><g><use xlink:href="#elaanEFKe" opacity="1" fill-opacity="0" stroke="#000000" stroke-width="1" stroke-opacity="0"></use></g></g><g><use xlink:href="#f7Oq75a1I" opacity="1" fill="#9871f5" fill-opacity="1"></use><g><use xlink:href="#f7Oq75a1I" opacity="1" fill-opacity="0" stroke="#000000" stroke-width="1" stroke-opacity="0"></use></g></g><g><use xlink:href="#f1QAM4wDq2" opacity="1" fill="#000000" fill-opacity="0"></use><g><use xlink:href="#f1QAM4wDq2" opacity="1" fill-opacity="0" stroke="#000000" stroke-width="1" stroke-opacity="0"></use></g></g><g><use xlink:href="#j2IBs2VmFw" opacity="1" fill="#9871f5" fill-opacity="1"></use><g><use xlink:href="#j2IBs2VmFw" opacity="1" fill-opacity="0" stroke="#000000" stroke-width="1" stroke-opacity="0"></use></g></g><g><use xlink:href="#a231oQsvIN" opacity="1" fill="#000000" fill-opacity="0"></use><g><use xlink:href="#a231oQsvIN" opacity="1" fill-opacity="0" stroke="#000000" stroke-width="1" stroke-opacity="0"></use></g></g><g><use xlink:href="#b1TFkTBYlU" opacity="1" fill="#9871f5" fill-opacity="1"></use><g><use xlink:href="#b1TFkTBYlU" opacity="1" fill-opacity="0" stroke="#000000" stroke-width="1" stroke-opacity="0"></use></g></g><g><use xlink:href="#c2qNNSB01N" opacity="1" fill="#000000" fill-opacity="0"></use><g><use xlink:href="#c2qNNSB01N" opacity="1" fill-opacity="0" stroke="#000000" stroke-width="1" stroke-opacity="0"></use></g></g><g><use xlink:href="#d1DJgsQyrn" opacity="1" fill="#9871f5" fill-opacity="1"></use><g><use xlink:href="#d1DJgsQyrn" opacity="1" fill-opacity="0" stroke="#000000" stroke-width="1" stroke-opacity="0"></use></g></g><g><use xlink:href="#aIa7PPkG" opacity="1" fill="#000000" fill-opacity="0"></use><g><use xlink:href="#aIa7PPkG" opacity="1" fill-opacity="0" stroke="#000000" stroke-width="1" stroke-opacity="0"></use></g></g><g><use xlink:href="#c1wH2N3rgo" opacity="1" fill="#9871f5" fill-opacity="1"></use><g><use xlink:href="#c1wH2N3rgo" opacity="1" fill-opacity="0" stroke="#000000" stroke-width="1" stroke-opacity="0"></use></g></g><g><use xlink:href="#agJgZOdGa" opacity="1" fill="#000000" fill-opacity="0"></use><g><use xlink:href="#agJgZOdGa" opacity="1" fill-opacity="0" stroke="#000000" stroke-width="1" stroke-opacity="0"></use></g></g><g><use xlink:href="#fa28kcJOJ" opacity="1" fill="#9871f5" fill-opacity="1"></use><g><use xlink:href="#fa28kcJOJ" opacity="1" fill-opacity="0" stroke="#000000" stroke-width="1" stroke-opacity="0"></use></g></g><g><use xlink:href="#dBZLiTMO6" opacity="1" fill="#000000" fill-opacity="0"></use><g><use xlink:href="#dBZLiTMO6" opacity="1" fill-opacity="0" stroke="#000000" stroke-width="1" stroke-opacity="0"></use></g></g><g><use xlink:href="#c1DVr4l1mF" opacity="1" fill="#9871f5" fill-opacity="1"></use><g><use xlink:href="#c1DVr4l1mF" opacity="1" fill-opacity="0" stroke="#000000" stroke-width="1" stroke-opacity="0"></use></g></g><g><use xlink:href="#a1abGVtnZ" opacity="1" fill="#000000" fill-opacity="0"></use><g><use xlink:href="#a1abGVtnZ" opacity="1" fill-opacity="0" stroke="#000000" stroke-width="1" stroke-opacity="0"></use></g></g><g><use xlink:href="#a20whrNrb9" opacity="1" fill="#9871f5" fill-opacity="1"></use><g><use xlink:href="#a20whrNrb9" opacity="1" fill-opacity="0" stroke="#000000" stroke-width="1" stroke-opacity="0"></use></g></g><g><use xlink:href="#b2AImNE4Yw" opacity="1" fill="#000000" fill-opacity="0"></use><g><use xlink:href="#b2AImNE4Yw" opacity="1" fill-opacity="0" stroke="#000000" stroke-width="1" stroke-opacity="0"></use></g></g><g><use xlink:href="#cC1emdGo3" opacity="1" fill="#9871f5" fill-opacity="1"></use><g><use xlink:href="#cC1emdGo3" opacity="1" fill-opacity="0" stroke="#000000" stroke-width="1" stroke-opacity="0"></use></g></g><g><use xlink:href="#i1c3yliP5e" opacity="1" fill="#000000" fill-opacity="0"></use><g><use xlink:href="#i1c3yliP5e" opacity="1" fill-opacity="0" stroke="#000000" stroke-width="1" stroke-opacity="0"></use></g></g><g><use xlink:href="#bgdixbo9z" opacity="1" fill="#9871f5" fill-opacity="1"></use><g><use xlink:href="#bgdixbo9z" opacity="1" fill-opacity="0" stroke="#000000" stroke-width="1" stroke-opacity="0"></use></g></g><g><use xlink:href="#e2vVCTZctQ" opacity="1" fill="#000000" fill-opacity="0"></use><g><use xlink:href="#e2vVCTZctQ" opacity="1" fill-opacity="0" stroke="#000000" stroke-width="1" stroke-opacity="0"></use></g></g><g><use xlink:href="#a1vROwvV1m" opacity="1" fill="#9871f5" fill-opacity="1"></use><g><use xlink:href="#a1vROwvV1m" opacity="1" fill-opacity="0" stroke="#000000" stroke-width="1" stroke-opacity="0"></use></g></g><g><use xlink:href="#flcyqKxz1" opacity="1" fill="#000000" fill-opacity="0"></use><g><use xlink:href="#flcyqKxz1" opacity="1" fill-opacity="0" stroke="#000000" stroke-width="1" stroke-opacity="0"></use></g></g><g><use xlink:href="#ebwY2N3E1" opacity="1" fill="#9871f5" fill-opacity="1"></use><g><use xlink:href="#ebwY2N3E1" opacity="1" fill-opacity="0" stroke="#000000" stroke-width="1" stroke-opacity="0"></use></g></g><g><use xlink:href="#bqwJBejoV" opacity="1" fill="#000000" fill-opacity="0"></use><g><use xlink:href="#bqwJBejoV" opacity="1" fill-opacity="0" stroke="#000000" stroke-width="1" stroke-opacity="0"></use></g></g><g><use xlink:href="#a6eqw7iZX" opacity="1" fill="#9871f5" fill-opacity="1"></use><g><use xlink:href="#a6eqw7iZX" opacity="1" fill-opacity="0" stroke="#000000" stroke-width="1" stroke-opacity="0"></use></g></g><g><use xlink:href="#h1tsJj1aFf" opacity="1" fill="#000000" fill-opacity="0"></use><g><use xlink:href="#h1tsJj1aFf" opacity="1" fill-opacity="0" stroke="#000000" stroke-width="1" stroke-opacity="0"></use></g></g><g><use xlink:href="#bp7G2tBJi" opacity="1" fill="#9871f5" fill-opacity="1"></use><g><use xlink:href="#bp7G2tBJi" opacity="1" fill-opacity="0" stroke="#000000" stroke-width="1" stroke-opacity="0"></use></g></g><g><use xlink:href="#e1enZIbzVz" opacity="1" fill="#000000" fill-opacity="0"></use><g><use xlink:href="#e1enZIbzVz" opacity="1" fill-opacity="0" stroke="#000000" stroke-width="1" stroke-opacity="0"></use></g></g><g><use xlink:href="#a1uR7vuXcs" opacity="1" fill="#9871f5" fill-opacity="1"></use><g><use xlink:href="#a1uR7vuXcs" opacity="1" fill-opacity="0" stroke="#000000" stroke-width="1" stroke-opacity="0"></use></g></g><g><use xlink:href="#gyPVMcv8d" opacity="1" fill="#000000" fill-opacity="0"></use><g><use xlink:href="#gyPVMcv8d" opacity="1" fill-opacity="0" stroke="#000000" stroke-width="1" stroke-opacity="0"></use></g></g><g><use xlink:href="#a7lu1naTlP" opacity="1" fill="#9871f5" fill-opacity="1"></use><g><use xlink:href="#a7lu1naTlP" opacity="1" fill-opacity="0" stroke="#000000" stroke-width="1" stroke-opacity="0"></use></g></g><g><use xlink:href="#a1tyHyjGdW" opacity="1" fill="#000000" fill-opacity="0"></use><g><use xlink:href="#a1tyHyjGdW" opacity="1" fill-opacity="0" stroke="#000000" stroke-width="1" stroke-opacity="0"></use></g></g><g><use xlink:href="#a62kwNdUV" opacity="1" fill="#9871f5" fill-opacity="1"></use><g><use xlink:href="#a62kwNdUV" opacity="1" fill-opacity="0" stroke="#000000" stroke-width="1" stroke-opacity="0"></use></g></g><g><use xlink:href="#a1nSZxntY" opacity="1" fill="#000000" fill-opacity="0"></use><g><use xlink:href="#a1nSZxntY" opacity="1" fill-opacity="0" stroke="#000000" stroke-width="1" stroke-opacity="0"></use></g></g><g><use xlink:href="#b3CNcro2Ll" opacity="1" fill="#9871f5" fill-opacity="1"></use><g><use xlink:href="#b3CNcro2Ll" opacity="1" fill-opacity="0" stroke="#000000" stroke-width="1" stroke-opacity="0"></use></g></g><g><use xlink:href="#d1Hf5dECdf" opacity="1" fill="#000000" fill-opacity="0"></use><g><use xlink:href="#d1Hf5dECdf" opacity="1" fill-opacity="0" stroke="#000000" stroke-width="1" stroke-opacity="0"></use></g></g><g><use xlink:href="#h12pnZn8RO" opacity="1" fill="#9871f5" fill-opacity="1"></use><g><use xlink:href="#h12pnZn8RO" opacity="1" fill-opacity="0" stroke="#000000" stroke-width="1" stroke-opacity="0"></use></g></g><g><use xlink:href="#c1enolJazA" opacity="1" fill="#000000" fill-opacity="0"></use><g><use xlink:href="#c1enolJazA" opacity="1" fill-opacity="0" stroke="#000000" stroke-width="1" stroke-opacity="0"></use></g></g><g><use xlink:href="#f49DbDh4Z" opacity="1" fill="#9871f5" fill-opacity="1"></use><g><use xlink:href="#f49DbDh4Z" opacity="1" fill-opacity="0" stroke="#000000" stroke-width="1" stroke-opacity="0"></use></g></g><g><use xlink:href="#a35wexZkU" opacity="1" fill="#000000" fill-opacity="0"></use><g><use xlink:href="#a35wexZkU" opacity="1" fill-opacity="0" stroke="#000000" stroke-width="1" stroke-opacity="0"></use></g></g><g><use xlink:href="#e5U3ooTinU" opacity="1" fill="#9871f5" fill-opacity="1"></use><g><use xlink:href="#e5U3ooTinU" opacity="1" fill-opacity="0" stroke="#000000" stroke-width="1" stroke-opacity="0"></use></g></g><g><use xlink:href="#b6c5aVHuFE" opacity="1" fill="#000000" fill-opacity="0"></use><g><use xlink:href="#b6c5aVHuFE" opacity="1" fill-opacity="0" stroke="#000000" stroke-width="1" stroke-opacity="0"></use></g></g><g><use xlink:href="#esCCQkFG" opacity="1" fill="#9871f5" fill-opacity="1"></use><g><use xlink:href="#esCCQkFG" opacity="1" fill-opacity="0" stroke="#000000" stroke-width="1" stroke-opacity="0"></use></g></g><g><use xlink:href="#g1GFU4LNO4" opacity="1" fill="#000000" fill-opacity="0"></use><g><use xlink:href="#g1GFU4LNO4" opacity="1" fill-opacity="0" stroke="#000000" stroke-width="1" stroke-opacity="0"></use></g></g><g><use xlink:href="#cpfkheQFY" opacity="1" fill="#9871f5" fill-opacity="1"></use><g><use xlink:href="#cpfkheQFY" opacity="1" fill-opacity="0" stroke="#000000" stroke-width="1" stroke-opacity="0"></use></g></g><g><use xlink:href="#ask0gtqaN" opacity="1" fill="#000000" fill-opacity="0"></use><g><use xlink:href="#ask0gtqaN" opacity="1" fill-opacity="0" stroke="#000000" stroke-width="1" stroke-opacity="0"></use></g></g><g><use xlink:href="#bCkE38g47" opacity="1" fill="#9871f5" fill-opacity="1"></use><g><use xlink:href="#bCkE38g47" opacity="1" fill-opacity="0" stroke="#000000" stroke-width="1" stroke-opacity="0"></use></g></g><g><use xlink:href="#b2Q1YrthSd" opacity="1" fill="#000000" fill-opacity="0"></use><g><use xlink:href="#b2Q1YrthSd" opacity="1" fill-opacity="0" stroke="#000000" stroke-width="1" stroke-opacity="0"></use></g></g><g><use xlink:href="#b6Hbt25vqE" opacity="1" fill="#9871f5" fill-opacity="1"></use><g><use xlink:href="#b6Hbt25vqE" opacity="1" fill-opacity="0" stroke="#000000" stroke-width="1" stroke-opacity="0"></use></g></g><g><use xlink:href="#b2oPoNJBVz" opacity="1" fill="#000000" fill-opacity="0"></use><g><use xlink:href="#b2oPoNJBVz" opacity="1" fill-opacity="0" stroke="#000000" stroke-width="1" stroke-opacity="0"></use></g></g><g><use xlink:href="#cfsMqlKO2" opacity="1" fill="#9871f5" fill-opacity="1"></use><g><use xlink:href="#cfsMqlKO2" opacity="1" fill-opacity="0" stroke="#000000" stroke-width="1" stroke-opacity="0"></use></g></g><g><use xlink:href="#bze81oBGg" opacity="1" fill="#000000" fill-opacity="0"></use><g><use xlink:href="#bze81oBGg" opacity="1" fill-opacity="0" stroke="#000000" stroke-width="1" stroke-opacity="0"></use></g></g><g><use xlink:href="#aDUDU5ycS" opacity="1" fill="#9871f5" fill-opacity="1"></use><g><use xlink:href="#aDUDU5ycS" opacity="1" fill-opacity="0" stroke="#000000" stroke-width="1" stroke-opacity="0"></use></g></g><g><use xlink:href="#a9nkoH97u" opacity="1" fill="#000000" fill-opacity="0"></use><g><use xlink:href="#a9nkoH97u" opacity="1" fill-opacity="0" stroke="#000000" stroke-width="1" stroke-opacity="0"></use></g></g><g><use xlink:href="#d2XSRaEBYj" opacity="1" fill="#9871f5" fill-opacity="1"></use><g><use xlink:href="#d2XSRaEBYj" opacity="1" fill-opacity="0" stroke="#000000" stroke-width="1" stroke-opacity="0"></use></g></g><g><use xlink:href="#b1SkxgEsL" opacity="1" fill="#000000" fill-opacity="0"></use><g><use xlink:href="#b1SkxgEsL" opacity="1" fill-opacity="0" stroke="#000000" stroke-width="1" stroke-opacity="0"></use></g></g><g><use xlink:href="#a3o5itDGp" opacity="1" fill="#9871f5" fill-opacity="1"></use><g><use xlink:href="#a3o5itDGp" opacity="1" fill-opacity="0" stroke="#000000" stroke-width="1" stroke-opacity="0"></use></g></g><g><use xlink:href="#anPdjVj0M" opacity="1" fill="#000000" fill-opacity="0"></use><g><use xlink:href="#anPdjVj0M" opacity="1" fill-opacity="0" stroke="#000000" stroke-width="1" stroke-opacity="0"></use></g></g></g></g></svg>