<?xml version="1.0" encoding="utf-8"?><svg xml:space="preserve" viewBox="0 0 100 100" y="0" x="0" xmlns="http://www.w3.org/2000/svg" id="圖層_1" version="1.1" width="50px" height="50px" xmlns:xlink="http://www.w3.org/1999/xlink" style="width:100%;height:100%;background-color:transparent;animation-play-state:paused" >
<path fill="rgb(191, 96, 255)" d="M51.8 73.9c-4.9-4-7.9-10.3-8.6-17-.7-6.7 1-13.5 3.8-19.3 2.3-4.8 4.1-9.6 5-14.8.9-5.1.8-10.6-.2-16.9 4.9 4 7.9 10.3 8.6 17 .7 6.7-1 13.5-3.8 19.3-2.3 4.8-4.1 9.6-5 14.8-.9 5.2-.7 10.7.2 16.9z"></path>
<path fill="rgb(191, 96, 255)" d="M71.8 67.2c-3.6-3.4-5.9-8.4-6.3-13.6-.4-5.3.9-10.5 3.1-15.1 1.9-3.9 3.3-7.9 3.9-12.2.6-4.2.3-8.7-.8-13.5 3.6 3.4 5.9 8.4 6.3 13.6.4 5.3-.9 10.5-3.1 15.1-1.9 3.9-3.3 7.9-3.9 12.2-.6 4.2-.3 8.6.8 13.5z"></path>
<path fill="rgb(191, 96, 255)" d="M31.9 67.2c-3.6-3.4-5.9-8.4-6.3-13.6-.4-5.3.9-10.5 3.1-15.1 1.9-3.9 3.3-7.9 3.9-12.2.6-4.2.3-8.7-.8-13.5 3.6 3.4 5.9 8.4 6.3 13.6.4 5.3-.9 10.5-3.1 15.1-1.9 3.9-3.3 7.9-3.9 12.2-.7 4.2-.3 8.6.8 13.5z"></path>
<metadata xmlns:d="https://loading.io/stock/" style="animation-play-state:paused" ><d:name style="animation-play-state:paused" >hot</d:name>
<d:tags style="animation-play-state:paused" >spring,burn,fire,warm,temperature,boil,hot,weather</d:tags>
<d:license style="animation-play-state:paused" >free</d:license>
<d:slug style="animation-play-state:paused" >bvjam8</d:slug></metadata></svg>
